<?xml version="1.0" encoding="UTF-8" standalone="no"?>
<!DOCTYPE svg PUBLIC "-//W3C//DTD SVG 1.1//EN"
 "http://www.w3.org/Graphics/SVG/1.1/DTD/svg11.dtd">
<!-- Generated by graphviz version 14.1.1 (20251213.1925)
 -->
<!-- Title: Battle.QSimulation.Diamond.BattleDiamondQSystem Pages: 1 -->
<svg width="435pt" height="140pt"
 viewBox="0.00 0.00 435.00 140.00" xmlns="http://www.w3.org/2000/svg" xmlns:xlink="http://www.w3.org/1999/xlink">
<g id="graph0" class="graph" transform="scale(1 1) rotate(0) translate(4 136)">
<title>Battle.QSimulation.Diamond.BattleDiamondQSystem</title>
<!-- Node1 -->
<g id="Node000001" class="node">
<title>Node1</title>
<g id="a_Node000001"><a xlink:title="Diamond Quantum System🡵 [Systems] &#160;Handles spawning diamonds, managing their lifetime and destroying ...">
<polygon fill="#999999" stroke="#666666" points="426.75,-82 284,-82 284,-50 426.75,-50 426.75,-82"/>
<text xml:space="preserve" text-anchor="start" x="292" y="-68.5" font-family="Helvetica,sans-Serif" font-size="10.00">Battle.QSimulation.Diamond.</text>
<text xml:space="preserve" text-anchor="middle" x="355.38" y="-56.5" font-family="Helvetica,sans-Serif" font-size="10.00">BattleDiamondQSystem</text>
</a>
</g>
</g>
<!-- Node2 -->
<g id="Node000002" class="node">
<title>Node2</title>
<g id="a_Node000002"><a xlink:title=" ">
<polygon fill="white" stroke="#666666" points="247.25,-132 82.75,-132 82.75,-100 247.25,-100 247.25,-132"/>
<text xml:space="preserve" text-anchor="start" x="90.75" y="-118.5" font-family="Helvetica,sans-Serif" font-size="10.00">SystemMainThreadFilter</text>
<text xml:space="preserve" text-anchor="middle" x="165" y="-106.5" font-family="Helvetica,sans-Serif" font-size="10.00">&lt; BattleDiamondQSystem.Filter &gt;</text>
</a>
</g>
</g>
<!-- Node2&#45;&gt;Node1 -->
<g id="edge1_Node000001_Node000002" class="edge">
<title>Node2&#45;&gt;Node1</title>
<g id="a_edge1_Node000001_Node000002"><a xlink:title=" ">
<path fill="none" stroke="#63b8ff" d="M239.05,-96.61C256.67,-91.93 275.34,-86.98 292.4,-82.45"/>
<polygon fill="#63b8ff" stroke="#63b8ff" points="238.17,-93.22 229.4,-99.17 239.97,-99.99 238.17,-93.22"/>
</a>
</g>
</g>
<!-- Node3 -->
<g id="Node000003" class="node">
<title>Node3</title>
<g id="a_Node000003"><a xlink:href="interface_quantum_1_1_i_signal_battle_on_diamond_hit_player.html" target="_top" xlink:title="Signal for player&#39;s and diamond&#39;s collision.">
<polygon fill="white" stroke="#666666" points="248,-82 82,-82 82,-50 248,-50 248,-82"/>
<text xml:space="preserve" text-anchor="start" x="90" y="-68.5" font-family="Helvetica,sans-Serif" font-size="10.00">Quantum.ISignalBattleOnDiamond</text>
<text xml:space="preserve" text-anchor="middle" x="165" y="-56.5" font-family="Helvetica,sans-Serif" font-size="10.00">HitPlayer</text>
</a>
</g>
</g>
<!-- Node3&#45;&gt;Node1 -->
<g id="edge2_Node000001_Node000003" class="edge">
<title>Node3&#45;&gt;Node1</title>
<g id="a_edge2_Node000001_Node000003"><a xlink:title=" ">
<path fill="none" stroke="#63b8ff" d="M259.72,-66C267.79,-66 275.86,-66 283.69,-66"/>
<polygon fill="#63b8ff" stroke="#63b8ff" points="259.86,-62.5 249.86,-66 259.86,-69.5 259.86,-62.5"/>
</a>
</g>
</g>
<!-- Node4 -->
<g id="Node000004" class="node">
<title>Node4</title>
<g id="a_Node000004"><a xlink:title=" ">
<polygon fill="white" stroke="#666666" points="46,-51 0,-51 0,-31 46,-31 46,-51"/>
<text xml:space="preserve" text-anchor="middle" x="23" y="-37.5" font-family="Helvetica,sans-Serif" font-size="10.00">ISignal</text>
</a>
</g>
</g>
<!-- Node4&#45;&gt;Node3 -->
<g id="edge3_Node000003_Node000004" class="edge">
<title>Node4&#45;&gt;Node3</title>
<g id="a_edge3_Node000003_Node000004"><a xlink:title=" ">
<path fill="none" stroke="#63b8ff" d="M57.74,-47.02C65.1,-48.34 73.2,-49.79 81.55,-51.28"/>
<polygon fill="#63b8ff" stroke="#63b8ff" points="58.44,-43.6 47.98,-45.28 57.21,-50.49 58.44,-43.6"/>
</a>
</g>
</g>
<!-- Node5 -->
<g id="Node000005" class="node">
<title>Node5</title>
<g id="a_Node000005"><a xlink:href="interface_quantum_1_1_i_signal_battle_on_diamond_hit_arena_border.html" target="_top" xlink:title=" ">
<polygon fill="white" stroke="#666666" points="248,-32 82,-32 82,0 248,0 248,-32"/>
<text xml:space="preserve" text-anchor="start" x="90" y="-18.5" font-family="Helvetica,sans-Serif" font-size="10.00">Quantum.ISignalBattleOnDiamond</text>
<text xml:space="preserve" text-anchor="middle" x="165" y="-6.5" font-family="Helvetica,sans-Serif" font-size="10.00">HitArenaBorder</text>
</a>
</g>
</g>
<!-- Node4&#45;&gt;Node5 -->
<g id="edge5_Node000005_Node000004" class="edge">
<title>Node4&#45;&gt;Node5</title>
<g id="a_edge5_Node000005_Node000004"><a xlink:title=" ">
<path fill="none" stroke="#63b8ff" d="M57.74,-34.98C65.1,-33.66 73.2,-32.21 81.55,-30.72"/>
<polygon fill="#63b8ff" stroke="#63b8ff" points="57.21,-31.51 47.98,-36.72 58.44,-38.4 57.21,-31.51"/>
</a>
</g>
</g>
<!-- Node5&#45;&gt;Node1 -->
<g id="edge4_Node000001_Node000005" class="edge">
<title>Node5&#45;&gt;Node1</title>
<g id="a_edge4_Node000001_Node000005"><a xlink:title=" ">
<path fill="none" stroke="#63b8ff" d="M239.05,-35.39C256.67,-40.07 275.34,-45.02 292.4,-49.55"/>
<polygon fill="#63b8ff" stroke="#63b8ff" points="239.97,-32.01 229.4,-32.83 238.17,-38.78 239.97,-32.01"/>
</a>
</g>
</g>
</g>
</svg>
