<?xml version="1.0" encoding="UTF-8" standalone="no"?>
<!DOCTYPE svg PUBLIC "-//W3C//DTD SVG 1.1//EN"
 "http://www.w3.org/Graphics/SVG/1.1/DTD/svg11.dtd">
<!-- Generated by graphviz version 14.1.1 (20251213.1925)
 -->
<!-- Title: Battle.QSimulation.Projectile.BattleProjectileQSystem Pages: 1 -->
<svg width="322pt" height="152pt"
 viewBox="0.00 0.00 322.00 152.00" xmlns="http://www.w3.org/2000/svg" xmlns:xlink="http://www.w3.org/1999/xlink">
<g id="graph0" class="graph" transform="scale(1 1) rotate(0) translate(4 148)">
<title>Battle.QSimulation.Projectile.BattleProjectileQSystem</title>
<!-- Node1 -->
<g id="Node000001" class="node">
<title>Node1</title>
<g id="a_Node000001"><a xlink:title="Projectile Quantum System🡵 [Systems] &#160;Handles projectile logic, including projectile&#39;s movements and ...">
<polygon fill="#999999" stroke="#666666" points="216.38,-32 72.12,-32 72.12,0 216.38,0 216.38,-32"/>
<text xml:space="preserve" text-anchor="start" x="80.12" y="-18.5" font-family="Helvetica,sans-Serif" font-size="10.00">Battle.QSimulation.Projectile.</text>
<text xml:space="preserve" text-anchor="middle" x="144.25" y="-6.5" font-family="Helvetica,sans-Serif" font-size="10.00">BattleProjectileQSystem</text>
</a>
</g>
</g>
<!-- Node2 -->
<g id="Node000002" class="node">
<title>Node2</title>
<g id="a_Node000002"><a xlink:title=" ">
<polygon fill="white" stroke="#666666" points="122.5,-88 0,-88 0,-68 122.5,-68 122.5,-88"/>
<text xml:space="preserve" text-anchor="middle" x="61.25" y="-74.5" font-family="Helvetica,sans-Serif" font-size="10.00">SystemMainThreadFilter</text>
</a>
</g>
</g>
<!-- Node2&#45;&gt;Node1 -->
<g id="edge1_Node000001_Node000002" class="edge">
<title>Node2&#45;&gt;Node1</title>
<g id="a_edge1_Node000001_Node000002"><a xlink:title=" ">
<path fill="none" stroke="#63b8ff" d="M83.33,-61.04C95.61,-52.16 110.83,-41.16 122.98,-32.37"/>
<polygon fill="#63b8ff" stroke="#63b8ff" points="81.5,-58.04 75.45,-66.74 85.6,-63.72 81.5,-58.04"/>
</a>
</g>
</g>
<!-- Node3 -->
<g id="Node000003" class="node">
<title>Node3</title>
<g id="a_Node000003"><a xlink:href="interface_quantum_1_1_i_signal_battle_on_game_over.html" target="_top" xlink:title="Signal for ending battle.">
<polygon fill="white" stroke="#666666" points="314.38,-88 140.12,-88 140.12,-68 314.38,-68 314.38,-88"/>
<text xml:space="preserve" text-anchor="middle" x="227.25" y="-74.5" font-family="Helvetica,sans-Serif" font-size="10.00">Quantum.ISignalBattleOnGameOver</text>
</a>
</g>
</g>
<!-- Node3&#45;&gt;Node1 -->
<g id="edge2_Node000001_Node000003" class="edge">
<title>Node3&#45;&gt;Node1</title>
<g id="a_edge2_Node000001_Node000003"><a xlink:title=" ">
<path fill="none" stroke="#63b8ff" d="M205.17,-61.04C192.89,-52.16 177.67,-41.16 165.52,-32.37"/>
<polygon fill="#63b8ff" stroke="#63b8ff" points="202.9,-63.72 213.05,-66.74 207,-58.04 202.9,-63.72"/>
</a>
</g>
</g>
<!-- Node4 -->
<g id="Node000004" class="node">
<title>Node4</title>
<g id="a_Node000004"><a xlink:title=" ">
<polygon fill="white" stroke="#666666" points="250.25,-144 204.25,-144 204.25,-124 250.25,-124 250.25,-144"/>
<text xml:space="preserve" text-anchor="middle" x="227.25" y="-130.5" font-family="Helvetica,sans-Serif" font-size="10.00">ISignal</text>
</a>
</g>
</g>
<!-- Node4&#45;&gt;Node3 -->
<g id="edge3_Node000003_Node000004" class="edge">
<title>Node4&#45;&gt;Node3</title>
<g id="a_edge3_Node000003_Node000004"><a xlink:title=" ">
<path fill="none" stroke="#63b8ff" d="M227.25,-112.13C227.25,-103.9 227.25,-94.85 227.25,-88.3"/>
<polygon fill="#63b8ff" stroke="#63b8ff" points="223.75,-112.08 227.25,-122.08 230.75,-112.08 223.75,-112.08"/>
</a>
</g>
</g>
</g>
</svg>
