<?xml version="1.0" encoding="UTF-8" standalone="no"?>
<!DOCTYPE svg PUBLIC "-//W3C//DTD SVG 1.1//EN"
 "http://www.w3.org/Graphics/SVG/1.1/DTD/svg11.dtd">
<!-- Generated by graphviz version 14.1.1 (20251213.1925)
 -->
<!-- Title: Battle.View.UI.BattleUiJoystickComponent Pages: 1 -->
<svg width="424pt" height="96pt"
 viewBox="0.00 0.00 424.00 96.00" xmlns="http://www.w3.org/2000/svg" xmlns:xlink="http://www.w3.org/1999/xlink">
<g id="graph0" class="graph" transform="scale(1 1) rotate(0) translate(4 92)">
<title>Battle.View.UI.BattleUiJoystickComponent</title>
<!-- Node1 -->
<g id="Node000001" class="node">
<title>Node1</title>
<g id="a_Node000001"><a xlink:title="Joystick UI Component (Unity MonoBehaviour script🡵). &#160;Handles Battle Ui joystick drag input functiona...">
<polygon fill="#999999" stroke="#666666" points="286.75,-32 132.75,-32 132.75,0 286.75,0 286.75,-32"/>
<text xml:space="preserve" text-anchor="start" x="140.75" y="-18.5" font-family="Helvetica,sans-Serif" font-size="10.00">Battle.View.UI.BattleUiJoystick</text>
<text xml:space="preserve" text-anchor="middle" x="209.75" y="-6.5" font-family="Helvetica,sans-Serif" font-size="10.00">Component</text>
</a>
</g>
</g>
<!-- Node2 -->
<g id="Node000002" class="node">
<title>Node2</title>
<g id="a_Node000002"><a xlink:title=" ">
<polygon fill="white" stroke="#666666" points="83.5,-88 0,-88 0,-68 83.5,-68 83.5,-88"/>
<text xml:space="preserve" text-anchor="middle" x="41.75" y="-74.5" font-family="Helvetica,sans-Serif" font-size="10.00">MonoBehaviour</text>
</a>
</g>
</g>
<!-- Node2&#45;&gt;Node1 -->
<g id="edge1_Node000001_Node000002" class="edge">
<title>Node2&#45;&gt;Node1</title>
<g id="a_edge1_Node000001_Node000002"><a xlink:title=" ">
<path fill="none" stroke="#63b8ff" d="M78.5,-63.87C104.38,-54.63 139.13,-42.22 166.38,-32.49"/>
<polygon fill="#63b8ff" stroke="#63b8ff" points="77.67,-60.46 69.43,-67.12 80.02,-67.05 77.67,-60.46"/>
</a>
</g>
</g>
<!-- Node3 -->
<g id="Node000003" class="node">
<title>Node3</title>
<g id="a_Node000003"><a xlink:title=" ">
<polygon fill="white" stroke="#666666" points="210.25,-88 101.25,-88 101.25,-68 210.25,-68 210.25,-88"/>
<text xml:space="preserve" text-anchor="middle" x="155.75" y="-74.5" font-family="Helvetica,sans-Serif" font-size="10.00">IPointerDownHandler</text>
</a>
</g>
</g>
<!-- Node3&#45;&gt;Node1 -->
<g id="edge2_Node000001_Node000003" class="edge">
<title>Node3&#45;&gt;Node1</title>
<g id="a_edge2_Node000001_Node000003"><a xlink:title=" ">
<path fill="none" stroke="#63b8ff" d="M171.86,-59.1C179.59,-50.51 188.75,-40.34 196.12,-32.14"/>
<polygon fill="#63b8ff" stroke="#63b8ff" points="169.29,-56.73 165.2,-66.5 174.49,-61.41 169.29,-56.73"/>
</a>
</g>
</g>
<!-- Node4 -->
<g id="Node000004" class="node">
<title>Node4</title>
<g id="a_Node000004"><a xlink:title=" ">
<polygon fill="white" stroke="#666666" points="301.62,-88 227.88,-88 227.88,-68 301.62,-68 301.62,-88"/>
<text xml:space="preserve" text-anchor="middle" x="264.75" y="-74.5" font-family="Helvetica,sans-Serif" font-size="10.00">IDragHandler</text>
</a>
</g>
</g>
<!-- Node4&#45;&gt;Node1 -->
<g id="edge3_Node000001_Node000004" class="edge">
<title>Node4&#45;&gt;Node1</title>
<g id="a_edge3_Node000001_Node000004"><a xlink:title=" ">
<path fill="none" stroke="#63b8ff" d="M248.59,-59.37C240.67,-50.73 231.22,-40.42 223.63,-32.14"/>
<polygon fill="#63b8ff" stroke="#63b8ff" points="245.8,-61.5 255.13,-66.51 250.96,-56.77 245.8,-61.5"/>
</a>
</g>
</g>
<!-- Node5 -->
<g id="Node000005" class="node">
<title>Node5</title>
<g id="a_Node000005"><a xlink:title=" ">
<polygon fill="white" stroke="#666666" points="415.88,-88 319.62,-88 319.62,-68 415.88,-68 415.88,-88"/>
<text xml:space="preserve" text-anchor="middle" x="367.75" y="-74.5" font-family="Helvetica,sans-Serif" font-size="10.00">IPointerUpHandler</text>
</a>
</g>
</g>
<!-- Node5&#45;&gt;Node1 -->
<g id="edge4_Node000001_Node000005" class="edge">
<title>Node5&#45;&gt;Node1</title>
<g id="a_edge4_Node000001_Node000005"><a xlink:title=" ">
<path fill="none" stroke="#63b8ff" d="M332.53,-63.63C308.26,-54.41 275.93,-42.13 250.54,-32.49"/>
<polygon fill="#63b8ff" stroke="#63b8ff" points="331.06,-66.81 341.65,-67.09 333.54,-60.27 331.06,-66.81"/>
</a>
</g>
</g>
</g>
</svg>
