<?xml version="1.0" encoding="UTF-8" standalone="no"?>
<!DOCTYPE svg PUBLIC "-//W3C//DTD SVG 1.1//EN"
 "http://www.w3.org/Graphics/SVG/1.1/DTD/svg11.dtd">
<!-- Generated by graphviz version 14.1.1 (20251213.1925)
 -->
<!-- Title: Quantum.QPrototypeBattleArenaBorderQComponent Pages: 1 -->
<svg width="375pt" height="114pt"
 viewBox="0.00 0.00 375.00 114.00" xmlns="http://www.w3.org/2000/svg" xmlns:xlink="http://www.w3.org/1999/xlink">
<g id="graph0" class="graph" transform="scale(1 1) rotate(0) translate(4 110)">
<title>Quantum.QPrototypeBattleArenaBorderQComponent</title>
<!-- Node1 -->
<g id="Node000001" class="node">
<title>Node1</title>
<g id="a_Node000001"><a xlink:title=" ">
<polygon fill="#999999" stroke="#666666" points="367.25,-69 233.5,-69 233.5,-37 367.25,-37 367.25,-69"/>
<text xml:space="preserve" text-anchor="start" x="241.5" y="-55.5" font-family="Helvetica,sans-Serif" font-size="10.00">Quantum.QPrototypeBattle</text>
<text xml:space="preserve" text-anchor="middle" x="300.38" y="-43.5" font-family="Helvetica,sans-Serif" font-size="10.00">ArenaBorderQComponent</text>
</a>
</g>
</g>
<!-- Node2 -->
<g id="Node000002" class="node">
<title>Node2</title>
<g id="a_Node000002"><a xlink:title=" ">
<polygon fill="white" stroke="#666666" points="197.5,-106 0,-106 0,-62 197.5,-62 197.5,-106"/>
<text xml:space="preserve" text-anchor="start" x="8" y="-92.5" font-family="Helvetica,sans-Serif" font-size="10.00">QuantumUnityComponentPrototype</text>
<text xml:space="preserve" text-anchor="start" x="8" y="-80.5" font-family="Helvetica,sans-Serif" font-size="10.00">&lt; Quantum.Prototypes.BattleArenaBorder</text>
<text xml:space="preserve" text-anchor="middle" x="98.75" y="-68.5" font-family="Helvetica,sans-Serif" font-size="10.00">QComponentPrototype &gt;</text>
</a>
</g>
</g>
<!-- Node2&#45;&gt;Node1 -->
<g id="edge1_Node000001_Node000002" class="edge">
<title>Node2&#45;&gt;Node1</title>
<g id="a_edge1_Node000001_Node000002"><a xlink:title=" ">
<path fill="none" stroke="#63b8ff" d="M208.98,-67.04C217.15,-65.77 225.24,-64.51 233.02,-63.3"/>
<polygon fill="#63b8ff" stroke="#63b8ff" points="208.65,-63.55 199.3,-68.54 209.72,-70.46 208.65,-63.55"/>
</a>
</g>
</g>
<!-- Node3 -->
<g id="Node000003" class="node">
<title>Node3</title>
<g id="a_Node000003"><a xlink:title=" ">
<polygon fill="white" stroke="#666666" points="190.38,-44 7.12,-44 7.12,0 190.38,0 190.38,-44"/>
<text xml:space="preserve" text-anchor="start" x="15.12" y="-30.5" font-family="Helvetica,sans-Serif" font-size="10.00">IQuantumUnityPrototypeWrapper</text>
<text xml:space="preserve" text-anchor="start" x="15.12" y="-18.5" font-family="Helvetica,sans-Serif" font-size="10.00">ForComponent&lt; Quantum.BattleArena</text>
<text xml:space="preserve" text-anchor="middle" x="98.75" y="-6.5" font-family="Helvetica,sans-Serif" font-size="10.00">BorderQComponent &gt;</text>
</a>
</g>
</g>
<!-- Node3&#45;&gt;Node1 -->
<g id="edge2_Node000001_Node000003" class="edge">
<title>Node3&#45;&gt;Node1</title>
<g id="a_edge2_Node000001_Node000003"><a xlink:title=" ">
<path fill="none" stroke="#63b8ff" d="M201.88,-37.86C212.53,-39.51 223.13,-41.16 233.22,-42.73"/>
<polygon fill="#63b8ff" stroke="#63b8ff" points="202.71,-34.45 192.3,-36.37 201.64,-41.36 202.71,-34.45"/>
</a>
</g>
</g>
</g>
</svg>
