<?xml version="1.0" encoding="UTF-8" standalone="no"?>
<!DOCTYPE svg PUBLIC "-//W3C//DTD SVG 1.1//EN"
 "http://www.w3.org/Graphics/SVG/1.1/DTD/svg11.dtd">
<!-- Generated by graphviz version 14.1.1 (20251213.1925)
 -->
<!-- Title: Battle.View.Player.BattlePlayerClassProjectorViewController Pages: 1 -->
<svg width="180pt" height="164pt"
 viewBox="0.00 0.00 180.00 164.00" xmlns="http://www.w3.org/2000/svg" xmlns:xlink="http://www.w3.org/1999/xlink">
<g id="graph0" class="graph" transform="scale(1 1) rotate(0) translate(4 160)">
<title>Battle.View.Player.BattlePlayerClassProjectorViewController</title>
<!-- Node1 -->
<g id="Node000001" class="node">
<title>Node1</title>
<g id="a_Node000001"><a xlink:title="Projector class view controller. &#160;Handles view logic for the Projector character class">
<polygon fill="#999999" stroke="#666666" points="172,-32 0,-32 0,0 172,0 172,-32"/>
<text xml:space="preserve" text-anchor="start" x="8" y="-18.5" font-family="Helvetica,sans-Serif" font-size="10.00">Battle.View.Player.Battle</text>
<text xml:space="preserve" text-anchor="middle" x="86" y="-6.5" font-family="Helvetica,sans-Serif" font-size="10.00">PlayerClassProjectorViewController</text>
</a>
</g>
</g>
<!-- Node2 -->
<g id="Node000002" class="node">
<title>Node2</title>
<g id="a_Node000002"><a xlink:href="class_battle_1_1_view_1_1_player_1_1_battle_player_class_base_view_controller.html" target="_top" xlink:title="Abstract base class view controller Unity MonoBehaviour script🡵. &#160;Abstract base class for the charact...">
<polygon fill="white" stroke="#666666" points="163.75,-100 8.25,-100 8.25,-68 163.75,-68 163.75,-100"/>
<text xml:space="preserve" text-anchor="start" x="16.25" y="-86.5" font-family="Helvetica,sans-Serif" font-size="10.00">Battle.View.Player.Battle</text>
<text xml:space="preserve" text-anchor="middle" x="86" y="-74.5" font-family="Helvetica,sans-Serif" font-size="10.00">PlayerClassBaseViewController</text>
</a>
</g>
</g>
<!-- Node2&#45;&gt;Node1 -->
<g id="edge1_Node000001_Node000002" class="edge">
<title>Node2&#45;&gt;Node1</title>
<g id="a_edge1_Node000001_Node000002"><a xlink:title=" ">
<path fill="none" stroke="#63b8ff" d="M86,-56.31C86,-48.12 86,-39.38 86,-32.22"/>
<polygon fill="#63b8ff" stroke="#63b8ff" points="82.5,-56.18 86,-66.18 89.5,-56.18 82.5,-56.18"/>
</a>
</g>
</g>
<!-- Node3 -->
<g id="Node000003" class="node">
<title>Node3</title>
<g id="a_Node000003"><a xlink:title=" ">
<polygon fill="white" stroke="#666666" points="127.75,-156 44.25,-156 44.25,-136 127.75,-136 127.75,-156"/>
<text xml:space="preserve" text-anchor="middle" x="86" y="-142.5" font-family="Helvetica,sans-Serif" font-size="10.00">MonoBehaviour</text>
</a>
</g>
</g>
<!-- Node3&#45;&gt;Node2 -->
<g id="edge2_Node000002_Node000003" class="edge">
<title>Node3&#45;&gt;Node2</title>
<g id="a_edge2_Node000002_Node000003"><a xlink:title=" ">
<path fill="none" stroke="#63b8ff" d="M86,-124.31C86,-116.37 86,-107.46 86,-100.14"/>
<polygon fill="#63b8ff" stroke="#63b8ff" points="82.5,-124.11 86,-134.11 89.5,-124.11 82.5,-124.11"/>
</a>
</g>
</g>
</g>
</svg>
