<?xml version="1.0" encoding="UTF-8" standalone="no"?>
<!DOCTYPE svg PUBLIC "-//W3C//DTD SVG 1.1//EN"
 "http://www.w3.org/Graphics/SVG/1.1/DTD/svg11.dtd">
<!-- Generated by graphviz version 14.1.3 (20260303.0454)
 -->
<!-- Title: Battle.View.Player.BattlePlayerCharacterClassBaseViewController Pages: 1 -->
<svg width="572pt" height="90pt"
 viewBox="0.00 0.00 572.00 90.00" xmlns="http://www.w3.org/2000/svg" xmlns:xlink="http://www.w3.org/1999/xlink">
<g id="graph0" class="graph" transform="scale(1 1) rotate(0) translate(4 86)">
<title>Battle.View.Player.BattlePlayerCharacterClassBaseViewController</title>
<!-- Node1 -->
<g id="Node000001" class="node">
<title>Node1</title>
<g id="a_Node000001"><a xlink:title="Abstract base character class view controller Unity MonoBehaviour script🡵. &#160;Abstract base class for t...">
<polygon fill="#999999" stroke="#666666" points="317.75,-57 119.5,-57 119.5,-25 317.75,-25 317.75,-57"/>
<text xml:space="preserve" text-anchor="start" x="127.5" y="-43.5" font-family="Helvetica,sans-Serif" font-size="10.00">Battle.View.Player.Battle</text>
<text xml:space="preserve" text-anchor="middle" x="218.62" y="-31.5" font-family="Helvetica,sans-Serif" font-size="10.00">PlayerCharacterClassBaseViewController</text>
</a>
</g>
</g>
<!-- Node3 -->
<g id="Node000003" class="node">
<title>Node3</title>
<g id="a_Node000003"><a xlink:href="class_battle_1_1_view_1_1_player_1_1_battle_player_character_class100_view_controller_test.html" target="_top" xlink:title="100 class view controller. &#160;Handles view logic for the 100 character class">
<polygon fill="white" stroke="#666666" points="564,-82 353.75,-82 353.75,-50 564,-50 564,-82"/>
<text xml:space="preserve" text-anchor="start" x="361.75" y="-68.5" font-family="Helvetica,sans-Serif" font-size="10.00">Battle.View.Player.Battle</text>
<text xml:space="preserve" text-anchor="middle" x="458.88" y="-56.5" font-family="Helvetica,sans-Serif" font-size="10.00">PlayerCharacterClass100ViewControllerTest</text>
</a>
</g>
</g>
<!-- Node1&#45;&gt;Node3 -->
<g id="edge2_Node000001_Node000003" class="edge">
<title>Node1&#45;&gt;Node3</title>
<g id="a_edge2_Node000001_Node000003"><a xlink:title=" ">
<path fill="none" stroke="#63b8ff" d="M329.18,-52.5C337.2,-53.34 345.27,-54.18 353.26,-55.02"/>
<polygon fill="#63b8ff" stroke="#63b8ff" points="329.72,-49.03 319.41,-51.47 328.99,-56 329.72,-49.03"/>
</a>
</g>
</g>
<!-- Node4 -->
<g id="Node000004" class="node">
<title>Node4</title>
<g id="a_Node000004"><a xlink:href="class_battle_1_1_view_1_1_player_1_1_battle_player_character_class_none_view_controller.html" target="_top" xlink:title="None character class view controller. &#160;Default none/empty character view controller with no additiona...">
<polygon fill="white" stroke="#666666" points="558.38,-32 359.38,-32 359.38,0 558.38,0 558.38,-32"/>
<text xml:space="preserve" text-anchor="start" x="367.38" y="-18.5" font-family="Helvetica,sans-Serif" font-size="10.00">Battle.View.Player.Battle</text>
<text xml:space="preserve" text-anchor="middle" x="458.88" y="-6.5" font-family="Helvetica,sans-Serif" font-size="10.00">PlayerCharacterClassNoneViewController</text>
</a>
</g>
</g>
<!-- Node1&#45;&gt;Node4 -->
<g id="edge3_Node000001_Node000004" class="edge">
<title>Node1&#45;&gt;Node4</title>
<g id="a_edge3_Node000001_Node000004"><a xlink:title=" ">
<path fill="none" stroke="#63b8ff" d="M329.12,-29.51C339.1,-28.46 349.17,-27.41 359.05,-26.37"/>
<polygon fill="#63b8ff" stroke="#63b8ff" points="328.99,-26 319.41,-30.53 329.72,-32.97 328.99,-26"/>
</a>
</g>
</g>
<!-- Node2 -->
<g id="Node000002" class="node">
<title>Node2</title>
<g id="a_Node000002"><a xlink:title=" ">
<polygon fill="white" stroke="#666666" points="83.5,-51 0,-51 0,-31 83.5,-31 83.5,-51"/>
<text xml:space="preserve" text-anchor="middle" x="41.75" y="-37.5" font-family="Helvetica,sans-Serif" font-size="10.00">MonoBehaviour</text>
</a>
</g>
</g>
<!-- Node2&#45;&gt;Node1 -->
<g id="edge1_Node000001_Node000002" class="edge">
<title>Node2&#45;&gt;Node1</title>
<g id="a_edge1_Node000001_Node000002"><a xlink:title=" ">
<path fill="none" stroke="#63b8ff" d="M95.05,-41C102.74,-41 110.86,-41 119.12,-41"/>
<polygon fill="#63b8ff" stroke="#63b8ff" points="95.26,-37.5 85.26,-41 95.26,-44.5 95.26,-37.5"/>
</a>
</g>
</g>
</g>
</svg>
