<?xml version="1.0" encoding="UTF-8" standalone="no"?>
<!DOCTYPE svg PUBLIC "-//W3C//DTD SVG 1.1//EN"
 "http://www.w3.org/Graphics/SVG/1.1/DTD/svg11.dtd">
<!-- Generated by graphviz version 14.1.1 (20251213.1925)
 -->
<!-- Title: OnPointerDownButton Pages: 1 -->
<svg width="218pt" height="84pt"
 viewBox="0.00 0.00 218.00 84.00" xmlns="http://www.w3.org/2000/svg" xmlns:xlink="http://www.w3.org/1999/xlink">
<g id="graph0" class="graph" transform="scale(1 1) rotate(0) translate(4 80)">
<title>OnPointerDownButton</title>
<!-- Node1 -->
<g id="Node000001" class="node">
<title>Node1</title>
<g id="a_Node000001"><a xlink:title="OnPointerDownButton Unity MonoBehaviour script🡵. &#160;Helper class which handles invoking a UnityEvent on...">
<polygon fill="#999999" stroke="#666666" points="155.5,-20 42,-20 42,0 155.5,0 155.5,-20"/>
<text xml:space="preserve" text-anchor="middle" x="98.75" y="-6.5" font-family="Helvetica,sans-Serif" font-size="10.00">OnPointerDownButton</text>
</a>
</g>
</g>
<!-- Node2 -->
<g id="Node000002" class="node">
<title>Node2</title>
<g id="a_Node000002"><a xlink:title=" ">
<polygon fill="white" stroke="#666666" points="83.5,-76 0,-76 0,-56 83.5,-56 83.5,-76"/>
<text xml:space="preserve" text-anchor="middle" x="41.75" y="-62.5" font-family="Helvetica,sans-Serif" font-size="10.00">MonoBehaviour</text>
</a>
</g>
</g>
<!-- Node2&#45;&gt;Node1 -->
<g id="edge1_Node000001_Node000002" class="edge">
<title>Node2&#45;&gt;Node1</title>
<g id="a_edge1_Node000001_Node000002"><a xlink:title=" ">
<path fill="none" stroke="#63b8ff" d="M59.86,-47.85C69.49,-38.72 80.96,-27.86 88.94,-20.3"/>
<polygon fill="#63b8ff" stroke="#63b8ff" points="57.63,-45.13 52.78,-54.55 62.44,-50.22 57.63,-45.13"/>
</a>
</g>
</g>
<!-- Node3 -->
<g id="Node000003" class="node">
<title>Node3</title>
<g id="a_Node000003"><a xlink:title=" ">
<polygon fill="white" stroke="#666666" points="210.25,-76 101.25,-76 101.25,-56 210.25,-56 210.25,-76"/>
<text xml:space="preserve" text-anchor="middle" x="155.75" y="-62.5" font-family="Helvetica,sans-Serif" font-size="10.00">IPointerDownHandler</text>
</a>
</g>
</g>
<!-- Node3&#45;&gt;Node1 -->
<g id="edge2_Node000001_Node000003" class="edge">
<title>Node3&#45;&gt;Node1</title>
<g id="a_edge2_Node000001_Node000003"><a xlink:title=" ">
<path fill="none" stroke="#63b8ff" d="M137.64,-47.85C128.01,-38.72 116.54,-27.86 108.56,-20.3"/>
<polygon fill="#63b8ff" stroke="#63b8ff" points="135.06,-50.22 144.72,-54.55 139.87,-45.13 135.06,-50.22"/>
</a>
</g>
</g>
</g>
</svg>
