<?xml version="1.0" encoding="UTF-8" standalone="no"?>
<!DOCTYPE svg PUBLIC "-//W3C//DTD SVG 1.1//EN"
 "http://www.w3.org/Graphics/SVG/1.1/DTD/svg11.dtd">
<!-- Generated by graphviz version 14.1.1 (20251213.1925)
 -->
<!-- Title: Battle.QSimulation.Player.BattlePlayerClassBase Pages: 1 -->
<svg width="502pt" height="115pt"
 viewBox="0.00 0.00 502.00 115.00" xmlns="http://www.w3.org/2000/svg" xmlns:xlink="http://www.w3.org/1999/xlink">
<g id="graph0" class="graph" transform="scale(1 1) rotate(0) translate(4 111)">
<title>Battle.QSimulation.Player.BattlePlayerClassBase</title>
<!-- Node1 -->
<g id="Node000001" class="node">
<title>Node1</title>
<g id="a_Node000001"><a xlink:title="The base abstract class for player classes. &#160;Contains a reference to the associated BattlePlayerChara...">
<polygon fill="#999999" stroke="#666666" points="131.5,-57 0,-57 0,-25 131.5,-25 131.5,-57"/>
<text xml:space="preserve" text-anchor="start" x="8" y="-43.5" font-family="Helvetica,sans-Serif" font-size="10.00">Battle.QSimulation.Player.</text>
<text xml:space="preserve" text-anchor="middle" x="65.75" y="-31.5" font-family="Helvetica,sans-Serif" font-size="10.00">BattlePlayerClassBase</text>
</a>
</g>
</g>
<!-- Node2 -->
<g id="Node000002" class="node">
<title>Node2</title>
<g id="a_Node000002"><a xlink:href="class_battle_1_1_q_simulation_1_1_player_1_1_battle_player_class_base-1-g.html" target="_top" xlink:title="An extended base abstact class for player classes. &#160;Contains a method for retrieving the class data c...">
<polygon fill="white" stroke="#666666" points="308,-82 167.5,-82 167.5,-50 308,-50 308,-82"/>
<text xml:space="preserve" text-anchor="start" x="175.5" y="-68.5" font-family="Helvetica,sans-Serif" font-size="10.00">Battle.QSimulation.Player.</text>
<text xml:space="preserve" text-anchor="middle" x="237.75" y="-56.5" font-family="Helvetica,sans-Serif" font-size="10.00">BattlePlayerClassBase&lt; T &gt;</text>
</a>
</g>
</g>
<!-- Node1&#45;&gt;Node2 -->
<g id="edge1_Node000001_Node000002" class="edge">
<title>Node1&#45;&gt;Node2</title>
<g id="a_edge1_Node000001_Node000002"><a xlink:title=" ">
<path fill="none" stroke="#63b8ff" d="M143.19,-52.24C151.17,-53.42 159.26,-54.6 167.17,-55.77"/>
<polygon fill="#63b8ff" stroke="#63b8ff" points="143.89,-48.81 133.49,-50.81 142.87,-55.73 143.89,-48.81"/>
</a>
</g>
</g>
<!-- Node5 -->
<g id="Node000005" class="node">
<title>Node5</title>
<g id="a_Node000005"><a xlink:href="class_battle_1_1_q_simulation_1_1_player_1_1_battle_player_class_confluent.html" target="_top" xlink:title="Player character class logic for the 600/Confluent class.">
<polygon fill="white" stroke="#666666" points="306.12,-32 169.38,-32 169.38,0 306.12,0 306.12,-32"/>
<text xml:space="preserve" text-anchor="start" x="177.38" y="-18.5" font-family="Helvetica,sans-Serif" font-size="10.00">Battle.QSimulation.Player.</text>
<text xml:space="preserve" text-anchor="middle" x="237.75" y="-6.5" font-family="Helvetica,sans-Serif" font-size="10.00">BattlePlayerClassConfluent</text>
</a>
</g>
</g>
<!-- Node1&#45;&gt;Node5 -->
<g id="edge4_Node000001_Node000005" class="edge">
<title>Node1&#45;&gt;Node5</title>
<g id="a_edge4_Node000001_Node000005"><a xlink:title=" ">
<path fill="none" stroke="#63b8ff" d="M143.25,-29.75C151.88,-28.48 160.64,-27.19 169.15,-25.94"/>
<polygon fill="#63b8ff" stroke="#63b8ff" points="142.87,-26.27 133.49,-31.19 143.89,-33.19 142.87,-26.27"/>
</a>
</g>
</g>
<!-- Node3 -->
<g id="Node000003" class="node">
<title>Node3</title>
<g id="a_Node000003"><a xlink:href="class_battle_1_1_q_simulation_1_1_player_1_1_battle_player_class_desensitizer.html" target="_top" xlink:title=" ">
<polygon fill="white" stroke="#666666" points="493.5,-107 344,-107 344,-75 493.5,-75 493.5,-107"/>
<text xml:space="preserve" text-anchor="start" x="352" y="-93.5" font-family="Helvetica,sans-Serif" font-size="10.00">Battle.QSimulation.Player.</text>
<text xml:space="preserve" text-anchor="middle" x="418.75" y="-81.5" font-family="Helvetica,sans-Serif" font-size="10.00">BattlePlayerClassDesensitizer</text>
</a>
</g>
</g>
<!-- Node2&#45;&gt;Node3 -->
<g id="edge2_Node000002_Node000003" class="edge">
<title>Node2&#45;&gt;Node3</title>
<g id="a_edge2_Node000002_Node000003"><a xlink:title=" ">
<path fill="none" stroke="#63b8ff" d="M319.72,-77.31C327.73,-78.43 335.84,-79.56 343.79,-80.67"/>
<polygon fill="#63b8ff" stroke="#63b8ff" points="320.36,-73.86 309.97,-75.95 319.39,-80.8 320.36,-73.86"/>
</a>
</g>
</g>
<!-- Node4 -->
<g id="Node000004" class="node">
<title>Node4</title>
<g id="a_Node000004"><a xlink:href="class_battle_1_1_q_simulation_1_1_player_1_1_battle_player_class_projector.html" target="_top" xlink:title="Player character class logic for the 400/Projector class.">
<polygon fill="white" stroke="#666666" points="485.62,-57 351.88,-57 351.88,-25 485.62,-25 485.62,-57"/>
<text xml:space="preserve" text-anchor="start" x="359.88" y="-43.5" font-family="Helvetica,sans-Serif" font-size="10.00">Battle.QSimulation.Player.</text>
<text xml:space="preserve" text-anchor="middle" x="418.75" y="-31.5" font-family="Helvetica,sans-Serif" font-size="10.00">BattlePlayerClassProjector</text>
</a>
</g>
</g>
<!-- Node2&#45;&gt;Node4 -->
<g id="edge3_Node000002_Node000004" class="edge">
<title>Node2&#45;&gt;Node4</title>
<g id="a_edge3_Node000002_Node000004"><a xlink:title=" ">
<path fill="none" stroke="#63b8ff" d="M319.85,-54.67C330.42,-53.2 341.16,-51.7 351.45,-50.26"/>
<polygon fill="#63b8ff" stroke="#63b8ff" points="319.39,-51.2 309.97,-56.05 320.36,-58.14 319.39,-51.2"/>
</a>
</g>
</g>
</g>
</svg>
