<?xml version="1.0" encoding="UTF-8" standalone="no"?>
<!DOCTYPE svg PUBLIC "-//W3C//DTD SVG 1.1//EN"
 "http://www.w3.org/Graphics/SVG/1.1/DTD/svg11.dtd">
<!-- Generated by graphviz version 14.1.1 (20251213.1925)
 -->
<!-- Title: Battle.QSimulation.Game.BattleGameControlQSystem Pages: 1 -->
<svg width="406pt" height="96pt"
 viewBox="0.00 0.00 406.00 96.00" xmlns="http://www.w3.org/2000/svg" xmlns:xlink="http://www.w3.org/1999/xlink">
<g id="graph0" class="graph" transform="scale(1 1) rotate(0) translate(4 92)">
<title>Battle.QSimulation.Game.BattleGameControlQSystem</title>
<!-- Node1 -->
<g id="Node000001" class="node">
<title>Node1</title>
<g id="a_Node000001"><a xlink:title="Game control Quantum System🡵 [Systems] &#160;Controls the overall game flow in Quantum simulation.">
<polygon fill="#999999" stroke="#666666" points="246.62,-32 106.12,-32 106.12,0 246.62,0 246.62,-32"/>
<text xml:space="preserve" text-anchor="start" x="114.12" y="-18.5" font-family="Helvetica,sans-Serif" font-size="10.00">Battle.QSimulation.Game.</text>
<text xml:space="preserve" text-anchor="middle" x="176.38" y="-6.5" font-family="Helvetica,sans-Serif" font-size="10.00">BattleGameControlQSystem</text>
</a>
</g>
</g>
<!-- Node2 -->
<g id="Node000002" class="node">
<title>Node2</title>
<g id="a_Node000002"><a xlink:title=" ">
<polygon fill="white" stroke="#666666" points="100.75,-88 0,-88 0,-68 100.75,-68 100.75,-88"/>
<text xml:space="preserve" text-anchor="middle" x="50.38" y="-74.5" font-family="Helvetica,sans-Serif" font-size="10.00">SystemMainThread</text>
</a>
</g>
</g>
<!-- Node2&#45;&gt;Node1 -->
<g id="edge1_Node000001_Node000002" class="edge">
<title>Node2&#45;&gt;Node1</title>
<g id="a_edge1_Node000001_Node000002"><a xlink:title=" ">
<path fill="none" stroke="#63b8ff" d="M80.35,-62.73C99.55,-53.58 124.45,-41.72 144.09,-32.37"/>
<polygon fill="#63b8ff" stroke="#63b8ff" points="78.95,-59.51 71.43,-66.97 81.96,-65.83 78.95,-59.51"/>
</a>
</g>
</g>
<!-- Node3 -->
<g id="Node000003" class="node">
<title>Node3</title>
<g id="a_Node000003"><a xlink:title=" ">
<polygon fill="white" stroke="#666666" points="233.5,-88 119.25,-88 119.25,-68 233.5,-68 233.5,-88"/>
<text xml:space="preserve" text-anchor="middle" x="176.38" y="-74.5" font-family="Helvetica,sans-Serif" font-size="10.00">ISignalOnPlayerAdded</text>
</a>
</g>
</g>
<!-- Node3&#45;&gt;Node1 -->
<g id="edge2_Node000001_Node000003" class="edge">
<title>Node3&#45;&gt;Node1</title>
<g id="a_edge2_Node000001_Node000003"><a xlink:title=" ">
<path fill="none" stroke="#63b8ff" d="M176.38,-56.31C176.38,-48.37 176.38,-39.46 176.38,-32.14"/>
<polygon fill="#63b8ff" stroke="#63b8ff" points="172.88,-56.11 176.38,-66.11 179.88,-56.11 172.88,-56.11"/>
</a>
</g>
</g>
<!-- Node4 -->
<g id="Node000004" class="node">
<title>Node4</title>
<g id="a_Node000004"><a xlink:title=" ">
<polygon fill="white" stroke="#666666" points="397.62,-88 251.12,-88 251.12,-68 397.62,-68 397.62,-88"/>
<text xml:space="preserve" text-anchor="middle" x="324.38" y="-74.5" font-family="Helvetica,sans-Serif" font-size="10.00">ISignalOnPlayerDisconnected</text>
</a>
</g>
</g>
<!-- Node4&#45;&gt;Node1 -->
<g id="edge3_Node000001_Node000004" class="edge">
<title>Node4&#45;&gt;Node1</title>
<g id="a_edge3_Node000001_Node000004"><a xlink:title=" ">
<path fill="none" stroke="#63b8ff" d="M290.77,-63.38C268.11,-54.19 238.16,-42.05 214.58,-32.49"/>
<polygon fill="#63b8ff" stroke="#63b8ff" points="289.26,-66.54 299.85,-67.06 291.89,-60.06 289.26,-66.54"/>
</a>
</g>
</g>
</g>
</svg>
