<?xml version="1.0" encoding="UTF-8" standalone="no"?>
<!DOCTYPE svg PUBLIC "-//W3C//DTD SVG 1.1//EN"
 "http://www.w3.org/Graphics/SVG/1.1/DTD/svg11.dtd">
<!-- Generated by graphviz version 14.1.1 (20251213.1925)
 -->
<!-- Title: PlayerCharacterEntities Pages: 1 -->
<svg width="584pt" height="271pt"
 viewBox="0.00 0.00 584.00 271.00" xmlns="http://www.w3.org/2000/svg" xmlns:xlink="http://www.w3.org/1999/xlink">
<g id="graph0" class="graph" transform="scale(1 1) rotate(0) translate(4 267)">
<title>PlayerCharacterEntities</title>
<polygon fill="black" stroke="none" points="-4,4 -4,-267 580.25,-267 580.25,4 -4,4"/>
<!-- Player -->
<g id="node1" class="node">
<title>Player</title>
<ellipse fill="black" stroke="white" cx="288.12" cy="-245" rx="34.46" ry="18"/>
<text xml:space="preserve" text-anchor="middle" x="288.12" y="-239.95" font-family="Times New Roman,serif" font-size="14.00" fill="white">Player</text>
</g>
<!-- CharacterEntities -->
<g id="node2" class="node">
<title>CharacterEntities</title>
<polygon fill="black" stroke="none" points="343.75,-191 232.5,-191 232.5,-155 343.75,-155 343.75,-191"/>
<text xml:space="preserve" text-anchor="middle" x="288.12" y="-167.95" font-family="Times New Roman,serif" font-size="14.00" fill="white">Character entities</text>
</g>
<!-- Player&#45;&gt;CharacterEntities -->
<g id="edge1" class="edge">
<title>Player&#45;&gt;CharacterEntities</title>
<path fill="none" stroke="gray" d="M288.12,-226.7C288.12,-215.85 288.12,-201.92 288.12,-191.1"/>
</g>
<!-- CharacterEntityList -->
<g id="node3" class="node">
<title>CharacterEntityList</title>
<polygon fill="black" stroke="white" points="117.88,-77.5 117.88,-118.5 458.38,-118.5 458.38,-77.5 117.88,-77.5"/>
<text xml:space="preserve" text-anchor="middle" x="174.62" y="-101.2" font-family="Times New Roman,serif" font-size="14.00" fill="white">Character entity 1</text>
<text xml:space="preserve" text-anchor="middle" x="174.62" y="-84.7" font-family="Times New Roman,serif" font-size="14.00" fill="white">(In play)</text>
<polyline fill="none" stroke="white" points="231.38,-77.5 231.38,-118.5"/>
<text xml:space="preserve" text-anchor="middle" x="288.12" y="-101.2" font-family="Times New Roman,serif" font-size="14.00" fill="white">Character entity 2</text>
<text xml:space="preserve" text-anchor="middle" x="288.12" y="-84.7" font-family="Times New Roman,serif" font-size="14.00" fill="white">(Out of play)</text>
<polyline fill="none" stroke="white" points="344.88,-77.5 344.88,-118.5"/>
<text xml:space="preserve" text-anchor="middle" x="401.62" y="-101.2" font-family="Times New Roman,serif" font-size="14.00" fill="white">Character entity 3</text>
<text xml:space="preserve" text-anchor="middle" x="401.62" y="-84.7" font-family="Times New Roman,serif" font-size="14.00" fill="white">(Out of play)</text>
</g>
<!-- CharacterEntities&#45;&gt;CharacterEntityList -->
<g id="edge2" class="edge">
<title>CharacterEntities&#45;&gt;CharacterEntityList</title>
<path fill="none" stroke="gray" d="M288.12,-154.7C288.12,-147.36 288.12,-138.58 288.12,-130.18"/>
<polygon fill="gray" stroke="gray" points="291.63,-130.27 288.13,-120.27 284.63,-130.27 291.63,-130.27"/>
</g>
<!-- CharacterData1 -->
<g id="node4" class="node">
<title>CharacterData1</title>
<polygon fill="black" stroke="none" points="180.25,-41 0,-41 0,0 180.25,0 180.25,-41"/>
<text xml:space="preserve" text-anchor="middle" x="90.12" y="-23.7" font-family="Times New Roman,serif" font-size="14.00" fill="white">Data</text>
<text xml:space="preserve" text-anchor="middle" x="90.12" y="-7.2" font-family="Times New Roman,serif" font-size="14.00" fill="white">Related to a specific character</text>
</g>
<!-- CharacterEntityList&#45;&gt;CharacterData1 -->
<g id="edge3" class="edge">
<title>CharacterEntityList:0&#45;&gt;CharacterData1</title>
<path fill="none" stroke="gray" d="M116.88,-98C96.57,-98 90.66,-73.7 89.36,-52.49"/>
<polygon fill="gray" stroke="gray" points="92.87,-52.61 89.1,-42.71 85.87,-52.81 92.87,-52.61"/>
</g>
<!-- CharacterData2 -->
<g id="node5" class="node">
<title>CharacterData2</title>
<polygon fill="black" stroke="none" points="378.25,-41 198,-41 198,0 378.25,0 378.25,-41"/>
<text xml:space="preserve" text-anchor="middle" x="288.12" y="-23.7" font-family="Times New Roman,serif" font-size="14.00" fill="white">Data</text>
<text xml:space="preserve" text-anchor="middle" x="288.12" y="-7.2" font-family="Times New Roman,serif" font-size="14.00" fill="white">Related to a specific character</text>
</g>
<!-- CharacterEntityList&#45;&gt;CharacterData2 -->
<g id="edge4" class="edge">
<title>CharacterEntityList:1&#45;&gt;CharacterData2</title>
<path fill="none" stroke="gray" d="M288.12,-77C288.12,-69.13 288.12,-60.63 288.12,-52.71"/>
<polygon fill="gray" stroke="gray" points="291.63,-52.79 288.13,-42.79 284.63,-52.79 291.63,-52.79"/>
</g>
<!-- CharacterData3 -->
<g id="node6" class="node">
<title>CharacterData3</title>
<polygon fill="black" stroke="none" points="576.25,-41 396,-41 396,0 576.25,0 576.25,-41"/>
<text xml:space="preserve" text-anchor="middle" x="486.12" y="-23.7" font-family="Times New Roman,serif" font-size="14.00" fill="white">Data</text>
<text xml:space="preserve" text-anchor="middle" x="486.12" y="-7.2" font-family="Times New Roman,serif" font-size="14.00" fill="white">Related to a specific character</text>
</g>
<!-- CharacterEntityList&#45;&gt;CharacterData3 -->
<g id="edge5" class="edge">
<title>CharacterEntityList:2&#45;&gt;CharacterData3</title>
<path fill="none" stroke="gray" d="M459.38,-98C479.68,-98 485.59,-73.7 486.89,-52.49"/>
<polygon fill="gray" stroke="gray" points="490.38,-52.81 487.15,-42.71 483.38,-52.61 490.38,-52.81"/>
</g>
</g>
</svg>
