<?xml version="1.0" encoding="UTF-8" standalone="no"?>
<!DOCTYPE svg PUBLIC "-//W3C//DTD SVG 1.1//EN"
 "http://www.w3.org/Graphics/SVG/1.1/DTD/svg11.dtd">
<!-- Generated by graphviz version 14.1.1 (20251213.1925)
 -->
<!-- Title: PlayerSlotsAndTeams Pages: 1 -->
<svg width="224pt" height="69pt"
 viewBox="0.00 0.00 224.00 69.00" xmlns="http://www.w3.org/2000/svg" xmlns:xlink="http://www.w3.org/1999/xlink">

<svg id="main" version="1.1" xmlns="http://www.w3.org/2000/svg" xmlns:xlink="http://www.w3.org/1999/xlink" xml:space="preserve">

<style type="text/css"><![CDATA[
.node, .edge {opacity: 0.7;}
.node.selected, .edge.selected {opacity: 1;}
.edge:hover path { stroke: red; }
.edge:hover polygon { stroke: red; fill: red; }
]]></style>
<script type="application/ecmascript" xlink:href="svg.min.js"/>
<svg id="graph" class="graph">
<g id="graph0" class="graph" transform="scale(1 1) rotate(0) translate(4 64.5)">
<title>PlayerSlotsAndTeams</title>
<polygon fill="black" stroke="none" points="-4,4 -4,-64.5 220,-64.5 220,4 -4,4"/>
<g id="clust1" class="cluster">
<title>cluster_beta</title>
<polygon fill="black" stroke="white" points="108,0 108,-60.5 216,-60.5 216,0 108,0"/>
<text xml:space="preserve" text-anchor="middle" x="162" y="-43.2" font-family="Times New Roman,serif" font-size="14.00" fill="white">Team Beta</text>
</g>
<g id="clust2" class="cluster">
<title>cluster_alpha</title>
<polygon fill="black" stroke="white" points="0,0 0,-60.5 108,-60.5 108,0 0,0"/>
<text xml:space="preserve" text-anchor="middle" x="54" y="-43.2" font-family="Times New Roman,serif" font-size="14.00" fill="white">Team Alpha</text>
</g>
<!-- Slot4 -->
<g id="node1" class="node">
<title>Slot4</title>
<polygon fill="black" stroke="white" points="216,-36 162,-36 162,0 216,0 216,-36"/>
<text xml:space="preserve" text-anchor="middle" x="189" y="-12.95" font-family="Times New Roman,serif" font-size="14.00" fill="white">Slot4</text>
</g>
<!-- Slot3 -->
<g id="node2" class="node">
<title>Slot3</title>
<polygon fill="black" stroke="white" points="162,-36 108,-36 108,0 162,0 162,-36"/>
<text xml:space="preserve" text-anchor="middle" x="135" y="-12.95" font-family="Times New Roman,serif" font-size="14.00" fill="white">Slot3</text>
</g>
<!-- Slot2 -->
<g id="node3" class="node">
<title>Slot2</title>
<polygon fill="black" stroke="white" points="108,-36 54,-36 54,0 108,0 108,-36"/>
<text xml:space="preserve" text-anchor="middle" x="81" y="-12.95" font-family="Times New Roman,serif" font-size="14.00" fill="white">Slot2</text>
</g>
<!-- Slot1 -->
<g id="node4" class="node">
<title>Slot1</title>
<polygon fill="black" stroke="white" points="54,-36 0,-36 0,0 54,0 54,-36"/>
<text xml:space="preserve" text-anchor="middle" x="27" y="-12.95" font-family="Times New Roman,serif" font-size="14.00" fill="white">Slot1</text>
</g>
</g>
</svg>
</svg>

<style type='text/css'>
<![CDATA[
[data-mouse-over-selected='false'] { opacity: 0.7; }
[data-mouse-over-selected='true']  { opacity: 1.0; }
]]>
</style>
<script type="application/ecmascript"><![CDATA[
document.addEventListener('DOMContentLoaded', (event) => {
  highlightEdges();
  highlightAdjacentNodes();
});
]]></script>
</svg>
