<?xml version="1.0" encoding="UTF-8" standalone="no"?>
<!DOCTYPE svg PUBLIC "-//W3C//DTD SVG 1.1//EN"
 "http://www.w3.org/Graphics/SVG/1.1/DTD/svg11.dtd">
<!-- Generated by graphviz version 14.1.3 (20260303.0454)
 -->
<!-- Title: PlayerShieldEntity Pages: 1 -->
<svg width="1092pt" height="276pt"
 viewBox="0.00 0.00 1092.00 276.00" xmlns="http://www.w3.org/2000/svg" xmlns:xlink="http://www.w3.org/1999/xlink">
<g id="graph0" class="graph" transform="scale(1 1) rotate(0) translate(4 272)">
<title>PlayerShieldEntity</title>
<polygon fill="black" stroke="none" points="-4,4 -4,-272 1088,-272 1088,4 -4,4"/>
<g id="clust1" class="cluster">
<title>cluster_quantum_shield</title>
<polygon fill="black" stroke="#f159e4" points="8,-101.5 8,-257.5 500,-257.5 500,-101.5 8,-101.5"/>
<text xml:space="preserve" text-anchor="middle" x="92.5" y="-240.2" font-family="Times New Roman,serif" font-size="14.00" fill="#f159e4">Shield Quantum Simulation</text>
</g>
<g id="clust2" class="cluster">
<title>cluster_unity_shield</title>
<polygon fill="black" stroke="#41c7f1" points="508,-8 508,-260 1076,-260 1076,-8 508,-8"/>
<text xml:space="preserve" text-anchor="middle" x="566.25" y="-242.7" font-family="Times New Roman,serif" font-size="14.00" fill="#41c7f1">Shield Unity View</text>
</g>
<!-- ShieldEntity -->
<g id="node1" class="node">
<title>ShieldEntity</title>
<polygon fill="black" stroke="white" points="325,-225 183,-225 183,-189 325,-189 325,-225"/>
<text xml:space="preserve" text-anchor="middle" x="254" y="-201.95" font-family="Times New Roman,serif" font-size="14.00" fill="white">Quantum Shield Entity</text>
</g>
<!-- ShieldTransform2D -->
<g id="node2" class="node">
<title>ShieldTransform2D</title>
<polygon fill="black" stroke="#f159e4" points="156.25,-150.5 15.75,-150.5 15.75,-109.5 156.25,-109.5 156.25,-150.5"/>
<text xml:space="preserve" text-anchor="middle" x="86" y="-133.2" font-family="Times New Roman,serif" font-size="14.00" fill="#f159e4">Transform2D</text>
<text xml:space="preserve" text-anchor="middle" x="86" y="-116.7" font-family="Times New Roman,serif" font-size="14.00" fill="#f159e4">(Quantum component)</text>
</g>
<!-- ShieldEntity&#45;&gt;ShieldTransform2D -->
<g id="edge1" class="edge">
<title>ShieldEntity:s&#45;&gt;ShieldTransform2D</title>
<path fill="none" stroke="gray" d="M254,-188C254,-188 201.67,-170.25 155.43,-154.56"/>
<polygon fill="gray" stroke="gray" points="156.79,-151.32 146.19,-151.42 154.54,-157.95 156.79,-151.32"/>
</g>
<!-- ShieldData -->
<g id="node3" class="node">
<title>ShieldData</title>
<polygon fill="black" stroke="#f159e4" points="333.25,-150.5 174.75,-150.5 174.75,-109.5 333.25,-109.5 333.25,-150.5"/>
<text xml:space="preserve" text-anchor="middle" x="254" y="-133.2" font-family="Times New Roman,serif" font-size="14.00" fill="#f159e4">PlayerShieldQComponent</text>
<text xml:space="preserve" text-anchor="middle" x="254" y="-116.7" font-family="Times New Roman,serif" font-size="14.00" fill="#f159e4">(Quantum component)</text>
</g>
<!-- ShieldEntity&#45;&gt;ShieldData -->
<g id="edge2" class="edge">
<title>ShieldEntity:s&#45;&gt;ShieldData</title>
<path fill="none" stroke="gray" d="M254,-188C254,-188 254,-175.41 254,-162.06"/>
<polygon fill="gray" stroke="gray" points="257.5,-162.45 254,-152.45 250.5,-162.45 257.5,-162.45"/>
</g>
<!-- ShieldView -->
<g id="node4" class="node">
<title>ShieldView</title>
<polygon fill="black" stroke="#f159e4" points="492.25,-150.5 351.75,-150.5 351.75,-109.5 492.25,-109.5 492.25,-150.5"/>
<text xml:space="preserve" text-anchor="middle" x="422" y="-133.2" font-family="Times New Roman,serif" font-size="14.00" fill="#f159e4">Quantum view</text>
<text xml:space="preserve" text-anchor="middle" x="422" y="-116.7" font-family="Times New Roman,serif" font-size="14.00" fill="#f159e4">(Quantum component)</text>
</g>
<!-- ShieldEntity&#45;&gt;ShieldView -->
<g id="edge3" class="edge">
<title>ShieldEntity:s&#45;&gt;ShieldView</title>
<path fill="none" stroke="gray" d="M254,-188C254,-188 306.33,-170.25 352.57,-154.56"/>
<polygon fill="gray" stroke="gray" points="353.46,-157.95 361.81,-151.42 351.21,-151.32 353.46,-157.95"/>
</g>
<!-- ShieldRootGameObject -->
<g id="node5" class="node">
<title>ShieldRootGameObject</title>
<polygon fill="black" stroke="white" points="806,-227.5 712,-227.5 712,-186.5 806,-186.5 806,-227.5"/>
<text xml:space="preserve" text-anchor="middle" x="759" y="-210.2" font-family="Times New Roman,serif" font-size="14.00" fill="white">Shield Root</text>
<text xml:space="preserve" text-anchor="middle" x="759" y="-193.7" font-family="Times New Roman,serif" font-size="14.00" fill="white">(GameObject)</text>
</g>
<!-- ShieldEntity&#45;&gt;ShieldRootGameObject -->
<g id="edge7" class="edge">
<title>ShieldEntity&#45;&gt;ShieldRootGameObject</title>
<path fill="none" stroke="gray" d="M325.39,-207C371.27,-207 422.33,-207 422.33,-207 422.33,-207 590.67,-207 590.67,-207 590.67,-207 651.7,-207 700.26,-207"/>
<polygon fill="gray" stroke="gray" points="700.15,-210.5 710.15,-207 700.15,-203.5 700.15,-210.5"/>
</g>
<!-- ShieldViewModel -->
<g id="node6" class="node">
<title>ShieldViewModel</title>
<polygon fill="black" stroke="white" points="819.12,-150.5 698.88,-150.5 698.88,-109.5 819.12,-109.5 819.12,-150.5"/>
<text xml:space="preserve" text-anchor="middle" x="759" y="-133.2" font-family="Times New Roman,serif" font-size="14.00" fill="white">Shield View model</text>
<text xml:space="preserve" text-anchor="middle" x="759" y="-116.7" font-family="Times New Roman,serif" font-size="14.00" fill="white">(GameObject)</text>
</g>
<!-- ShieldRootGameObject&#45;&gt;ShieldViewModel -->
<g id="edge4" class="edge">
<title>ShieldRootGameObject&#45;&gt;ShieldViewModel</title>
<path fill="none" stroke="gray" d="M759,-186.29C759,-178.95 759,-170.41 759,-162.28"/>
<polygon fill="gray" stroke="gray" points="762.5,-162.35 759,-152.35 755.5,-162.35 762.5,-162.35"/>
</g>
<!-- PlayerShieldViewController -->
<g id="node7" class="node">
<title>PlayerShieldViewController</title>
<polygon fill="black" stroke="#41c7f1" points="717.62,-73.5 516.38,-73.5 516.38,-16 717.62,-16 717.62,-73.5"/>
<text xml:space="preserve" text-anchor="middle" x="617" y="-56.2" font-family="Times New Roman,serif" font-size="14.00" fill="#41c7f1">PlayerShieldViewController</text>
<text xml:space="preserve" text-anchor="middle" x="617" y="-39.7" font-family="Times New Roman,serif" font-size="14.00" fill="#41c7f1">(QuantumEntityViewComponent)</text>
<text xml:space="preserve" text-anchor="middle" x="617" y="-23.2" font-family="Times New Roman,serif" font-size="14.00" fill="#41c7f1">(Unity Monobehavior)</text>
</g>
<!-- ShieldViewModel&#45;&gt;PlayerShieldViewController -->
<g id="edge5" class="edge">
<title>ShieldViewModel:s&#45;&gt;PlayerShieldViewController</title>
<path fill="none" stroke="gray" d="M759,-108.5C759,-108.5 725.31,-93.61 690.75,-78.34"/>
<polygon fill="gray" stroke="gray" points="692.47,-75.27 681.91,-74.43 689.64,-81.68 692.47,-75.27"/>
</g>
<!-- PlayerShieldClassViewController -->
<g id="node8" class="node">
<title>PlayerShieldClassViewController</title>
<polygon fill="black" stroke="#41c7f1" points="1067.88,-65.25 736.12,-65.25 736.12,-24.25 1067.88,-24.25 1067.88,-65.25"/>
<text xml:space="preserve" text-anchor="middle" x="902" y="-47.95" font-family="Times New Roman,serif" font-size="14.00" fill="#41c7f1">PlayerShieldClassViewController</text>
<text xml:space="preserve" text-anchor="middle" x="902" y="-31.45" font-family="Times New Roman,serif" font-size="14.00" fill="#41c7f1">(Subclass of BattlePlayerShieldClassBaseViewController)</text>
</g>
<!-- ShieldViewModel&#45;&gt;PlayerShieldClassViewController -->
<g id="edge6" class="edge">
<title>ShieldViewModel:s&#45;&gt;PlayerShieldClassViewController</title>
<path fill="none" stroke="gray" d="M759,-108.5C759,-108.5 806.27,-87.76 846.46,-70.12"/>
<polygon fill="gray" stroke="gray" points="847.62,-73.44 855.37,-66.21 844.8,-67.03 847.62,-73.44"/>
</g>
</g>
</svg>
