<?xml version="1.0" encoding="UTF-8" standalone="no"?>
<!DOCTYPE svg PUBLIC "-//W3C//DTD SVG 1.1//EN"
 "http://www.w3.org/Graphics/SVG/1.1/DTD/svg11.dtd">
<!-- Generated by graphviz version 14.1.1 (20251213.1925)
 -->
<!-- Title: Player Pages: 1 -->
<svg width="787pt" height="275pt"
 viewBox="0.00 0.00 787.00 275.00" xmlns="http://www.w3.org/2000/svg" xmlns:xlink="http://www.w3.org/1999/xlink">
<g id="graph0" class="graph" transform="scale(1 1) rotate(0) translate(4 271)">
<title>Player</title>
<polygon fill="black" stroke="none" points="-4,4 -4,-271 783,-271 783,4 -4,4"/>
<!-- Player -->
<g id="node1" class="node">
<title>Player</title>
<polygon fill="black" stroke="white" points="333.88,-267 279.88,-267 279.88,-231 333.88,-231 333.88,-267"/>
<text xml:space="preserve" text-anchor="middle" x="306.88" y="-243.95" font-family="Times New Roman,serif" font-size="14.00" fill="white">Player</text>
</g>
<!-- Data -->
<g id="node2" class="node">
<title>Data</title>
<polygon fill="black" stroke="none" points="321.88,-195 113.88,-195 113.88,-154 321.88,-154 321.88,-195"/>
<text xml:space="preserve" text-anchor="middle" x="217.88" y="-177.7" font-family="Times New Roman,serif" font-size="14.00" fill="white">Data</text>
<text xml:space="preserve" text-anchor="middle" x="217.88" y="-161.2" font-family="Times New Roman,serif" font-size="14.00" fill="white">Not related to individual characters</text>
</g>
<!-- Player&#45;&gt;Data -->
<g id="edge1" class="edge">
<title>Player&#45;&gt;Data</title>
<path fill="none" stroke="gray" d="M285.78,-230.82C272.73,-220.18 255.91,-206.49 242.28,-195.38"/>
</g>
<!-- CharacterEntities -->
<g id="node5" class="node">
<title>CharacterEntities</title>
<polygon fill="black" stroke="none" points="498.5,-192.5 387.25,-192.5 387.25,-156.5 498.5,-156.5 498.5,-192.5"/>
<text xml:space="preserve" text-anchor="middle" x="442.88" y="-169.45" font-family="Times New Roman,serif" font-size="14.00" fill="white">Character entities</text>
</g>
<!-- Player&#45;&gt;CharacterEntities -->
<g id="edge4" class="edge">
<title>Player&#45;&gt;CharacterEntities</title>
<path fill="none" stroke="gray" d="M334.07,-233.5C356.08,-221.77 387.15,-205.2 410.46,-192.78"/>
</g>
<!-- PlayerRef -->
<g id="node3" class="node">
<title>PlayerRef</title>
<polygon fill="black" stroke="white" points="115.75,-118 0,-118 0,-77 115.75,-77 115.75,-118"/>
<text xml:space="preserve" text-anchor="middle" x="57.88" y="-100.7" font-family="Times New Roman,serif" font-size="14.00" fill="white">PlayerRef</text>
<text xml:space="preserve" text-anchor="middle" x="57.88" y="-84.2" font-family="Times New Roman,serif" font-size="14.00" fill="white">Used by Quantum</text>
</g>
<!-- Data&#45;&gt;PlayerRef -->
<g id="edge2" class="edge">
<title>Data&#45;&gt;PlayerRef</title>
<path fill="none" stroke="gray" d="M175.42,-153.6C155.62,-144.32 131.85,-133.18 110.88,-123.35"/>
<polygon fill="gray" stroke="gray" points="112.44,-120.21 101.9,-119.14 109.47,-126.55 112.44,-120.21"/>
</g>
<!-- PlayerSlot -->
<g id="node4" class="node">
<title>PlayerSlot</title>
<polygon fill="black" stroke="white" points="302.38,-118 133.38,-118 133.38,-77 302.38,-77 302.38,-118"/>
<text xml:space="preserve" text-anchor="middle" x="217.88" y="-100.7" font-family="Times New Roman,serif" font-size="14.00" fill="white">PlayerSlot</text>
<text xml:space="preserve" text-anchor="middle" x="217.88" y="-84.2" font-family="Times New Roman,serif" font-size="14.00" fill="white">Defined and preferred by us</text>
</g>
<!-- Data&#45;&gt;PlayerSlot -->
<g id="edge3" class="edge">
<title>Data&#45;&gt;PlayerSlot</title>
<path fill="none" stroke="gray" d="M217.88,-153.79C217.88,-146.45 217.88,-137.91 217.88,-129.78"/>
<polygon fill="gray" stroke="gray" points="221.38,-129.85 217.88,-119.85 214.38,-129.85 221.38,-129.85"/>
</g>
<!-- CharacterEntityList -->
<g id="node6" class="node">
<title>CharacterEntityList</title>
<polygon fill="black" stroke="white" points="320.62,-79.5 320.62,-115.5 661.12,-115.5 661.12,-79.5 320.62,-79.5"/>
<text xml:space="preserve" text-anchor="middle" x="377.38" y="-92.45" font-family="Times New Roman,serif" font-size="14.00" fill="white">Character entity 1</text>
<polyline fill="none" stroke="white" points="434.12,-79.5 434.12,-115.5"/>
<text xml:space="preserve" text-anchor="middle" x="490.88" y="-92.45" font-family="Times New Roman,serif" font-size="14.00" fill="white">Character entity 2</text>
<polyline fill="none" stroke="white" points="547.62,-79.5 547.62,-115.5"/>
<text xml:space="preserve" text-anchor="middle" x="604.38" y="-92.45" font-family="Times New Roman,serif" font-size="14.00" fill="white">Character entity 3</text>
</g>
<!-- CharacterEntities&#45;&gt;CharacterEntityList -->
<g id="edge5" class="edge">
<title>CharacterEntities&#45;&gt;CharacterEntityList</title>
<path fill="none" stroke="gray" d="M454.01,-156.1C459.82,-147.02 467.07,-135.69 473.6,-125.5"/>
<polygon fill="gray" stroke="gray" points="476.54,-127.38 478.99,-117.08 470.65,-123.61 476.54,-127.38"/>
</g>
<!-- CharacterData1 -->
<g id="node7" class="node">
<title>CharacterData1</title>
<polygon fill="black" stroke="none" points="383,-41 202.75,-41 202.75,0 383,0 383,-41"/>
<text xml:space="preserve" text-anchor="middle" x="292.88" y="-23.7" font-family="Times New Roman,serif" font-size="14.00" fill="white">Data</text>
<text xml:space="preserve" text-anchor="middle" x="292.88" y="-7.2" font-family="Times New Roman,serif" font-size="14.00" fill="white">Related to a specific character</text>
</g>
<!-- CharacterEntityList&#45;&gt;CharacterData1 -->
<g id="edge6" class="edge">
<title>CharacterEntityList:0&#45;&gt;CharacterData1</title>
<path fill="none" stroke="gray" d="M319.62,-97.5C318.99,-97.5 310.52,-73.2 303.28,-52.08"/>
<polygon fill="gray" stroke="gray" points="306.69,-51.23 300.14,-42.9 300.06,-53.49 306.69,-51.23"/>
</g>
<!-- CharacterData2 -->
<g id="node8" class="node">
<title>CharacterData2</title>
<polygon fill="black" stroke="none" points="581,-41 400.75,-41 400.75,0 581,0 581,-41"/>
<text xml:space="preserve" text-anchor="middle" x="490.88" y="-23.7" font-family="Times New Roman,serif" font-size="14.00" fill="white">Data</text>
<text xml:space="preserve" text-anchor="middle" x="490.88" y="-7.2" font-family="Times New Roman,serif" font-size="14.00" fill="white">Related to a specific character</text>
</g>
<!-- CharacterEntityList&#45;&gt;CharacterData2 -->
<g id="edge7" class="edge">
<title>CharacterEntityList:1&#45;&gt;CharacterData2</title>
<path fill="none" stroke="gray" d="M490.88,-78.5C490.88,-70.09 490.88,-60.99 490.88,-52.57"/>
<polygon fill="gray" stroke="gray" points="494.38,-52.8 490.88,-42.8 487.38,-52.8 494.38,-52.8"/>
</g>
<!-- CharacterData3 -->
<g id="node9" class="node">
<title>CharacterData3</title>
<polygon fill="black" stroke="none" points="779,-41 598.75,-41 598.75,0 779,0 779,-41"/>
<text xml:space="preserve" text-anchor="middle" x="688.88" y="-23.7" font-family="Times New Roman,serif" font-size="14.00" fill="white">Data</text>
<text xml:space="preserve" text-anchor="middle" x="688.88" y="-7.2" font-family="Times New Roman,serif" font-size="14.00" fill="white">Related to a specific character</text>
</g>
<!-- CharacterEntityList&#45;&gt;CharacterData3 -->
<g id="edge8" class="edge">
<title>CharacterEntityList:2&#45;&gt;CharacterData3</title>
<path fill="none" stroke="gray" d="M662.12,-97.5C682.1,-97.5 688.11,-73.86 689.53,-52.95"/>
<polygon fill="gray" stroke="gray" points="693.02,-53.09 689.85,-42.98 686.03,-52.86 693.02,-53.09"/>
</g>
</g>
</svg>
