<?xml version="1.0" encoding="UTF-8" standalone="no"?>
<!DOCTYPE svg PUBLIC "-//W3C//DTD SVG 1.1//EN"
 "http://www.w3.org/Graphics/SVG/1.1/DTD/svg11.dtd">
<!-- Generated by graphviz version 14.1.1 (20251213.1925)
 -->
<!-- Title: PlayerCharacterEntity Pages: 1 -->
<!--zoomable 365 -->

<svg id="main" version="1.1" xmlns="http://www.w3.org/2000/svg" xmlns:xlink="http://www.w3.org/1999/xlink" xml:space="preserve" onload="init(evt)">

<style type="text/css"><![CDATA[
.node, .edge {opacity: 0.7;}
.node.selected, .edge.selected {opacity: 1;}
.edge:hover path { stroke: red; }
.edge:hover polygon { stroke: red; fill: red; }
]]></style>

<defs>
  <circle id="rim" cx="0" cy="0" r="7"/>
  <circle id="rim2" cx="0" cy="0" r="3.5"/>
  <g id="zoomPlus">
    <use xlink:href="#rim" fill="#404040"><set attributeName="fill" to="#808080" begin="zoomplus.mouseover" end="zoomplus.mouseout"/></use>
    <path d="M-4,0h8M0,-4v8" fill="none" stroke="white" stroke-width="1.5" pointer-events="none"/>
  </g>
  <g id="zoomMin">
    <use xlink:href="#rim" fill="#404040"><set attributeName="fill" to="#808080" begin="zoomminus.mouseover" end="zoomminus.mouseout"/></use>
    <path d="M-4,0h8" fill="none" stroke="white" stroke-width="1.5" pointer-events="none"/>
  </g>
  <g id="arrowUp" transform="translate(30 24)">
    <use xlink:href="#rim"/>
    <path pointer-events="none" fill="none" stroke="white" stroke-width="1.5" d="M0,-3.0v7 M-2.5,-0.5L0,-3.0L2.5,-0.5"/>
  </g>
  <g id="arrowRight" transform="rotate(90) translate(36 -43)">
    <use xlink:href="#rim"/>
    <path pointer-events="none" fill="none" stroke="white" stroke-width="1.5" d="M0,-3.0v7 M-2.5,-0.5L0,-3.0L2.5,-0.5"/>
  </g>
  <g id="arrowDown" transform="rotate(180) translate(-30 -48)">
    <use xlink:href="#rim"/>
    <path pointer-events="none" fill="none" stroke="white" stroke-width="1.5" d="M0,-3.0v7 M-2.5,-0.5L0,-3.0L2.5,-0.5"/>
  </g>
  <g id="arrowLeft" transform="rotate(270) translate(-36 17)">
    <use xlink:href="#rim"/>
    <path pointer-events="none" fill="none" stroke="white" stroke-width="1.5" d="M0,-3.0v7 M-2.5,-0.5L0,-3.0L2.5,-0.5"/>
  </g>
  <g id="resetDef">
    <use xlink:href="#rim2" fill="#404040"><set attributeName="fill" to="#808080" begin="reset.mouseover" end="reset.mouseout"/></use>
  </g>
</defs>
<script type="application/ecmascript">
var viewWidth = 1244;
var viewHeight = 365;
</script>
<script type="application/ecmascript" xlink:href="svg.min.js"/>
<svg id="graph" class="graph">
<g id="viewport">
<title>PlayerCharacterEntity</title>
<polygon fill="black" stroke="none" points="-4,4 -4,-360.5 1240,-360.5 1240,4 -4,4"/>
<g id="clust1" class="cluster">
<title>cluster_quantum</title>
<polygon fill="black" stroke="#f159e4" points="8,-178.5 8,-348.5 687,-348.5 687,-178.5 8,-178.5"/>
<text xml:space="preserve" text-anchor="middle" x="347.5" y="-331.2" font-family="Times New Roman,serif" font-size="14.00" fill="#f159e4">Quantum Simulation</text>
</g>
<g id="clust2" class="cluster">
<title>cluster_unity</title>
<polygon fill="black" stroke="#41c7f1" points="695,-8 695,-268.25 1228,-268.25 1228,-8 695,-8"/>
<text xml:space="preserve" text-anchor="middle" x="961.5" y="-250.95" font-family="Times New Roman,serif" font-size="14.00" fill="#41c7f1">Unity View</text>
</g>
<!-- Entity -->
<g id="node1" class="node">
<title>Entity</title>
<polygon fill="black" stroke="#f159e4" points="482.88,-316 379.12,-316 379.12,-280 482.88,-280 482.88,-316"/>
<text xml:space="preserve" text-anchor="middle" x="431" y="-292.95" font-family="Times New Roman,serif" font-size="14.00" fill="#f159e4">Quantum Entity</text>
</g>
<!-- Transform2D -->
<g id="node2" class="node">
<title>Transform2D</title>
<polygon fill="black" stroke="#f159e4" points="156.25,-235.75 15.75,-235.75 15.75,-194.75 156.25,-194.75 156.25,-235.75"/>
<text xml:space="preserve" text-anchor="middle" x="86" y="-218.45" font-family="Times New Roman,serif" font-size="14.00" fill="#f159e4">Transform2D</text>
<text xml:space="preserve" text-anchor="middle" x="86" y="-201.95" font-family="Times New Roman,serif" font-size="14.00" fill="#f159e4">(Quantum component)</text>
</g>
<!-- Entity&#45;&gt;Transform2D -->
<g id="edge1" class="edge">
<title>Entity&#45;&gt;Transform2D</title>
<path fill="none" stroke="gray" d="M378.88,-294.28C312.88,-290.33 203.14,-281.95 165,-268.25 148.55,-262.34 132.13,-252.36 118.54,-242.71"/>
<polygon fill="gray" stroke="gray" points="120.98,-240.15 110.85,-237.03 116.82,-245.78 120.98,-240.15"/>
</g>
<!-- PlayerData -->
<g id="node3" class="node">
<title>PlayerData</title>
<polygon fill="black" stroke="#f159e4" points="323.75,-235.75 174.25,-235.75 174.25,-194.75 323.75,-194.75 323.75,-235.75"/>
<text xml:space="preserve" text-anchor="middle" x="249" y="-218.45" font-family="Times New Roman,serif" font-size="14.00" fill="#f159e4">PlayerDataQComponent</text>
<text xml:space="preserve" text-anchor="middle" x="249" y="-201.95" font-family="Times New Roman,serif" font-size="14.00" fill="#f159e4">(Quantum component)</text>
</g>
<!-- Entity&#45;&gt;PlayerData -->
<g id="edge2" class="edge">
<title>Entity&#45;&gt;PlayerData</title>
<path fill="none" stroke="gray" d="M378.7,-284.47C363.65,-280.12 347.41,-274.68 333,-268.25 316.97,-261.09 300.32,-251.34 286.12,-242.22"/>
<polygon fill="gray" stroke="gray" points="288.26,-239.44 277.98,-236.88 284.42,-245.29 288.26,-239.44"/>
</g>
<!-- PlayerClassData -->
<g id="node4" class="node">
<title>PlayerClassData</title>
<polygon fill="none" stroke="#f159e4" stroke-dasharray="5,2" points="520.38,-244 341.62,-244 341.62,-186.5 520.38,-186.5 520.38,-244"/>
<text xml:space="preserve" text-anchor="middle" x="431" y="-226.7" font-family="Times New Roman,serif" font-size="14.00" fill="#f159e4">PlayerClassDataQComponent</text>
<text xml:space="preserve" text-anchor="middle" x="431" y="-210.2" font-family="Times New Roman,serif" font-size="14.00" fill="#f159e4">(Quantum component)</text>
<text xml:space="preserve" text-anchor="middle" x="431" y="-193.7" font-family="Times New Roman,serif" font-size="14.00" fill="#f159e4">(Optional)</text>
</g>
<!-- Entity&#45;&gt;PlayerClassData -->
<g id="edge3" class="edge">
<title>Entity&#45;&gt;PlayerClassData</title>
<path fill="none" stroke="gray" d="M431,-279.88C431,-272.81 431,-264.3 431,-255.84"/>
<polygon fill="gray" stroke="gray" points="434.5,-255.98 431,-245.98 427.5,-255.98 434.5,-255.98"/>
</g>
<!-- View -->
<g id="node5" class="node">
<title>View</title>
<polygon fill="black" stroke="#f159e4" points="679.25,-235.75 538.75,-235.75 538.75,-194.75 679.25,-194.75 679.25,-235.75"/>
<text xml:space="preserve" text-anchor="middle" x="609" y="-218.45" font-family="Times New Roman,serif" font-size="14.00" fill="#f159e4">Quantum view</text>
<text xml:space="preserve" text-anchor="middle" x="609" y="-201.95" font-family="Times New Roman,serif" font-size="14.00" fill="#f159e4">(Quantum component)</text>
</g>
<!-- Entity&#45;&gt;View -->
<g id="edge4" class="edge">
<title>Entity&#45;&gt;View</title>
<path fill="none" stroke="gray" d="M483.14,-284.75C498.27,-280.39 514.58,-274.88 529,-268.25 544.26,-261.24 559.98,-251.62 573.41,-242.56"/>
<polygon fill="gray" stroke="gray" points="575.25,-245.54 581.49,-236.98 571.27,-239.78 575.25,-245.54"/>
</g>
<!-- RootGameObject -->
<g id="node6" class="node">
<title>RootGameObject</title>
<polygon fill="black" stroke="#41c7f1" points="824,-235.75 730,-235.75 730,-194.75 824,-194.75 824,-235.75"/>
<text xml:space="preserve" text-anchor="middle" x="777" y="-218.45" font-family="Times New Roman,serif" font-size="14.00" fill="#41c7f1">Root</text>
<text xml:space="preserve" text-anchor="middle" x="777" y="-201.95" font-family="Times New Roman,serif" font-size="14.00" fill="#41c7f1">(GameObject)</text>
</g>
<!-- Entity&#45;&gt;RootGameObject -->
<g id="edge8" class="edge">
<title>Entity&#45;&gt;RootGameObject</title>
<path fill="none" stroke="gray" d="M483.23,-297.76C536.77,-297.05 621.76,-291.73 691,-268.25 708.76,-262.23 726.76,-252.1 741.67,-242.37"/>
<polygon fill="gray" stroke="gray" points="743.41,-245.43 749.74,-236.93 739.49,-239.62 743.41,-245.43"/>
</g>
<!-- ViewModel -->
<g id="node7" class="node">
<title>ViewModel</title>
<polygon fill="black" stroke="#41c7f1" points="851,-150.5 757,-150.5 757,-109.5 851,-109.5 851,-150.5"/>
<text xml:space="preserve" text-anchor="middle" x="804" y="-133.2" font-family="Times New Roman,serif" font-size="14.00" fill="#41c7f1">View model</text>
<text xml:space="preserve" text-anchor="middle" x="804" y="-116.7" font-family="Times New Roman,serif" font-size="14.00" fill="#41c7f1">(GameObject)</text>
</g>
<!-- RootGameObject&#45;&gt;ViewModel -->
<g id="edge5" class="edge">
<title>RootGameObject&#45;&gt;ViewModel</title>
<path fill="none" stroke="gray" d="M783.4,-194.52C786.57,-184.74 790.47,-172.71 794.02,-161.76"/>
<polygon fill="gray" stroke="gray" points="797.33,-162.91 797.09,-152.32 790.67,-160.75 797.33,-162.91"/>
</g>
<!-- PlayerViewController -->
<g id="node8" class="node">
<title>PlayerViewController</title>
<polygon fill="black" stroke="#41c7f1" points="904.62,-73.5 703.38,-73.5 703.38,-16 904.62,-16 904.62,-73.5"/>
<text xml:space="preserve" text-anchor="middle" x="804" y="-56.2" font-family="Times New Roman,serif" font-size="14.00" fill="#41c7f1">PlayerViewController</text>
<text xml:space="preserve" text-anchor="middle" x="804" y="-39.7" font-family="Times New Roman,serif" font-size="14.00" fill="#41c7f1">(QuantumEntityViewComponent)</text>
<text xml:space="preserve" text-anchor="middle" x="804" y="-23.2" font-family="Times New Roman,serif" font-size="14.00" fill="#41c7f1">(Unity Monobehavior)</text>
</g>
<!-- ViewModel&#45;&gt;PlayerViewController -->
<g id="edge6" class="edge">
<title>ViewModel&#45;&gt;PlayerViewController</title>
<path fill="none" stroke="gray" d="M804,-109.27C804,-102 804,-93.48 804,-85.08"/>
<polygon fill="gray" stroke="gray" points="807.5,-85.36 804,-75.36 800.5,-85.36 807.5,-85.36"/>
</g>
<!-- PlayerClassViewController -->
<g id="node9" class="node">
<title>PlayerClassViewController</title>
<polygon fill="black" stroke="#41c7f1" points="1219.62,-65.25 922.38,-65.25 922.38,-24.25 1219.62,-24.25 1219.62,-65.25"/>
<text xml:space="preserve" text-anchor="middle" x="1071" y="-47.95" font-family="Times New Roman,serif" font-size="14.00" fill="#41c7f1">PlayerClassViewController</text>
<text xml:space="preserve" text-anchor="middle" x="1071" y="-31.45" font-family="Times New Roman,serif" font-size="14.00" fill="#41c7f1">(Subclass of BattlePlayerClassBaseViewController)</text>
</g>
<!-- ViewModel&#45;&gt;PlayerClassViewController -->
<g id="edge7" class="edge">
<title>ViewModel&#45;&gt;PlayerClassViewController</title>
<path fill="none" stroke="gray" d="M851.43,-114.21C891.52,-101.71 949.67,-83.58 996.06,-69.12"/>
<polygon fill="gray" stroke="gray" points="997.02,-72.48 1005.53,-66.16 994.94,-65.8 997.02,-72.48"/>
</g>
</g>
</svg>

<g id="navigator" transform="translate(0 0)" fill="#404254">
  <rect fill="#f2f5e9" fill-opacity="0.5" stroke="#606060" stroke-width=".5" x="0" y="0" width="60" height="60"/>
  <use id="zoomplus" xlink:href="#zoomPlus" x="17" y="9" onmousedown="handleZoom(evt,'in')"/>
  <use id="zoomminus" xlink:href="#zoomMin" x="42" y="9" onmousedown="handleZoom(evt,'out')"/>
  <use id="reset" xlink:href="#resetDef" x="30" y="36" onmousedown="handleReset()"/>
   <use id="arrowup" xlink:href="#arrowUp" x="0" y="0" onmousedown="handlePan(0,-1)"/>
  <use id="arrowright" xlink:href="#arrowRight" x="0" y="0" onmousedown="handlePan(1,0)"/>
  <use id="arrowdown" xlink:href="#arrowDown" x="0" y="0" onmousedown="handlePan(0,1)"/>
  <use id="arrowleft" xlink:href="#arrowLeft" x="0" y="0" onmousedown="handlePan(-1,0)"/>
</g>
<svg viewBox="0 0 15 15" width="100%" height="30px" preserveAspectRatio="xMaxYMin meet">
 <g id="arrow_out" transform="scale(0.3 0.3)">
  <a xlink:href="dot_inline_dotgraph_6_org.svg" target="_base">
   <rect id="button" ry="5" rx="5" y="6" x="6" height="38" width="38"
        fill="#f2f5e9" fill-opacity="0.5" stroke="#606060" stroke-width="1.0"/>
   <path id="arrow"
     d="M 11.500037,31.436501 C 11.940474,20.09759 22.043105,11.32322 32.158766,21.979434 L 37.068811,17.246167 C 37.068811,17.246167 37.088388,32 37.088388,32 L 22.160133,31.978069 C 22.160133,31.978069 26.997745,27.140456 26.997745,27.140456 C 18.528582,18.264221 13.291696,25.230495 11.500037,31.436501 z"
     style="fill:#404040;"/>
  </a>
 </g>
</svg>

<style type='text/css'>
<![CDATA[
[data-mouse-over-selected='false'] { opacity: 0.7; }
[data-mouse-over-selected='true']  { opacity: 1.0; }
]]>
</style>
<script type="application/ecmascript"><![CDATA[
document.addEventListener('DOMContentLoaded', (event) => {
  highlightEdges();
  highlightAdjacentNodes();
});
]]></script>
</svg>
