<?xml version="1.0" encoding="UTF-8" standalone="no"?>
<!DOCTYPE svg PUBLIC "-//W3C//DTD SVG 1.1//EN"
 "http://www.w3.org/Graphics/SVG/1.1/DTD/svg11.dtd">
<!-- Generated by graphviz version 14.1.1 (20251213.1925)
 -->
<!-- Title: PlayerCharacterEntities Pages: 1 -->
<!--zoomable 271 -->

<svg id="main" version="1.1" xmlns="http://www.w3.org/2000/svg" xmlns:xlink="http://www.w3.org/1999/xlink" xml:space="preserve" onload="init(evt)">

<style type="text/css"><![CDATA[
.node, .edge {opacity: 0.7;}
.node.selected, .edge.selected {opacity: 1;}
.edge:hover path { stroke: red; }
.edge:hover polygon { stroke: red; fill: red; }
]]></style>

<defs>
  <circle id="rim" cx="0" cy="0" r="7"/>
  <circle id="rim2" cx="0" cy="0" r="3.5"/>
  <g id="zoomPlus">
    <use xlink:href="#rim" fill="#404040"><set attributeName="fill" to="#808080" begin="zoomplus.mouseover" end="zoomplus.mouseout"/></use>
    <path d="M-4,0h8M0,-4v8" fill="none" stroke="white" stroke-width="1.5" pointer-events="none"/>
  </g>
  <g id="zoomMin">
    <use xlink:href="#rim" fill="#404040"><set attributeName="fill" to="#808080" begin="zoomminus.mouseover" end="zoomminus.mouseout"/></use>
    <path d="M-4,0h8" fill="none" stroke="white" stroke-width="1.5" pointer-events="none"/>
  </g>
  <g id="arrowUp" transform="translate(30 24)">
    <use xlink:href="#rim"/>
    <path pointer-events="none" fill="none" stroke="white" stroke-width="1.5" d="M0,-3.0v7 M-2.5,-0.5L0,-3.0L2.5,-0.5"/>
  </g>
  <g id="arrowRight" transform="rotate(90) translate(36 -43)">
    <use xlink:href="#rim"/>
    <path pointer-events="none" fill="none" stroke="white" stroke-width="1.5" d="M0,-3.0v7 M-2.5,-0.5L0,-3.0L2.5,-0.5"/>
  </g>
  <g id="arrowDown" transform="rotate(180) translate(-30 -48)">
    <use xlink:href="#rim"/>
    <path pointer-events="none" fill="none" stroke="white" stroke-width="1.5" d="M0,-3.0v7 M-2.5,-0.5L0,-3.0L2.5,-0.5"/>
  </g>
  <g id="arrowLeft" transform="rotate(270) translate(-36 17)">
    <use xlink:href="#rim"/>
    <path pointer-events="none" fill="none" stroke="white" stroke-width="1.5" d="M0,-3.0v7 M-2.5,-0.5L0,-3.0L2.5,-0.5"/>
  </g>
  <g id="resetDef">
    <use xlink:href="#rim2" fill="#404040"><set attributeName="fill" to="#808080" begin="reset.mouseover" end="reset.mouseout"/></use>
  </g>
</defs>
<script type="application/ecmascript">
var viewWidth = 584;
var viewHeight = 271;
</script>
<script type="application/ecmascript" xlink:href="svg.min.js"/>
<svg id="graph" class="graph">
<g id="viewport">
<title>PlayerCharacterEntities</title>
<polygon fill="black" stroke="none" points="-4,4 -4,-267 580.25,-267 580.25,4 -4,4"/>
<!-- Player -->
<g id="node1" class="node">
<title>Player</title>
<ellipse fill="black" stroke="white" cx="288.12" cy="-245" rx="34.46" ry="18"/>
<text xml:space="preserve" text-anchor="middle" x="288.12" y="-239.95" font-family="Times New Roman,serif" font-size="14.00" fill="white">Player</text>
</g>
<!-- CharacterEntities -->
<g id="node2" class="node">
<title>CharacterEntities</title>
<polygon fill="black" stroke="none" points="343.75,-191 232.5,-191 232.5,-155 343.75,-155 343.75,-191"/>
<text xml:space="preserve" text-anchor="middle" x="288.12" y="-167.95" font-family="Times New Roman,serif" font-size="14.00" fill="white">Character entities</text>
</g>
<!-- Player&#45;&gt;CharacterEntities -->
<g id="edge1" class="edge">
<title>Player&#45;&gt;CharacterEntities</title>
<path fill="none" stroke="gray" d="M288.12,-226.7C288.12,-215.85 288.12,-201.92 288.12,-191.1"/>
</g>
<!-- CharacterEntityList -->
<g id="node3" class="node">
<title>CharacterEntityList</title>
<polygon fill="black" stroke="white" points="117.88,-77.5 117.88,-118.5 458.38,-118.5 458.38,-77.5 117.88,-77.5"/>
<text xml:space="preserve" text-anchor="middle" x="174.62" y="-101.2" font-family="Times New Roman,serif" font-size="14.00" fill="white">Character entity 1</text>
<text xml:space="preserve" text-anchor="middle" x="174.62" y="-84.7" font-family="Times New Roman,serif" font-size="14.00" fill="white">(In play)</text>
<polyline fill="none" stroke="white" points="231.38,-77.5 231.38,-118.5"/>
<text xml:space="preserve" text-anchor="middle" x="288.12" y="-101.2" font-family="Times New Roman,serif" font-size="14.00" fill="white">Character entity 2</text>
<text xml:space="preserve" text-anchor="middle" x="288.12" y="-84.7" font-family="Times New Roman,serif" font-size="14.00" fill="white">(Out of play)</text>
<polyline fill="none" stroke="white" points="344.88,-77.5 344.88,-118.5"/>
<text xml:space="preserve" text-anchor="middle" x="401.62" y="-101.2" font-family="Times New Roman,serif" font-size="14.00" fill="white">Character entity 3</text>
<text xml:space="preserve" text-anchor="middle" x="401.62" y="-84.7" font-family="Times New Roman,serif" font-size="14.00" fill="white">(Out of play)</text>
</g>
<!-- CharacterEntities&#45;&gt;CharacterEntityList -->
<g id="edge2" class="edge">
<title>CharacterEntities&#45;&gt;CharacterEntityList</title>
<path fill="none" stroke="gray" d="M288.12,-154.7C288.12,-147.36 288.12,-138.58 288.12,-130.18"/>
<polygon fill="gray" stroke="gray" points="291.63,-130.27 288.13,-120.27 284.63,-130.27 291.63,-130.27"/>
</g>
<!-- CharacterData1 -->
<g id="node4" class="node">
<title>CharacterData1</title>
<polygon fill="black" stroke="none" points="180.25,-41 0,-41 0,0 180.25,0 180.25,-41"/>
<text xml:space="preserve" text-anchor="middle" x="90.12" y="-23.7" font-family="Times New Roman,serif" font-size="14.00" fill="white">Data</text>
<text xml:space="preserve" text-anchor="middle" x="90.12" y="-7.2" font-family="Times New Roman,serif" font-size="14.00" fill="white">Related to a specific character</text>
</g>
<!-- CharacterEntityList&#45;&gt;CharacterData1 -->
<g id="edge3" class="edge">
<title>CharacterEntityList:0&#45;&gt;CharacterData1</title>
<path fill="none" stroke="gray" d="M116.88,-98C96.57,-98 90.66,-73.7 89.36,-52.49"/>
<polygon fill="gray" stroke="gray" points="92.87,-52.61 89.1,-42.71 85.87,-52.81 92.87,-52.61"/>
</g>
<!-- CharacterData2 -->
<g id="node5" class="node">
<title>CharacterData2</title>
<polygon fill="black" stroke="none" points="378.25,-41 198,-41 198,0 378.25,0 378.25,-41"/>
<text xml:space="preserve" text-anchor="middle" x="288.12" y="-23.7" font-family="Times New Roman,serif" font-size="14.00" fill="white">Data</text>
<text xml:space="preserve" text-anchor="middle" x="288.12" y="-7.2" font-family="Times New Roman,serif" font-size="14.00" fill="white">Related to a specific character</text>
</g>
<!-- CharacterEntityList&#45;&gt;CharacterData2 -->
<g id="edge4" class="edge">
<title>CharacterEntityList:1&#45;&gt;CharacterData2</title>
<path fill="none" stroke="gray" d="M288.12,-77C288.12,-69.13 288.12,-60.63 288.12,-52.71"/>
<polygon fill="gray" stroke="gray" points="291.63,-52.79 288.13,-42.79 284.63,-52.79 291.63,-52.79"/>
</g>
<!-- CharacterData3 -->
<g id="node6" class="node">
<title>CharacterData3</title>
<polygon fill="black" stroke="none" points="576.25,-41 396,-41 396,0 576.25,0 576.25,-41"/>
<text xml:space="preserve" text-anchor="middle" x="486.12" y="-23.7" font-family="Times New Roman,serif" font-size="14.00" fill="white">Data</text>
<text xml:space="preserve" text-anchor="middle" x="486.12" y="-7.2" font-family="Times New Roman,serif" font-size="14.00" fill="white">Related to a specific character</text>
</g>
<!-- CharacterEntityList&#45;&gt;CharacterData3 -->
<g id="edge5" class="edge">
<title>CharacterEntityList:2&#45;&gt;CharacterData3</title>
<path fill="none" stroke="gray" d="M459.38,-98C479.68,-98 485.59,-73.7 486.89,-52.49"/>
<polygon fill="gray" stroke="gray" points="490.38,-52.81 487.15,-42.71 483.38,-52.61 490.38,-52.81"/>
</g>
</g>
</svg>

<g id="navigator" transform="translate(0 0)" fill="#404254">
  <rect fill="#f2f5e9" fill-opacity="0.5" stroke="#606060" stroke-width=".5" x="0" y="0" width="60" height="60"/>
  <use id="zoomplus" xlink:href="#zoomPlus" x="17" y="9" onmousedown="handleZoom(evt,'in')"/>
  <use id="zoomminus" xlink:href="#zoomMin" x="42" y="9" onmousedown="handleZoom(evt,'out')"/>
  <use id="reset" xlink:href="#resetDef" x="30" y="36" onmousedown="handleReset()"/>
   <use id="arrowup" xlink:href="#arrowUp" x="0" y="0" onmousedown="handlePan(0,-1)"/>
  <use id="arrowright" xlink:href="#arrowRight" x="0" y="0" onmousedown="handlePan(1,0)"/>
  <use id="arrowdown" xlink:href="#arrowDown" x="0" y="0" onmousedown="handlePan(0,1)"/>
  <use id="arrowleft" xlink:href="#arrowLeft" x="0" y="0" onmousedown="handlePan(-1,0)"/>
</g>
<svg viewBox="0 0 15 15" width="100%" height="30px" preserveAspectRatio="xMaxYMin meet">
 <g id="arrow_out" transform="scale(0.3 0.3)">
  <a xlink:href="dot_inline_dotgraph_5_org.svg" target="_base">
   <rect id="button" ry="5" rx="5" y="6" x="6" height="38" width="38"
        fill="#f2f5e9" fill-opacity="0.5" stroke="#606060" stroke-width="1.0"/>
   <path id="arrow"
     d="M 11.500037,31.436501 C 11.940474,20.09759 22.043105,11.32322 32.158766,21.979434 L 37.068811,17.246167 C 37.068811,17.246167 37.088388,32 37.088388,32 L 22.160133,31.978069 C 22.160133,31.978069 26.997745,27.140456 26.997745,27.140456 C 18.528582,18.264221 13.291696,25.230495 11.500037,31.436501 z"
     style="fill:#404040;"/>
  </a>
 </g>
</svg>

<style type='text/css'>
<![CDATA[
[data-mouse-over-selected='false'] { opacity: 0.7; }
[data-mouse-over-selected='true']  { opacity: 1.0; }
]]>
</style>
<script type="application/ecmascript"><![CDATA[
document.addEventListener('DOMContentLoaded', (event) => {
  highlightEdges();
  highlightAdjacentNodes();
});
]]></script>
</svg>
