<?xml version="1.0" encoding="UTF-8" standalone="no"?>
<!DOCTYPE svg PUBLIC "-//W3C//DTD SVG 1.1//EN"
 "http://www.w3.org/Graphics/SVG/1.1/DTD/svg11.dtd">
<!-- Generated by graphviz version 14.1.1 (20251213.1925)
 -->
<!-- Title: PlayerJoining Pages: 1 -->
<svg width="337pt" height="420pt"
 viewBox="0.00 0.00 337.00 420.00" xmlns="http://www.w3.org/2000/svg" xmlns:xlink="http://www.w3.org/1999/xlink">
<g id="graph0" class="graph" transform="scale(1 1) rotate(0) translate(4 416)">
<title>PlayerJoining</title>
<polygon fill="black" stroke="none" points="-4,4 -4,-416 333,-416 333,4 -4,4"/>
<g id="clust1" class="cluster">
<title>cluster_gameControlSystem</title>
<polygon fill="black" stroke="none" points="8,-152 8,-348 321,-348 321,-152 8,-152"/>
</g>
<g id="clust2" class="cluster">
<title>cluster_playerManager</title>
<polygon fill="black" stroke="none" points="35,-8 35,-132 256,-132 256,-8 35,-8"/>
</g>
<!-- Quantum -->
<g id="node1" class="node">
<title>Quantum</title>
<polygon fill="black" stroke="#f159e4" points="196.5,-412 129.5,-412 129.5,-376 196.5,-376 196.5,-412"/>
<text xml:space="preserve" text-anchor="middle" x="163" y="-388.95" font-family="Times New Roman,serif" font-size="14.00" fill="#f159e4">Quantum</text>
</g>
<!-- OnPlayerAdded_in -->
<g id="node3" class="node">
<title>OnPlayerAdded_in</title>
<polygon fill="none" stroke="none" points="214.5,-340 111.5,-340 111.5,-304 214.5,-304 214.5,-340"/>
<text xml:space="preserve" text-anchor="middle" x="163" y="-316.95" font-family="Times New Roman,serif" font-size="14.00" fill="white">OnPlayerAdded</text>
</g>
<!-- Quantum&#45;&gt;OnPlayerAdded_in -->
<g id="edge6" class="edge">
<title>Quantum&#45;&gt;OnPlayerAdded_in</title>
<path fill="none" stroke="gray" d="M163,-375.7C163,-368.41 163,-359.73 163,-351.54"/>
<polygon fill="gray" stroke="gray" points="166.5,-351.62 163,-341.62 159.5,-351.62 166.5,-351.62"/>
</g>
<!-- BattleGameControlQSystem -->
<g id="node2" class="node">
<title>BattleGameControlQSystem</title>
<polygon fill="black" stroke="#f159e4" points="249.38,-268 76.62,-268 76.62,-232 249.38,-232 249.38,-268"/>
<text xml:space="preserve" text-anchor="middle" x="163" y="-244.95" font-family="Times New Roman,serif" font-size="14.00" fill="#f159e4">BattleGameControlQSystem</text>
</g>
<!-- OnPlayerAdded_out -->
<g id="node4" class="node">
<title>OnPlayerAdded_out</title>
<polygon fill="none" stroke="none" points="119.5,-196 16.5,-196 16.5,-160 119.5,-160 119.5,-196"/>
<text xml:space="preserve" text-anchor="middle" x="68" y="-172.95" font-family="Times New Roman,serif" font-size="14.00" fill="white">OnPlayerAdded</text>
</g>
<!-- BattleGameControlQSystem&#45;&gt;OnPlayerAdded_out -->
<g id="edge2" class="edge">
<title>BattleGameControlQSystem&#45;&gt;OnPlayerAdded_out</title>
<path fill="none" stroke="gray" d="M139.52,-231.7C124.9,-220.93 106.17,-207.12 91.54,-196.35"/>
</g>
<!-- AllPlayersJoined_out -->
<g id="node5" class="node">
<title>AllPlayersJoined_out</title>
<polygon fill="none" stroke="none" points="312.88,-196 137.12,-196 137.12,-160 312.88,-160 312.88,-196"/>
<text xml:space="preserve" text-anchor="middle" x="225" y="-172.95" font-family="Times New Roman,serif" font-size="14.00" fill="white">When all players have joined</text>
</g>
<!-- BattleGameControlQSystem&#45;&gt;AllPlayersJoined_out -->
<g id="edge3" class="edge">
<title>BattleGameControlQSystem&#45;&gt;AllPlayersJoined_out</title>
<path fill="none" stroke="gray" d="M178.33,-231.7C187.94,-220.85 200.27,-206.92 209.85,-196.1"/>
</g>
<!-- OnPlayerAdded_in&#45;&gt;BattleGameControlQSystem -->
<g id="edge1" class="edge">
<title>OnPlayerAdded_in&#45;&gt;BattleGameControlQSystem</title>
<path fill="none" stroke="gray" d="M163,-303.7C163,-292.85 163,-278.92 163,-268.1"/>
</g>
<!-- RegisterPlayer_in -->
<g id="node7" class="node">
<title>RegisterPlayer_in</title>
<polygon fill="none" stroke="none" points="138.75,-124 43.25,-124 43.25,-88 138.75,-88 138.75,-124"/>
<text xml:space="preserve" text-anchor="middle" x="91" y="-100.95" font-family="Times New Roman,serif" font-size="14.00" fill="white">RegisterPlayer</text>
</g>
<!-- OnPlayerAdded_out&#45;&gt;RegisterPlayer_in -->
<g id="edge7" class="edge">
<title>OnPlayerAdded_out&#45;&gt;RegisterPlayer_in</title>
<path fill="none" stroke="gray" d="M73.69,-159.7C76.14,-152.24 79.07,-143.32 81.81,-134.97"/>
<polygon fill="gray" stroke="gray" points="85.11,-136.14 84.91,-125.54 78.46,-133.95 85.11,-136.14"/>
</g>
<!-- CreatePlayers_in -->
<g id="node8" class="node">
<title>CreatePlayers_in</title>
<polygon fill="none" stroke="none" points="247.5,-124 156.5,-124 156.5,-88 247.5,-88 247.5,-124"/>
<text xml:space="preserve" text-anchor="middle" x="202" y="-100.95" font-family="Times New Roman,serif" font-size="14.00" fill="white">CreatePlayers</text>
</g>
<!-- AllPlayersJoined_out&#45;&gt;CreatePlayers_in -->
<g id="edge8" class="edge">
<title>AllPlayersJoined_out&#45;&gt;CreatePlayers_in</title>
<path fill="none" stroke="gray" d="M219.31,-159.7C216.86,-152.24 213.93,-143.32 211.19,-134.97"/>
<polygon fill="gray" stroke="gray" points="214.54,-133.95 208.09,-125.54 207.89,-136.14 214.54,-133.95"/>
</g>
<!-- BattlePlayerManager -->
<g id="node6" class="node">
<title>BattlePlayerManager</title>
<polygon fill="black" stroke="#f159e4" points="210.75,-52 79.25,-52 79.25,-16 210.75,-16 210.75,-52"/>
<text xml:space="preserve" text-anchor="middle" x="145" y="-28.95" font-family="Times New Roman,serif" font-size="14.00" fill="#f159e4">BattlePlayerManager</text>
</g>
<!-- RegisterPlayer_in&#45;&gt;BattlePlayerManager -->
<g id="edge4" class="edge">
<title>RegisterPlayer_in&#45;&gt;BattlePlayerManager</title>
<path fill="none" stroke="gray" d="M104.35,-87.7C112.72,-76.85 123.46,-62.92 131.81,-52.1"/>
</g>
<!-- CreatePlayers_in&#45;&gt;BattlePlayerManager -->
<g id="edge5" class="edge">
<title>CreatePlayers_in&#45;&gt;BattlePlayerManager</title>
<path fill="none" stroke="gray" d="M187.91,-87.7C179.07,-76.85 167.73,-62.92 158.93,-52.1"/>
</g>
</g>
</svg>
