<?xml version="1.0" encoding="UTF-8" standalone="no"?>
<!DOCTYPE svg PUBLIC "-//W3C//DTD SVG 1.1//EN"
 "http://www.w3.org/Graphics/SVG/1.1/DTD/svg11.dtd">
<!-- Generated by graphviz version 14.1.1 (20251213.1925)
 -->
<!-- Title: DoxegenGenerate Pages: 1 -->
<svg width="373pt" height="158pt"
 viewBox="0.00 0.00 373.00 158.00" xmlns="http://www.w3.org/2000/svg" xmlns:xlink="http://www.w3.org/1999/xlink">
<g id="graph0" class="graph" transform="scale(1 1) rotate(0) translate(4 153.5)">
<title>DoxegenGenerate</title>
<!-- Config -->
<g id="node1" class="node">
<title>Config</title>
<polygon fill="black" stroke="white" points="90.25,-149.5 9.75,-149.5 9.75,-113.5 90.25,-113.5 90.25,-149.5"/>
<text xml:space="preserve" text-anchor="middle" x="50" y="-126.45" font-family="Times New Roman,serif" font-size="14.00" fill="white">Config files</text>
</g>
<!-- Doxygen -->
<g id="node4" class="node">
<title>Doxygen</title>
<polygon fill="black" stroke="white" points="201.5,-95.5 136,-95.5 136,-59.5 201.5,-59.5 201.5,-95.5"/>
<text xml:space="preserve" text-anchor="middle" x="168.75" y="-72.45" font-family="Times New Roman,serif" font-size="14.00" fill="white">Doxygen</text>
</g>
<!-- Config&#45;&gt;Doxygen -->
<g id="edge1" class="edge">
<title>Config&#45;&gt;Doxygen</title>
<path fill="none" stroke="gray" d="M90.53,-113.22C101.77,-108.02 114.06,-102.33 125.46,-97.06"/>
<polygon fill="gray" stroke="gray" points="126.64,-100.37 134.25,-92.99 123.71,-94.02 126.64,-100.37"/>
</g>
<!-- Code -->
<g id="node2" class="node">
<title>Code</title>
<polygon fill="black" stroke="white" points="92.88,-95.5 7.12,-95.5 7.12,-59.5 92.88,-59.5 92.88,-95.5"/>
<text xml:space="preserve" text-anchor="middle" x="50" y="-72.45" font-family="Times New Roman,serif" font-size="14.00" fill="white">Source Code</text>
</g>
<!-- Code&#45;&gt;Doxygen -->
<g id="edge2" class="edge">
<title>Code&#45;&gt;Doxygen</title>
<path fill="none" stroke="gray" d="M93.15,-77.5C103.2,-77.5 113.94,-77.5 124.05,-77.5"/>
<polygon fill="gray" stroke="gray" points="124.04,-81 134.04,-77.5 124.04,-74 124.04,-81"/>
</g>
<!-- Additional -->
<g id="node3" class="node">
<title>Additional</title>
<polygon fill="black" stroke="white" points="100,-41 0,-41 0,0 100,0 100,-41"/>
<text xml:space="preserve" text-anchor="middle" x="50" y="-23.7" font-family="Times New Roman,serif" font-size="14.00" fill="white">Additional</text>
<text xml:space="preserve" text-anchor="middle" x="50" y="-7.2" font-family="Times New Roman,serif" font-size="14.00" fill="white">Documentation</text>
</g>
<!-- Additional&#45;&gt;Doxygen -->
<g id="edge3" class="edge">
<title>Additional&#45;&gt;Doxygen</title>
<path fill="none" stroke="gray" d="M93.81,-41.4C104.05,-46.4 114.98,-51.74 125.21,-56.73"/>
<polygon fill="gray" stroke="gray" points="123.67,-59.87 134.19,-61.12 126.74,-53.58 123.67,-59.87"/>
</g>
<!-- Doc -->
<g id="node5" class="node">
<title>Doc</title>
<polygon fill="black" stroke="white" points="365.25,-95.5 237.5,-95.5 237.5,-59.5 365.25,-59.5 365.25,-95.5"/>
<text xml:space="preserve" text-anchor="middle" x="301.38" y="-72.45" font-family="Times New Roman,serif" font-size="14.00" fill="white">This Documentation</text>
</g>
<!-- Doxygen&#45;&gt;Doc -->
<g id="edge4" class="edge">
<title>Doxygen&#45;&gt;Doc</title>
<path fill="none" stroke="gray" d="M201.7,-77.5C209.08,-77.5 217.23,-77.5 225.59,-77.5"/>
<polygon fill="gray" stroke="gray" points="225.55,-81 235.55,-77.5 225.55,-74 225.55,-81"/>
</g>
</g>
</svg>
