<?xml version="1.0" encoding="UTF-8" standalone="no"?>
<!DOCTYPE svg PUBLIC "-//W3C//DTD SVG 1.1//EN"
 "http://www.w3.org/Graphics/SVG/1.1/DTD/svg11.dtd">
<!-- Generated by graphviz version 14.1.1 (20251213.1925)
 -->
<!-- Title: DoxegenSetup Pages: 1 -->
<svg width="417pt" height="141pt"
 viewBox="0.00 0.00 417.00 141.00" xmlns="http://www.w3.org/2000/svg" xmlns:xlink="http://www.w3.org/1999/xlink">

<svg id="main" version="1.1" xmlns="http://www.w3.org/2000/svg" xmlns:xlink="http://www.w3.org/1999/xlink" xml:space="preserve">

<style type="text/css"><![CDATA[
.node, .edge {opacity: 0.7;}
.node.selected, .edge.selected {opacity: 1;}
.edge:hover path { stroke: red; }
.edge:hover polygon { stroke: red; fill: red; }
]]></style>
<script type="application/ecmascript" xlink:href="svg.min.js"/>
<svg id="graph" class="graph">
<g id="graph0" class="graph" transform="scale(1 1) rotate(0) translate(4 137.25)">
<title>DoxegenSetup</title>
<!-- Configs -->
<g id="node1" class="node">
<title>Configs</title>
<polygon fill="black" stroke="white" points="27.38,-59.25 27.38,-132.75 107.88,-132.75 107.88,-59.25 27.38,-59.25"/>
<text xml:space="preserve" text-anchor="middle" x="67.62" y="-115.45" font-family="Times New Roman,serif" font-size="14.00" fill="white">Configs file</text>
<polyline fill="none" stroke="white" points="27.38,-108.25 107.88,-108.25"/>
<text xml:space="preserve" text-anchor="middle" x="67.62" y="-90.95" font-family="Times New Roman,serif" font-size="14.00" fill="white">Config1</text>
<polyline fill="none" stroke="white" points="27.38,-83.75 107.88,-83.75"/>
<text xml:space="preserve" text-anchor="middle" x="67.62" y="-66.45" font-family="Times New Roman,serif" font-size="14.00" fill="white">Config2</text>
</g>
<!-- Setup -->
<g id="node3" class="node">
<title>Setup</title>
<polygon fill="black" stroke="white" points="233,-89 171.25,-89 171.25,-53 233,-53 233,-89"/>
<text xml:space="preserve" text-anchor="middle" x="202.12" y="-65.95" font-family="Times New Roman,serif" font-size="14.00" fill="white">setup.py</text>
</g>
<!-- Configs&#45;&gt;Setup -->
<g id="edge1" class="edge">
<title>Configs:0&#45;&gt;Setup</title>
<path fill="none" stroke="gray" d="M108.88,-120.5C131.88,-120.5 154.68,-108.4 171.87,-96.17"/>
<polygon fill="gray" stroke="gray" points="173.71,-99.16 179.59,-90.34 169.5,-93.57 173.71,-99.16"/>
</g>
<!-- Templates -->
<g id="node2" class="node">
<title>Templates</title>
<polygon fill="black" stroke="white" points="135.25,-41 0,-41 0,-5 135.25,-5 135.25,-41"/>
<text xml:space="preserve" text-anchor="middle" x="67.62" y="-17.95" font-family="Times New Roman,serif" font-size="14.00" fill="white">Template Config files</text>
</g>
<!-- Templates&#45;&gt;Setup -->
<g id="edge2" class="edge">
<title>Templates&#45;&gt;Setup</title>
<path fill="none" stroke="gray" d="M119.47,-41.42C133.04,-46.34 147.53,-51.58 160.47,-56.27"/>
<polygon fill="gray" stroke="gray" points="158.91,-59.43 169.5,-59.54 161.29,-52.85 158.91,-59.43"/>
</g>
<!-- Config1 -->
<g id="node4" class="node">
<title>Config1</title>
<polygon fill="black" stroke="white" points="269,-68.5 269,-117.5 408.75,-117.5 408.75,-68.5 269,-68.5"/>
<text xml:space="preserve" text-anchor="middle" x="338.88" y="-100.2" font-family="Times New Roman,serif" font-size="14.00" fill="white">Config1 directory</text>
<polyline fill="none" stroke="white" points="269,-93 408.75,-93"/>
<text xml:space="preserve" text-anchor="middle" x="338.88" y="-75.7" font-family="Times New Roman,serif" font-size="14.00" fill="white">Genereted Config files</text>
</g>
<!-- Setup&#45;&gt;Config1 -->
<g id="edge3" class="edge">
<title>Setup&#45;&gt;Config1:0</title>
<path fill="none" stroke="gray" d="M225.45,-89.33C234.64,-95.5 245.88,-101.46 257.63,-103.99"/>
<polygon fill="gray" stroke="gray" points="257.17,-107.46 267.5,-105.08 257.94,-100.5 257.17,-107.46"/>
</g>
<!-- Config2 -->
<g id="node5" class="node">
<title>Config2</title>
<polygon fill="black" stroke="white" points="269,-0.5 269,-49.5 408.75,-49.5 408.75,-0.5 269,-0.5"/>
<text xml:space="preserve" text-anchor="middle" x="338.88" y="-32.2" font-family="Times New Roman,serif" font-size="14.00" fill="white">Config2 directory</text>
<polyline fill="none" stroke="white" points="269,-25 408.75,-25"/>
<text xml:space="preserve" text-anchor="middle" x="338.88" y="-7.7" font-family="Times New Roman,serif" font-size="14.00" fill="white">Genereted Config files</text>
</g>
<!-- Setup&#45;&gt;Config2 -->
<g id="edge4" class="edge">
<title>Setup&#45;&gt;Config2:0</title>
<path fill="none" stroke="gray" d="M226.09,-52.55C235.22,-46.57 246.3,-40.87 257.84,-38.46"/>
<polygon fill="gray" stroke="gray" points="257.93,-41.97 267.5,-37.41 257.18,-35.01 257.93,-41.97"/>
</g>
</g>
</svg>
</svg>

<style type='text/css'>
<![CDATA[
[data-mouse-over-selected='false'] { opacity: 0.7; }
[data-mouse-over-selected='true']  { opacity: 1.0; }
]]>
</style>
<script type="application/ecmascript"><![CDATA[
document.addEventListener('DOMContentLoaded', (event) => {
  highlightEdges();
  highlightAdjacentNodes();
});
]]></script>
</svg>
