<?xml version="1.0" encoding="UTF-8" standalone="no"?>
<!DOCTYPE svg PUBLIC "-//W3C//DTD SVG 1.1//EN"
 "http://www.w3.org/Graphics/SVG/1.1/DTD/svg11.dtd">
<!-- Generated by graphviz version 14.1.1 (20251213.1925)
 -->
<!-- Title: PlayerInputGraph Pages: 1 -->
<!--zoomable 478 -->

<svg id="main" version="1.1" xmlns="http://www.w3.org/2000/svg" xmlns:xlink="http://www.w3.org/1999/xlink" xml:space="preserve" onload="init(evt)">

<style type="text/css"><![CDATA[
.node, .edge {opacity: 0.7;}
.node.selected, .edge.selected {opacity: 1;}
.edge:hover path { stroke: red; }
.edge:hover polygon { stroke: red; fill: red; }
]]></style>

<defs>
  <circle id="rim" cx="0" cy="0" r="7"/>
  <circle id="rim2" cx="0" cy="0" r="3.5"/>
  <g id="zoomPlus">
    <use xlink:href="#rim" fill="#404040"><set attributeName="fill" to="#808080" begin="zoomplus.mouseover" end="zoomplus.mouseout"/></use>
    <path d="M-4,0h8M0,-4v8" fill="none" stroke="white" stroke-width="1.5" pointer-events="none"/>
  </g>
  <g id="zoomMin">
    <use xlink:href="#rim" fill="#404040"><set attributeName="fill" to="#808080" begin="zoomminus.mouseover" end="zoomminus.mouseout"/></use>
    <path d="M-4,0h8" fill="none" stroke="white" stroke-width="1.5" pointer-events="none"/>
  </g>
  <g id="arrowUp" transform="translate(30 24)">
    <use xlink:href="#rim"/>
    <path pointer-events="none" fill="none" stroke="white" stroke-width="1.5" d="M0,-3.0v7 M-2.5,-0.5L0,-3.0L2.5,-0.5"/>
  </g>
  <g id="arrowRight" transform="rotate(90) translate(36 -43)">
    <use xlink:href="#rim"/>
    <path pointer-events="none" fill="none" stroke="white" stroke-width="1.5" d="M0,-3.0v7 M-2.5,-0.5L0,-3.0L2.5,-0.5"/>
  </g>
  <g id="arrowDown" transform="rotate(180) translate(-30 -48)">
    <use xlink:href="#rim"/>
    <path pointer-events="none" fill="none" stroke="white" stroke-width="1.5" d="M0,-3.0v7 M-2.5,-0.5L0,-3.0L2.5,-0.5"/>
  </g>
  <g id="arrowLeft" transform="rotate(270) translate(-36 17)">
    <use xlink:href="#rim"/>
    <path pointer-events="none" fill="none" stroke="white" stroke-width="1.5" d="M0,-3.0v7 M-2.5,-0.5L0,-3.0L2.5,-0.5"/>
  </g>
  <g id="resetDef">
    <use xlink:href="#rim2" fill="#404040"><set attributeName="fill" to="#808080" begin="reset.mouseover" end="reset.mouseout"/></use>
  </g>
</defs>
<script type="application/ecmascript">
var viewWidth = 246;
var viewHeight = 478;
</script>
<script type="application/ecmascript" xlink:href="svg.min.js"/>
<svg id="graph" class="graph">
<g id="viewport">
<title>PlayerInputGraph</title>
<polygon fill="black" stroke="none" points="-4,4 -4,-474 242,-474 242,4 -4,4"/>
<g id="clust1" class="cluster">
<title>cluster_unityview</title>
<polygon fill="black" stroke="#41c7f1" points="8,-348 8,-462 230,-462 230,-348 8,-348"/>
<text xml:space="preserve" text-anchor="middle" x="119" y="-444.7" font-family="Times New Roman,serif" font-size="14.00" fill="#41c7f1">Unity View</text>
</g>
<g id="clust2" class="cluster">
<title>cluster_simulation</title>
<polygon fill="black" stroke="#f159e4" points="11,-8 11,-122 227,-122 227,-8 11,-8"/>
<text xml:space="preserve" text-anchor="middle" x="119" y="-104.7" font-family="Times New Roman,serif" font-size="14.00" fill="#f159e4">Quantum Simulation</text>
</g>
<!-- PlayerInput -->
<g id="node1" class="node">
<title>PlayerInput</title>
<polygon fill="black" stroke="#41c7f1" points="221.5,-429.5 16.5,-429.5 16.5,-356 221.5,-356 221.5,-429.5"/>
<text xml:space="preserve" text-anchor="middle" x="119" y="-412.2" font-family="Times New Roman,serif" font-size="14.00" fill="#41c7f1">PlayerInput</text>
<text xml:space="preserve" text-anchor="middle" x="119" y="-379.7" font-family="Times New Roman,serif" font-size="14.00" fill="#41c7f1">Inputs are processed and compiled</text>
<text xml:space="preserve" text-anchor="middle" x="119" y="-363.2" font-family="Times New Roman,serif" font-size="14.00" fill="#41c7f1">into a Quantum input struct</text>
</g>
<!-- InputStructView -->
<g id="node2" class="node">
<title>InputStructView</title>
<polygon fill="black" stroke="none" points="185.12,-320 52.88,-320 52.88,-279 185.12,-279 185.12,-320"/>
<text xml:space="preserve" text-anchor="middle" x="119" y="-302.7" font-family="Times New Roman,serif" font-size="14.00" fill="white">Quantum input struct</text>
<text xml:space="preserve" text-anchor="middle" x="119" y="-286.2" font-family="Times New Roman,serif" font-size="14.00" fill="white">Polled by Quantum</text>
</g>
<!-- PlayerInput&#45;&gt;InputStructView -->
<g id="edge1" class="edge">
<title>PlayerInput&#45;&gt;InputStructView</title>
<path fill="none" stroke="gray" d="M119,-355.69C119,-343.63 119,-330.64 119,-320.3"/>
</g>
<!-- Quantum -->
<g id="node3" class="node">
<title>Quantum</title>
<polygon fill="black" stroke="white" points="152.5,-243 85.5,-243 85.5,-207 152.5,-207 152.5,-243"/>
<text xml:space="preserve" text-anchor="middle" x="119" y="-219.95" font-family="Times New Roman,serif" font-size="14.00" fill="white">Quantum</text>
</g>
<!-- InputStructView&#45;&gt;Quantum -->
<g id="edge2" class="edge">
<title>InputStructView&#45;&gt;Quantum</title>
<path fill="none" stroke="gray" d="M119,-278.69C119,-271.25 119,-262.64 119,-254.57"/>
<polygon fill="gray" stroke="gray" points="122.5,-254.83 119,-244.83 115.5,-254.83 122.5,-254.83"/>
</g>
<!-- InputStructSimulation -->
<g id="node4" class="node">
<title>InputStructSimulation</title>
<polygon fill="black" stroke="none" points="185.12,-171 52.88,-171 52.88,-130 185.12,-130 185.12,-171"/>
<text xml:space="preserve" text-anchor="middle" x="119" y="-153.7" font-family="Times New Roman,serif" font-size="14.00" fill="white">Quantum input struct</text>
<text xml:space="preserve" text-anchor="middle" x="119" y="-137.2" font-family="Times New Roman,serif" font-size="14.00" fill="white">Read from Quantum</text>
</g>
<!-- Quantum&#45;&gt;InputStructSimulation -->
<g id="edge3" class="edge">
<title>Quantum&#45;&gt;InputStructSimulation</title>
<path fill="none" stroke="gray" d="M119,-195.56C119,-187.47 119,-178.84 119,-171.38"/>
<polygon fill="gray" stroke="gray" points="115.5,-195.3 119,-205.3 122.5,-195.3 115.5,-195.3"/>
</g>
<!-- PlayerQSystem -->
<g id="node5" class="node">
<title>PlayerQSystem</title>
<polygon fill="black" stroke="#f159e4" points="218.5,-89.5 19.5,-89.5 19.5,-16 218.5,-16 218.5,-89.5"/>
<text xml:space="preserve" text-anchor="middle" x="119" y="-72.2" font-family="Times New Roman,serif" font-size="14.00" fill="#f159e4">PlayerQSystem</text>
<text xml:space="preserve" text-anchor="middle" x="119" y="-39.7" font-family="Times New Roman,serif" font-size="14.00" fill="#f159e4">Reads, processes and passes</text>
<text xml:space="preserve" text-anchor="middle" x="119" y="-23.2" font-family="Times New Roman,serif" font-size="14.00" fill="#f159e4">the Quantum input struct forward</text>
</g>
<!-- InputStructSimulation&#45;&gt;PlayerQSystem -->
<g id="edge4" class="edge">
<title>InputStructSimulation&#45;&gt;PlayerQSystem</title>
<path fill="none" stroke="gray" d="M119,-129.66C119,-118.16 119,-103.32 119,-89.82"/>
</g>
</g>
</svg>

<g id="navigator" transform="translate(0 0)" fill="#404254">
  <rect fill="#f2f5e9" fill-opacity="0.5" stroke="#606060" stroke-width=".5" x="0" y="0" width="60" height="60"/>
  <use id="zoomplus" xlink:href="#zoomPlus" x="17" y="9" onmousedown="handleZoom(evt,'in')"/>
  <use id="zoomminus" xlink:href="#zoomMin" x="42" y="9" onmousedown="handleZoom(evt,'out')"/>
  <use id="reset" xlink:href="#resetDef" x="30" y="36" onmousedown="handleReset()"/>
   <use id="arrowup" xlink:href="#arrowUp" x="0" y="0" onmousedown="handlePan(0,-1)"/>
  <use id="arrowright" xlink:href="#arrowRight" x="0" y="0" onmousedown="handlePan(1,0)"/>
  <use id="arrowdown" xlink:href="#arrowDown" x="0" y="0" onmousedown="handlePan(0,1)"/>
  <use id="arrowleft" xlink:href="#arrowLeft" x="0" y="0" onmousedown="handlePan(-1,0)"/>
</g>
<svg viewBox="0 0 15 15" width="100%" height="30px" preserveAspectRatio="xMaxYMin meet">
 <g id="arrow_out" transform="scale(0.3 0.3)">
  <a xlink:href="dot_inline_dotgraph_4_org.svg" target="_base">
   <rect id="button" ry="5" rx="5" y="6" x="6" height="38" width="38"
        fill="#f2f5e9" fill-opacity="0.5" stroke="#606060" stroke-width="1.0"/>
   <path id="arrow"
     d="M 11.500037,31.436501 C 11.940474,20.09759 22.043105,11.32322 32.158766,21.979434 L 37.068811,17.246167 C 37.068811,17.246167 37.088388,32 37.088388,32 L 22.160133,31.978069 C 22.160133,31.978069 26.997745,27.140456 26.997745,27.140456 C 18.528582,18.264221 13.291696,25.230495 11.500037,31.436501 z"
     style="fill:#404040;"/>
  </a>
 </g>
</svg>

<style type='text/css'>
<![CDATA[
[data-mouse-over-selected='false'] { opacity: 0.7; }
[data-mouse-over-selected='true']  { opacity: 1.0; }
]]>
</style>
<script type="application/ecmascript"><![CDATA[
document.addEventListener('DOMContentLoaded', (event) => {
  highlightEdges();
  highlightAdjacentNodes();
});
]]></script>
</svg>
