<?xml version="1.0" encoding="UTF-8" standalone="no"?>
<!DOCTYPE svg PUBLIC "-//W3C//DTD SVG 1.1//EN"
 "http://www.w3.org/Graphics/SVG/1.1/DTD/svg11.dtd">
<!-- Generated by graphviz version 14.1.1 (20251213.1925)
 -->
<!-- Title: PlayerInputGraph Pages: 1 -->
<svg width="246pt" height="478pt"
 viewBox="0.00 0.00 246.00 478.00" xmlns="http://www.w3.org/2000/svg" xmlns:xlink="http://www.w3.org/1999/xlink">
<g id="graph0" class="graph" transform="scale(1 1) rotate(0) translate(4 474)">
<title>PlayerInputGraph</title>
<polygon fill="black" stroke="none" points="-4,4 -4,-474 242,-474 242,4 -4,4"/>
<g id="clust1" class="cluster">
<title>cluster_unityview</title>
<polygon fill="black" stroke="#41c7f1" points="8,-348 8,-462 230,-462 230,-348 8,-348"/>
<text xml:space="preserve" text-anchor="middle" x="119" y="-444.7" font-family="Times New Roman,serif" font-size="14.00" fill="#41c7f1">Unity View</text>
</g>
<g id="clust2" class="cluster">
<title>cluster_simulation</title>
<polygon fill="black" stroke="#f159e4" points="11,-8 11,-122 227,-122 227,-8 11,-8"/>
<text xml:space="preserve" text-anchor="middle" x="119" y="-104.7" font-family="Times New Roman,serif" font-size="14.00" fill="#f159e4">Quantum Simulation</text>
</g>
<!-- PlayerInput -->
<g id="node1" class="node">
<title>PlayerInput</title>
<polygon fill="black" stroke="#41c7f1" points="221.5,-429.5 16.5,-429.5 16.5,-356 221.5,-356 221.5,-429.5"/>
<text xml:space="preserve" text-anchor="middle" x="119" y="-412.2" font-family="Times New Roman,serif" font-size="14.00" fill="#41c7f1">PlayerInput</text>
<text xml:space="preserve" text-anchor="middle" x="119" y="-379.7" font-family="Times New Roman,serif" font-size="14.00" fill="#41c7f1">Inputs are processed and compiled</text>
<text xml:space="preserve" text-anchor="middle" x="119" y="-363.2" font-family="Times New Roman,serif" font-size="14.00" fill="#41c7f1">into a Quantum input struct</text>
</g>
<!-- InputStructView -->
<g id="node2" class="node">
<title>InputStructView</title>
<polygon fill="black" stroke="none" points="185.12,-320 52.88,-320 52.88,-279 185.12,-279 185.12,-320"/>
<text xml:space="preserve" text-anchor="middle" x="119" y="-302.7" font-family="Times New Roman,serif" font-size="14.00" fill="white">Quantum input struct</text>
<text xml:space="preserve" text-anchor="middle" x="119" y="-286.2" font-family="Times New Roman,serif" font-size="14.00" fill="white">Polled by Quantum</text>
</g>
<!-- PlayerInput&#45;&gt;InputStructView -->
<g id="edge1" class="edge">
<title>PlayerInput&#45;&gt;InputStructView</title>
<path fill="none" stroke="gray" d="M119,-355.69C119,-343.63 119,-330.64 119,-320.3"/>
</g>
<!-- Quantum -->
<g id="node3" class="node">
<title>Quantum</title>
<polygon fill="black" stroke="white" points="152.5,-243 85.5,-243 85.5,-207 152.5,-207 152.5,-243"/>
<text xml:space="preserve" text-anchor="middle" x="119" y="-219.95" font-family="Times New Roman,serif" font-size="14.00" fill="white">Quantum</text>
</g>
<!-- InputStructView&#45;&gt;Quantum -->
<g id="edge2" class="edge">
<title>InputStructView&#45;&gt;Quantum</title>
<path fill="none" stroke="gray" d="M119,-278.69C119,-271.25 119,-262.64 119,-254.57"/>
<polygon fill="gray" stroke="gray" points="122.5,-254.83 119,-244.83 115.5,-254.83 122.5,-254.83"/>
</g>
<!-- InputStructSimulation -->
<g id="node4" class="node">
<title>InputStructSimulation</title>
<polygon fill="black" stroke="none" points="185.12,-171 52.88,-171 52.88,-130 185.12,-130 185.12,-171"/>
<text xml:space="preserve" text-anchor="middle" x="119" y="-153.7" font-family="Times New Roman,serif" font-size="14.00" fill="white">Quantum input struct</text>
<text xml:space="preserve" text-anchor="middle" x="119" y="-137.2" font-family="Times New Roman,serif" font-size="14.00" fill="white">Read from Quantum</text>
</g>
<!-- Quantum&#45;&gt;InputStructSimulation -->
<g id="edge3" class="edge">
<title>Quantum&#45;&gt;InputStructSimulation</title>
<path fill="none" stroke="gray" d="M119,-195.56C119,-187.47 119,-178.84 119,-171.38"/>
<polygon fill="gray" stroke="gray" points="115.5,-195.3 119,-205.3 122.5,-195.3 115.5,-195.3"/>
</g>
<!-- PlayerQSystem -->
<g id="node5" class="node">
<title>PlayerQSystem</title>
<polygon fill="black" stroke="#f159e4" points="218.5,-89.5 19.5,-89.5 19.5,-16 218.5,-16 218.5,-89.5"/>
<text xml:space="preserve" text-anchor="middle" x="119" y="-72.2" font-family="Times New Roman,serif" font-size="14.00" fill="#f159e4">PlayerQSystem</text>
<text xml:space="preserve" text-anchor="middle" x="119" y="-39.7" font-family="Times New Roman,serif" font-size="14.00" fill="#f159e4">Reads, processes and passes</text>
<text xml:space="preserve" text-anchor="middle" x="119" y="-23.2" font-family="Times New Roman,serif" font-size="14.00" fill="#f159e4">the Quantum input struct forward</text>
</g>
<!-- InputStructSimulation&#45;&gt;PlayerQSystem -->
<g id="edge4" class="edge">
<title>InputStructSimulation&#45;&gt;PlayerQSystem</title>
<path fill="none" stroke="gray" d="M119,-129.66C119,-118.16 119,-103.32 119,-89.82"/>
</g>
</g>
</svg>
