<?xml version="1.0" encoding="UTF-8" standalone="no"?>
<!DOCTYPE svg PUBLIC "-//W3C//DTD SVG 1.1//EN"
 "http://www.w3.org/Graphics/SVG/1.1/DTD/svg11.dtd">
<!-- Generated by graphviz version 14.1.1 (20251213.1925)
 -->
<!-- Title: PlayerView Pages: 1 -->
<!--zoomable 577 -->

<svg id="main" version="1.1" xmlns="http://www.w3.org/2000/svg" xmlns:xlink="http://www.w3.org/1999/xlink" xml:space="preserve" onload="init(evt)">

<style type="text/css"><![CDATA[
.node, .edge {opacity: 0.7;}
.node.selected, .edge.selected {opacity: 1;}
.edge:hover path { stroke: red; }
.edge:hover polygon { stroke: red; fill: red; }
]]></style>

<defs>
  <circle id="rim" cx="0" cy="0" r="7"/>
  <circle id="rim2" cx="0" cy="0" r="3.5"/>
  <g id="zoomPlus">
    <use xlink:href="#rim" fill="#404040"><set attributeName="fill" to="#808080" begin="zoomplus.mouseover" end="zoomplus.mouseout"/></use>
    <path d="M-4,0h8M0,-4v8" fill="none" stroke="white" stroke-width="1.5" pointer-events="none"/>
  </g>
  <g id="zoomMin">
    <use xlink:href="#rim" fill="#404040"><set attributeName="fill" to="#808080" begin="zoomminus.mouseover" end="zoomminus.mouseout"/></use>
    <path d="M-4,0h8" fill="none" stroke="white" stroke-width="1.5" pointer-events="none"/>
  </g>
  <g id="arrowUp" transform="translate(30 24)">
    <use xlink:href="#rim"/>
    <path pointer-events="none" fill="none" stroke="white" stroke-width="1.5" d="M0,-3.0v7 M-2.5,-0.5L0,-3.0L2.5,-0.5"/>
  </g>
  <g id="arrowRight" transform="rotate(90) translate(36 -43)">
    <use xlink:href="#rim"/>
    <path pointer-events="none" fill="none" stroke="white" stroke-width="1.5" d="M0,-3.0v7 M-2.5,-0.5L0,-3.0L2.5,-0.5"/>
  </g>
  <g id="arrowDown" transform="rotate(180) translate(-30 -48)">
    <use xlink:href="#rim"/>
    <path pointer-events="none" fill="none" stroke="white" stroke-width="1.5" d="M0,-3.0v7 M-2.5,-0.5L0,-3.0L2.5,-0.5"/>
  </g>
  <g id="arrowLeft" transform="rotate(270) translate(-36 17)">
    <use xlink:href="#rim"/>
    <path pointer-events="none" fill="none" stroke="white" stroke-width="1.5" d="M0,-3.0v7 M-2.5,-0.5L0,-3.0L2.5,-0.5"/>
  </g>
  <g id="resetDef">
    <use xlink:href="#rim2" fill="#404040"><set attributeName="fill" to="#808080" begin="reset.mouseover" end="reset.mouseout"/></use>
  </g>
</defs>
<script type="application/ecmascript">
var viewWidth = 905;
var viewHeight = 577;
</script>
<script type="application/ecmascript" xlink:href="svg.min.js"/>
<svg id="graph" class="graph">
<g id="viewport">
<title>PlayerView</title>
<polygon fill="black" stroke="none" points="-4,4 -4,-572.5 900.62,-572.5 900.62,4 -4,4"/>
<!-- Quantum -->
<g id="node1" class="node">
<title>Quantum</title>
<polygon fill="black" stroke="white" points="620,-568.5 553,-568.5 553,-532.5 620,-532.5 620,-568.5"/>
<text xml:space="preserve" text-anchor="middle" x="586.5" y="-545.45" font-family="Times New Roman,serif" font-size="14.00" fill="white">Quantum</text>
</g>
<!-- InputLink -->
<g id="node7" class="node">
<title>InputLink</title>
<polygon fill="black" stroke="none" points="395.25,-477.5 245.75,-477.5 245.75,-441.5 395.25,-441.5 395.25,-477.5"/>
<text xml:space="preserve" text-anchor="middle" x="320.5" y="-454.45" font-family="Times New Roman,serif" font-size="14.00" fill="white">Sends Input to Quantum</text>
</g>
<!-- Quantum&#45;&gt;InputLink -->
<g id="edge1" class="edge">
<title>Quantum&#45;&gt;InputLink</title>
<path fill="none" stroke="gray" d="M541.84,-534.56C495.12,-518.92 421.84,-494.41 372.53,-477.91"/>
<polygon fill="gray" stroke="gray" points="540.51,-537.8 551.11,-537.66 542.73,-531.17 540.51,-537.8"/>
</g>
<!-- UpdateLink -->
<g id="node8" class="node">
<title>UpdateLink</title>
<polygon fill="black" stroke="none" points="672.12,-496.5 500.88,-496.5 500.88,-422.5 672.12,-422.5 672.12,-496.5"/>
<text xml:space="preserve" text-anchor="middle" x="586.5" y="-479.2" font-family="Times New Roman,serif" font-size="14.00" fill="white">Gets updates from Quantum</text>
<text xml:space="preserve" text-anchor="middle" x="586.5" y="-462.7" font-family="Times New Roman,serif" font-size="14.00" fill="white">OnActivate</text>
<text xml:space="preserve" text-anchor="middle" x="586.5" y="-446.2" font-family="Times New Roman,serif" font-size="14.00" fill="white">OnUpdateView</text>
<text xml:space="preserve" text-anchor="middle" x="586.5" y="-429.7" font-family="Times New Roman,serif" font-size="14.00" fill="white">Quantum Events</text>
</g>
<!-- Quantum&#45;&gt;UpdateLink -->
<g id="edge3" class="edge">
<title>Quantum&#45;&gt;UpdateLink</title>
<path fill="none" stroke="gray" d="M586.5,-532.34C586.5,-522.24 586.5,-509.07 586.5,-496.76"/>
</g>
<!-- ClassQuantumLink -->
<g id="node10" class="node">
<title>ClassQuantumLink</title>
<polygon fill="black" stroke="none" points="896.62,-353.75 710.38,-353.75 710.38,-312.75 896.62,-312.75 896.62,-353.75"/>
<text xml:space="preserve" text-anchor="middle" x="803.5" y="-336.45" font-family="Times New Roman,serif" font-size="14.00" fill="white">Gets updates from Quantum</text>
<text xml:space="preserve" text-anchor="middle" x="803.5" y="-319.95" font-family="Times New Roman,serif" font-size="14.00" fill="white">Class specific Quantum Events</text>
</g>
<!-- Quantum&#45;&gt;ClassQuantumLink -->
<g id="edge6" class="edge">
<title>Quantum&#45;&gt;ClassQuantumLink</title>
<path fill="none" stroke="gray" d="M620.34,-534.92C639.54,-525.64 663.29,-512.39 681.5,-496.5 731.02,-453.28 773.14,-386.92 792.36,-354.08"/>
</g>
<!-- PlayerInputGameobject -->
<g id="node2" class="node">
<title>PlayerInputGameobject</title>
<polygon fill="black" stroke="white" points="301,-244 162,-244 162,-203 301,-203 301,-244"/>
<text xml:space="preserve" text-anchor="middle" x="231.5" y="-226.7" font-family="Times New Roman,serif" font-size="14.00" fill="white">PlayerInput</text>
<text xml:space="preserve" text-anchor="middle" x="231.5" y="-210.2" font-family="Times New Roman,serif" font-size="14.00" fill="white">(Gameobject in scene)</text>
</g>
<!-- PlayerGameobject -->
<g id="node3" class="node">
<title>PlayerGameobject</title>
<polygon fill="black" stroke="white" points="721,-41 582,-41 582,0 721,0 721,-41"/>
<text xml:space="preserve" text-anchor="middle" x="651.5" y="-23.7" font-family="Times New Roman,serif" font-size="14.00" fill="white">Player</text>
<text xml:space="preserve" text-anchor="middle" x="651.5" y="-7.2" font-family="Times New Roman,serif" font-size="14.00" fill="white">(Gameobject instance)</text>
</g>
<!-- PlayerViewController -->
<g id="node4" class="node">
<title>PlayerViewController</title>
<polygon fill="black" stroke="#41c7f1" points="692.38,-386.5 480.62,-386.5 480.62,-280 692.38,-280 692.38,-386.5"/>
<text xml:space="preserve" text-anchor="middle" x="586.5" y="-369.2" font-family="Times New Roman,serif" font-size="14.00" fill="#41c7f1">PlayerViewController</text>
<text xml:space="preserve" text-anchor="middle" x="586.5" y="-352.7" font-family="Times New Roman,serif" font-size="14.00" fill="#41c7f1">(QuantumEntityViewComponent)</text>
<text xml:space="preserve" text-anchor="middle" x="586.5" y="-336.2" font-family="Times New Roman,serif" font-size="14.00" fill="#41c7f1">(Unity Monobehavior)</text>
<text xml:space="preserve" text-anchor="middle" x="586.5" y="-303.7" font-family="Times New Roman,serif" font-size="14.00" fill="#41c7f1">Attached to each player gameobject</text>
<text xml:space="preserve" text-anchor="middle" x="586.5" y="-287.2" font-family="Times New Roman,serif" font-size="14.00" fill="#41c7f1">Handles player view logic.</text>
</g>
<!-- PlayerViewController&#45;&gt;PlayerGameobject -->
<g id="edge10" class="edge">
<title>PlayerViewController&#45;&gt;PlayerGameobject</title>
<path fill="none" stroke="gray" d="M572.63,-279.97C561.26,-226.24 551.58,-141.55 582.5,-77 589.47,-62.44 602.33,-50.49 615.08,-41.45"/>
</g>
<!-- ClassPlayerLink -->
<g id="node9" class="node">
<title>ClassPlayerLink</title>
<polygon fill="black" stroke="none" points="775.12,-244 591.88,-244 591.88,-203 775.12,-203 775.12,-244"/>
<text xml:space="preserve" text-anchor="middle" x="683.5" y="-226.7" font-family="Times New Roman,serif" font-size="14.00" fill="white">Forwards OnUpdateView</text>
<text xml:space="preserve" text-anchor="middle" x="683.5" y="-210.2" font-family="Times New Roman,serif" font-size="14.00" fill="white">and common Quantum Events</text>
</g>
<!-- PlayerViewController&#45;&gt;ClassPlayerLink -->
<g id="edge5" class="edge">
<title>PlayerViewController&#45;&gt;ClassPlayerLink</title>
<path fill="none" stroke="gray" d="M633.86,-279.64C645.21,-267.03 656.65,-254.33 665.67,-244.3"/>
</g>
<!-- PlayerClassViewController -->
<g id="node5" class="node">
<title>PlayerClassViewController</title>
<polygon fill="black" stroke="#41c7f1" points="889.12,-167 591.88,-167 591.88,-77 889.12,-77 889.12,-167"/>
<text xml:space="preserve" text-anchor="middle" x="740.5" y="-149.7" font-family="Times New Roman,serif" font-size="14.00" fill="#41c7f1">PlayerClassViewController</text>
<text xml:space="preserve" text-anchor="middle" x="740.5" y="-133.2" font-family="Times New Roman,serif" font-size="14.00" fill="#41c7f1">(Subclass of BattlePlayerClassBaseViewController)</text>
<text xml:space="preserve" text-anchor="middle" x="740.5" y="-100.7" font-family="Times New Roman,serif" font-size="14.00" fill="#41c7f1">Attached to each player gameobject</text>
<text xml:space="preserve" text-anchor="middle" x="740.5" y="-84.2" font-family="Times New Roman,serif" font-size="14.00" fill="#41c7f1">Handles player class view logic.</text>
</g>
<!-- PlayerClassViewController&#45;&gt;PlayerGameobject -->
<g id="edge11" class="edge">
<title>PlayerClassViewController&#45;&gt;PlayerGameobject</title>
<path fill="none" stroke="gray" d="M700.95,-76.78C689.9,-64.43 678.43,-51.61 669.33,-41.44"/>
</g>
<!-- PlayerInput -->
<g id="node6" class="node">
<title>PlayerInput</title>
<polygon fill="black" stroke="#41c7f1" points="463,-378.25 0,-378.25 0,-288.25 463,-288.25 463,-378.25"/>
<text xml:space="preserve" text-anchor="middle" x="231.5" y="-360.95" font-family="Times New Roman,serif" font-size="14.00" fill="#41c7f1">PlayerInput</text>
<text xml:space="preserve" text-anchor="middle" x="231.5" y="-344.45" font-family="Times New Roman,serif" font-size="14.00" fill="#41c7f1">(Unity Monobehavior)</text>
<text xml:space="preserve" text-anchor="middle" x="231.5" y="-311.95" font-family="Times New Roman,serif" font-size="14.00" fill="#41c7f1">Attached to gameobject in scene</text>
<text xml:space="preserve" text-anchor="middle" x="231.5" y="-295.45" font-family="Times New Roman,serif" font-size="14.00" fill="#41c7f1">Handles subscribing to QuantumCallBack and polling player inputs for Quantum.</text>
</g>
<!-- PlayerInput&#45;&gt;PlayerInputGameobject -->
<g id="edge9" class="edge">
<title>PlayerInput&#45;&gt;PlayerInputGameobject</title>
<path fill="none" stroke="gray" d="M231.5,-287.8C231.5,-272.73 231.5,-256.64 231.5,-244.46"/>
</g>
<!-- InputLink&#45;&gt;PlayerInput -->
<g id="edge2" class="edge">
<title>InputLink&#45;&gt;PlayerInput</title>
<path fill="none" stroke="gray" d="M308.12,-441.22C296.57,-425.09 278.82,-400.31 263.31,-378.66"/>
</g>
<!-- UpdateLink&#45;&gt;PlayerViewController -->
<g id="edge4" class="edge">
<title>UpdateLink&#45;&gt;PlayerViewController</title>
<path fill="none" stroke="gray" d="M586.5,-422.23C586.5,-414.73 586.5,-406.62 586.5,-398.46"/>
<polygon fill="gray" stroke="gray" points="590,-398.47 586.5,-388.47 583,-398.47 590,-398.47"/>
</g>
<!-- ClassPlayerLink&#45;&gt;PlayerClassViewController -->
<g id="edge7" class="edge">
<title>ClassPlayerLink&#45;&gt;PlayerClassViewController</title>
<path fill="none" stroke="gray" d="M694.76,-202.84C699.05,-195.36 704.17,-186.41 709.41,-177.26"/>
<polygon fill="gray" stroke="gray" points="712.43,-179.05 714.36,-168.63 706.35,-175.57 712.43,-179.05"/>
</g>
<!-- ClassQuantumLink&#45;&gt;PlayerClassViewController -->
<g id="edge8" class="edge">
<title>ClassQuantumLink&#45;&gt;PlayerClassViewController</title>
<path fill="none" stroke="gray" d="M802.77,-312.48C801.34,-286.67 797.08,-240.41 784.5,-203 781.63,-194.45 777.86,-185.76 773.73,-177.4"/>
<polygon fill="gray" stroke="gray" points="776.96,-176.02 769.26,-168.75 770.74,-179.24 776.96,-176.02"/>
</g>
</g>
</svg>

<g id="navigator" transform="translate(0 0)" fill="#404254">
  <rect fill="#f2f5e9" fill-opacity="0.5" stroke="#606060" stroke-width=".5" x="0" y="0" width="60" height="60"/>
  <use id="zoomplus" xlink:href="#zoomPlus" x="17" y="9" onmousedown="handleZoom(evt,'in')"/>
  <use id="zoomminus" xlink:href="#zoomMin" x="42" y="9" onmousedown="handleZoom(evt,'out')"/>
  <use id="reset" xlink:href="#resetDef" x="30" y="36" onmousedown="handleReset()"/>
   <use id="arrowup" xlink:href="#arrowUp" x="0" y="0" onmousedown="handlePan(0,-1)"/>
  <use id="arrowright" xlink:href="#arrowRight" x="0" y="0" onmousedown="handlePan(1,0)"/>
  <use id="arrowdown" xlink:href="#arrowDown" x="0" y="0" onmousedown="handlePan(0,1)"/>
  <use id="arrowleft" xlink:href="#arrowLeft" x="0" y="0" onmousedown="handlePan(-1,0)"/>
</g>
<svg viewBox="0 0 15 15" width="100%" height="30px" preserveAspectRatio="xMaxYMin meet">
 <g id="arrow_out" transform="scale(0.3 0.3)">
  <a xlink:href="dot_inline_dotgraph_8_org.svg" target="_base">
   <rect id="button" ry="5" rx="5" y="6" x="6" height="38" width="38"
        fill="#f2f5e9" fill-opacity="0.5" stroke="#606060" stroke-width="1.0"/>
   <path id="arrow"
     d="M 11.500037,31.436501 C 11.940474,20.09759 22.043105,11.32322 32.158766,21.979434 L 37.068811,17.246167 C 37.068811,17.246167 37.088388,32 37.088388,32 L 22.160133,31.978069 C 22.160133,31.978069 26.997745,27.140456 26.997745,27.140456 C 18.528582,18.264221 13.291696,25.230495 11.500037,31.436501 z"
     style="fill:#404040;"/>
  </a>
 </g>
</svg>

<style type='text/css'>
<![CDATA[
[data-mouse-over-selected='false'] { opacity: 0.7; }
[data-mouse-over-selected='true']  { opacity: 1.0; }
]]>
</style>
<script type="application/ecmascript"><![CDATA[
document.addEventListener('DOMContentLoaded', (event) => {
  highlightEdges();
  highlightAdjacentNodes();
});
]]></script>
</svg>
