<?xml version="1.0" encoding="UTF-8" standalone="no"?>
<!DOCTYPE svg PUBLIC "-//W3C//DTD SVG 1.1//EN"
 "http://www.w3.org/Graphics/SVG/1.1/DTD/svg11.dtd">
<!-- Generated by graphviz version 14.1.1 (20251213.1925)
 -->
<!-- Title: Player Pages: 1 -->
<!--zoomable 275 -->

<svg id="main" version="1.1" xmlns="http://www.w3.org/2000/svg" xmlns:xlink="http://www.w3.org/1999/xlink" xml:space="preserve" onload="init(evt)">

<style type="text/css"><![CDATA[
.node, .edge {opacity: 0.7;}
.node.selected, .edge.selected {opacity: 1;}
.edge:hover path { stroke: red; }
.edge:hover polygon { stroke: red; fill: red; }
]]></style>

<defs>
  <circle id="rim" cx="0" cy="0" r="7"/>
  <circle id="rim2" cx="0" cy="0" r="3.5"/>
  <g id="zoomPlus">
    <use xlink:href="#rim" fill="#404040"><set attributeName="fill" to="#808080" begin="zoomplus.mouseover" end="zoomplus.mouseout"/></use>
    <path d="M-4,0h8M0,-4v8" fill="none" stroke="white" stroke-width="1.5" pointer-events="none"/>
  </g>
  <g id="zoomMin">
    <use xlink:href="#rim" fill="#404040"><set attributeName="fill" to="#808080" begin="zoomminus.mouseover" end="zoomminus.mouseout"/></use>
    <path d="M-4,0h8" fill="none" stroke="white" stroke-width="1.5" pointer-events="none"/>
  </g>
  <g id="arrowUp" transform="translate(30 24)">
    <use xlink:href="#rim"/>
    <path pointer-events="none" fill="none" stroke="white" stroke-width="1.5" d="M0,-3.0v7 M-2.5,-0.5L0,-3.0L2.5,-0.5"/>
  </g>
  <g id="arrowRight" transform="rotate(90) translate(36 -43)">
    <use xlink:href="#rim"/>
    <path pointer-events="none" fill="none" stroke="white" stroke-width="1.5" d="M0,-3.0v7 M-2.5,-0.5L0,-3.0L2.5,-0.5"/>
  </g>
  <g id="arrowDown" transform="rotate(180) translate(-30 -48)">
    <use xlink:href="#rim"/>
    <path pointer-events="none" fill="none" stroke="white" stroke-width="1.5" d="M0,-3.0v7 M-2.5,-0.5L0,-3.0L2.5,-0.5"/>
  </g>
  <g id="arrowLeft" transform="rotate(270) translate(-36 17)">
    <use xlink:href="#rim"/>
    <path pointer-events="none" fill="none" stroke="white" stroke-width="1.5" d="M0,-3.0v7 M-2.5,-0.5L0,-3.0L2.5,-0.5"/>
  </g>
  <g id="resetDef">
    <use xlink:href="#rim2" fill="#404040"><set attributeName="fill" to="#808080" begin="reset.mouseover" end="reset.mouseout"/></use>
  </g>
</defs>
<script type="application/ecmascript">
var viewWidth = 787;
var viewHeight = 275;
</script>
<script type="application/ecmascript" xlink:href="svg.min.js"/>
<svg id="graph" class="graph">
<g id="viewport">
<title>Player</title>
<polygon fill="black" stroke="none" points="-4,4 -4,-271 783,-271 783,4 -4,4"/>
<!-- Player -->
<g id="node1" class="node">
<title>Player</title>
<polygon fill="black" stroke="white" points="333.88,-267 279.88,-267 279.88,-231 333.88,-231 333.88,-267"/>
<text xml:space="preserve" text-anchor="middle" x="306.88" y="-243.95" font-family="Times New Roman,serif" font-size="14.00" fill="white">Player</text>
</g>
<!-- Data -->
<g id="node2" class="node">
<title>Data</title>
<polygon fill="black" stroke="none" points="321.88,-195 113.88,-195 113.88,-154 321.88,-154 321.88,-195"/>
<text xml:space="preserve" text-anchor="middle" x="217.88" y="-177.7" font-family="Times New Roman,serif" font-size="14.00" fill="white">Data</text>
<text xml:space="preserve" text-anchor="middle" x="217.88" y="-161.2" font-family="Times New Roman,serif" font-size="14.00" fill="white">Not related to individual characters</text>
</g>
<!-- Player&#45;&gt;Data -->
<g id="edge1" class="edge">
<title>Player&#45;&gt;Data</title>
<path fill="none" stroke="gray" d="M285.78,-230.82C272.73,-220.18 255.91,-206.49 242.28,-195.38"/>
</g>
<!-- CharacterEntities -->
<g id="node5" class="node">
<title>CharacterEntities</title>
<polygon fill="black" stroke="none" points="498.5,-192.5 387.25,-192.5 387.25,-156.5 498.5,-156.5 498.5,-192.5"/>
<text xml:space="preserve" text-anchor="middle" x="442.88" y="-169.45" font-family="Times New Roman,serif" font-size="14.00" fill="white">Character entities</text>
</g>
<!-- Player&#45;&gt;CharacterEntities -->
<g id="edge4" class="edge">
<title>Player&#45;&gt;CharacterEntities</title>
<path fill="none" stroke="gray" d="M334.07,-233.5C356.08,-221.77 387.15,-205.2 410.46,-192.78"/>
</g>
<!-- PlayerRef -->
<g id="node3" class="node">
<title>PlayerRef</title>
<polygon fill="black" stroke="white" points="115.75,-118 0,-118 0,-77 115.75,-77 115.75,-118"/>
<text xml:space="preserve" text-anchor="middle" x="57.88" y="-100.7" font-family="Times New Roman,serif" font-size="14.00" fill="white">PlayerRef</text>
<text xml:space="preserve" text-anchor="middle" x="57.88" y="-84.2" font-family="Times New Roman,serif" font-size="14.00" fill="white">Used by Quantum</text>
</g>
<!-- Data&#45;&gt;PlayerRef -->
<g id="edge2" class="edge">
<title>Data&#45;&gt;PlayerRef</title>
<path fill="none" stroke="gray" d="M175.42,-153.6C155.62,-144.32 131.85,-133.18 110.88,-123.35"/>
<polygon fill="gray" stroke="gray" points="112.44,-120.21 101.9,-119.14 109.47,-126.55 112.44,-120.21"/>
</g>
<!-- PlayerSlot -->
<g id="node4" class="node">
<title>PlayerSlot</title>
<polygon fill="black" stroke="white" points="302.38,-118 133.38,-118 133.38,-77 302.38,-77 302.38,-118"/>
<text xml:space="preserve" text-anchor="middle" x="217.88" y="-100.7" font-family="Times New Roman,serif" font-size="14.00" fill="white">PlayerSlot</text>
<text xml:space="preserve" text-anchor="middle" x="217.88" y="-84.2" font-family="Times New Roman,serif" font-size="14.00" fill="white">Defined and preferred by us</text>
</g>
<!-- Data&#45;&gt;PlayerSlot -->
<g id="edge3" class="edge">
<title>Data&#45;&gt;PlayerSlot</title>
<path fill="none" stroke="gray" d="M217.88,-153.79C217.88,-146.45 217.88,-137.91 217.88,-129.78"/>
<polygon fill="gray" stroke="gray" points="221.38,-129.85 217.88,-119.85 214.38,-129.85 221.38,-129.85"/>
</g>
<!-- CharacterEntityList -->
<g id="node6" class="node">
<title>CharacterEntityList</title>
<polygon fill="black" stroke="white" points="320.62,-79.5 320.62,-115.5 661.12,-115.5 661.12,-79.5 320.62,-79.5"/>
<text xml:space="preserve" text-anchor="middle" x="377.38" y="-92.45" font-family="Times New Roman,serif" font-size="14.00" fill="white">Character entity 1</text>
<polyline fill="none" stroke="white" points="434.12,-79.5 434.12,-115.5"/>
<text xml:space="preserve" text-anchor="middle" x="490.88" y="-92.45" font-family="Times New Roman,serif" font-size="14.00" fill="white">Character entity 2</text>
<polyline fill="none" stroke="white" points="547.62,-79.5 547.62,-115.5"/>
<text xml:space="preserve" text-anchor="middle" x="604.38" y="-92.45" font-family="Times New Roman,serif" font-size="14.00" fill="white">Character entity 3</text>
</g>
<!-- CharacterEntities&#45;&gt;CharacterEntityList -->
<g id="edge5" class="edge">
<title>CharacterEntities&#45;&gt;CharacterEntityList</title>
<path fill="none" stroke="gray" d="M454.01,-156.1C459.82,-147.02 467.07,-135.69 473.6,-125.5"/>
<polygon fill="gray" stroke="gray" points="476.54,-127.38 478.99,-117.08 470.65,-123.61 476.54,-127.38"/>
</g>
<!-- CharacterData1 -->
<g id="node7" class="node">
<title>CharacterData1</title>
<polygon fill="black" stroke="none" points="383,-41 202.75,-41 202.75,0 383,0 383,-41"/>
<text xml:space="preserve" text-anchor="middle" x="292.88" y="-23.7" font-family="Times New Roman,serif" font-size="14.00" fill="white">Data</text>
<text xml:space="preserve" text-anchor="middle" x="292.88" y="-7.2" font-family="Times New Roman,serif" font-size="14.00" fill="white">Related to a specific character</text>
</g>
<!-- CharacterEntityList&#45;&gt;CharacterData1 -->
<g id="edge6" class="edge">
<title>CharacterEntityList:0&#45;&gt;CharacterData1</title>
<path fill="none" stroke="gray" d="M319.62,-97.5C318.99,-97.5 310.52,-73.2 303.28,-52.08"/>
<polygon fill="gray" stroke="gray" points="306.69,-51.23 300.14,-42.9 300.06,-53.49 306.69,-51.23"/>
</g>
<!-- CharacterData2 -->
<g id="node8" class="node">
<title>CharacterData2</title>
<polygon fill="black" stroke="none" points="581,-41 400.75,-41 400.75,0 581,0 581,-41"/>
<text xml:space="preserve" text-anchor="middle" x="490.88" y="-23.7" font-family="Times New Roman,serif" font-size="14.00" fill="white">Data</text>
<text xml:space="preserve" text-anchor="middle" x="490.88" y="-7.2" font-family="Times New Roman,serif" font-size="14.00" fill="white">Related to a specific character</text>
</g>
<!-- CharacterEntityList&#45;&gt;CharacterData2 -->
<g id="edge7" class="edge">
<title>CharacterEntityList:1&#45;&gt;CharacterData2</title>
<path fill="none" stroke="gray" d="M490.88,-78.5C490.88,-70.09 490.88,-60.99 490.88,-52.57"/>
<polygon fill="gray" stroke="gray" points="494.38,-52.8 490.88,-42.8 487.38,-52.8 494.38,-52.8"/>
</g>
<!-- CharacterData3 -->
<g id="node9" class="node">
<title>CharacterData3</title>
<polygon fill="black" stroke="none" points="779,-41 598.75,-41 598.75,0 779,0 779,-41"/>
<text xml:space="preserve" text-anchor="middle" x="688.88" y="-23.7" font-family="Times New Roman,serif" font-size="14.00" fill="white">Data</text>
<text xml:space="preserve" text-anchor="middle" x="688.88" y="-7.2" font-family="Times New Roman,serif" font-size="14.00" fill="white">Related to a specific character</text>
</g>
<!-- CharacterEntityList&#45;&gt;CharacterData3 -->
<g id="edge8" class="edge">
<title>CharacterEntityList:2&#45;&gt;CharacterData3</title>
<path fill="none" stroke="gray" d="M662.12,-97.5C682.1,-97.5 688.11,-73.86 689.53,-52.95"/>
<polygon fill="gray" stroke="gray" points="693.02,-53.09 689.85,-42.98 686.03,-52.86 693.02,-53.09"/>
</g>
</g>
</svg>

<g id="navigator" transform="translate(0 0)" fill="#404254">
  <rect fill="#f2f5e9" fill-opacity="0.5" stroke="#606060" stroke-width=".5" x="0" y="0" width="60" height="60"/>
  <use id="zoomplus" xlink:href="#zoomPlus" x="17" y="9" onmousedown="handleZoom(evt,'in')"/>
  <use id="zoomminus" xlink:href="#zoomMin" x="42" y="9" onmousedown="handleZoom(evt,'out')"/>
  <use id="reset" xlink:href="#resetDef" x="30" y="36" onmousedown="handleReset()"/>
   <use id="arrowup" xlink:href="#arrowUp" x="0" y="0" onmousedown="handlePan(0,-1)"/>
  <use id="arrowright" xlink:href="#arrowRight" x="0" y="0" onmousedown="handlePan(1,0)"/>
  <use id="arrowdown" xlink:href="#arrowDown" x="0" y="0" onmousedown="handlePan(0,1)"/>
  <use id="arrowleft" xlink:href="#arrowLeft" x="0" y="0" onmousedown="handlePan(-1,0)"/>
</g>
<svg viewBox="0 0 15 15" width="100%" height="30px" preserveAspectRatio="xMaxYMin meet">
 <g id="arrow_out" transform="scale(0.3 0.3)">
  <a xlink:href="dot_inline_dotgraph_1_org.svg" target="_base">
   <rect id="button" ry="5" rx="5" y="6" x="6" height="38" width="38"
        fill="#f2f5e9" fill-opacity="0.5" stroke="#606060" stroke-width="1.0"/>
   <path id="arrow"
     d="M 11.500037,31.436501 C 11.940474,20.09759 22.043105,11.32322 32.158766,21.979434 L 37.068811,17.246167 C 37.068811,17.246167 37.088388,32 37.088388,32 L 22.160133,31.978069 C 22.160133,31.978069 26.997745,27.140456 26.997745,27.140456 C 18.528582,18.264221 13.291696,25.230495 11.500037,31.436501 z"
     style="fill:#404040;"/>
  </a>
 </g>
</svg>

<style type='text/css'>
<![CDATA[
[data-mouse-over-selected='false'] { opacity: 0.7; }
[data-mouse-over-selected='true']  { opacity: 1.0; }
]]>
</style>
<script type="application/ecmascript"><![CDATA[
document.addEventListener('DOMContentLoaded', (event) => {
  highlightEdges();
  highlightAdjacentNodes();
});
]]></script>
</svg>
