<?xml version="1.0" encoding="UTF-8" standalone="no"?>
<!DOCTYPE svg PUBLIC "-//W3C//DTD SVG 1.1//EN"
 "http://www.w3.org/Graphics/SVG/1.1/DTD/svg11.dtd">
<!-- Generated by graphviz version 14.1.3 (20260303.0454)
 -->
<!-- Title: PlayerCharacterEntities Pages: 1 -->
<!--zoomable 247 -->

<svg id="main" version="1.1" xmlns="http://www.w3.org/2000/svg" xmlns:xlink="http://www.w3.org/1999/xlink" xml:space="preserve" onload="init(evt)">

<style type="text/css"><![CDATA[
.node, .edge {opacity: 0.7;}
.node.selected, .edge.selected {opacity: 1;}
.edge:hover path { stroke: red; }
.edge:hover polygon { stroke: red; fill: red; }
]]></style>

<defs>
  <circle id="rim" cx="0" cy="0" r="7"/>
  <circle id="rim2" cx="0" cy="0" r="3.5"/>
  <g id="zoomPlus">
    <use xlink:href="#rim" fill="#404040"><set attributeName="fill" to="#808080" begin="zoomplus.mouseover" end="zoomplus.mouseout"/></use>
    <path d="M-4,0h8M0,-4v8" fill="none" stroke="white" stroke-width="1.5" pointer-events="none"/>
  </g>
  <g id="zoomMin">
    <use xlink:href="#rim" fill="#404040"><set attributeName="fill" to="#808080" begin="zoomminus.mouseover" end="zoomminus.mouseout"/></use>
    <path d="M-4,0h8" fill="none" stroke="white" stroke-width="1.5" pointer-events="none"/>
  </g>
  <g id="arrowUp" transform="translate(30 24)">
    <use xlink:href="#rim"/>
    <path pointer-events="none" fill="none" stroke="white" stroke-width="1.5" d="M0,-3.0v7 M-2.5,-0.5L0,-3.0L2.5,-0.5"/>
  </g>
  <g id="arrowRight" transform="rotate(90) translate(36 -43)">
    <use xlink:href="#rim"/>
    <path pointer-events="none" fill="none" stroke="white" stroke-width="1.5" d="M0,-3.0v7 M-2.5,-0.5L0,-3.0L2.5,-0.5"/>
  </g>
  <g id="arrowDown" transform="rotate(180) translate(-30 -48)">
    <use xlink:href="#rim"/>
    <path pointer-events="none" fill="none" stroke="white" stroke-width="1.5" d="M0,-3.0v7 M-2.5,-0.5L0,-3.0L2.5,-0.5"/>
  </g>
  <g id="arrowLeft" transform="rotate(270) translate(-36 17)">
    <use xlink:href="#rim"/>
    <path pointer-events="none" fill="none" stroke="white" stroke-width="1.5" d="M0,-3.0v7 M-2.5,-0.5L0,-3.0L2.5,-0.5"/>
  </g>
  <g id="resetDef">
    <use xlink:href="#rim2" fill="#404040"><set attributeName="fill" to="#808080" begin="reset.mouseover" end="reset.mouseout"/></use>
  </g>
</defs>
<script type="application/ecmascript">
var viewWidth = 1281;
var viewHeight = 247;
</script>
<script type="application/ecmascript" xlink:href="svg.min.js"/>
<svg id="graph" class="graph">
<g id="viewport">
<title>PlayerCharacterEntities</title>
<polygon fill="black" stroke="none" points="-4,4 -4,-243.48 1276.5,-243.48 1276.5,4 -4,4"/>
<g id="clust1" class="cluster">
<title>cluster_shield_group_1</title>
<polygon fill="black" stroke="white" points="112.5,-8 112.5,-81.5 414.5,-81.5 414.5,-8 112.5,-8"/>
</g>
<g id="clust2" class="cluster">
<title>cluster_shield_group_2</title>
<polygon fill="black" stroke="white" points="537.5,-8 537.5,-81.5 839.5,-81.5 839.5,-8 537.5,-8"/>
</g>
<g id="clust3" class="cluster">
<title>cluster_shield_group_3</title>
<polygon fill="black" stroke="white" points="962.5,-8 962.5,-81.5 1264.5,-81.5 1264.5,-8 962.5,-8"/>
</g>
<!-- Player -->
<g id="node1" class="node">
<title>Player</title>
<ellipse fill="black" stroke="white" cx="593.5" cy="-221.48" rx="34.46" ry="18"/>
<text xml:space="preserve" text-anchor="middle" x="593.5" y="-216.43" font-family="Times New Roman,serif" font-size="14.00" fill="white">Player</text>
</g>
<!-- Character1 -->
<g id="node2" class="node">
<title>Character1</title>
<ellipse fill="black" stroke="white" cx="285.5" cy="-138.49" rx="55.86" ry="28.99"/>
<text xml:space="preserve" text-anchor="middle" x="285.5" y="-141.69" font-family="Times New Roman,serif" font-size="14.00" fill="white">Character 1</text>
<text xml:space="preserve" text-anchor="middle" x="285.5" y="-125.19" font-family="Times New Roman,serif" font-size="14.00" fill="white">Number: 0</text>
</g>
<!-- Player&#45;&gt;Character1 -->
<g id="edge1" class="edge">
<title>Player&#45;&gt;Character1</title>
<path fill="none" stroke="gray" d="M563.12,-212.5C512.84,-199.27 411.37,-172.59 346.03,-155.41"/>
<polygon fill="gray" stroke="gray" points="347.09,-152.07 336.53,-152.91 345.31,-158.84 347.09,-152.07"/>
</g>
<!-- Character2 -->
<g id="node3" class="node">
<title>Character2</title>
<ellipse fill="black" stroke="white" cx="593.5" cy="-138.49" rx="55.86" ry="28.99"/>
<text xml:space="preserve" text-anchor="middle" x="593.5" y="-141.69" font-family="Times New Roman,serif" font-size="14.00" fill="white">Character 2</text>
<text xml:space="preserve" text-anchor="middle" x="593.5" y="-125.19" font-family="Times New Roman,serif" font-size="14.00" fill="white">Number: 1</text>
</g>
<!-- Player&#45;&gt;Character2 -->
<g id="edge2" class="edge">
<title>Player&#45;&gt;Character2</title>
<path fill="none" stroke="gray" d="M593.5,-203.31C593.5,-196.22 593.5,-187.69 593.5,-179.2"/>
<polygon fill="gray" stroke="gray" points="597,-179.31 593.5,-169.31 590,-179.31 597,-179.31"/>
</g>
<!-- Character3 -->
<g id="node4" class="node">
<title>Character3</title>
<ellipse fill="black" stroke="white" cx="901.5" cy="-138.49" rx="55.86" ry="28.99"/>
<text xml:space="preserve" text-anchor="middle" x="901.5" y="-141.69" font-family="Times New Roman,serif" font-size="14.00" fill="white">Character 3</text>
<text xml:space="preserve" text-anchor="middle" x="901.5" y="-125.19" font-family="Times New Roman,serif" font-size="14.00" fill="white">Number: 2</text>
</g>
<!-- Player&#45;&gt;Character3 -->
<g id="edge3" class="edge">
<title>Player&#45;&gt;Character3</title>
<path fill="none" stroke="gray" d="M623.88,-212.5C674.16,-199.27 775.63,-172.59 840.97,-155.41"/>
<polygon fill="gray" stroke="gray" points="841.69,-158.84 850.47,-152.91 839.91,-152.07 841.69,-158.84"/>
</g>
<!-- CharacterEntity1 -->
<g id="node5" class="node">
<title>CharacterEntity1</title>
<polygon fill="black" stroke="white" points="103,-62.75 0,-62.75 0,-26.75 103,-26.75 103,-62.75"/>
<text xml:space="preserve" text-anchor="middle" x="51.5" y="-39.7" font-family="Times New Roman,serif" font-size="14.00" fill="white">Character entity</text>
</g>
<!-- Character1&#45;&gt;CharacterEntity1 -->
<g id="edge4" class="edge">
<title>Character1&#45;&gt;CharacterEntity1</title>
<path fill="none" stroke="gray" d="M238.53,-122.63C186.09,-106.05 108.5,-81.5 108.5,-81.5 108.5,-81.5 99.71,-75.99 89.03,-69.29"/>
<polygon fill="gray" stroke="gray" points="90.95,-66.36 80.61,-64.01 87.23,-72.29 90.95,-66.36"/>
</g>
<!-- G1_Shield2 -->
<g id="node9" class="node">
<title>G1_Shield2</title>
<polygon fill="none" stroke="white" stroke-dasharray="5,2" points="334.38,-73.5 236.62,-73.5 236.62,-16 334.38,-16 334.38,-73.5"/>
<text xml:space="preserve" text-anchor="middle" x="285.5" y="-56.2" font-family="Times New Roman,serif" font-size="14.00" fill="white">Shield Entity 2</text>
<text xml:space="preserve" text-anchor="middle" x="285.5" y="-39.7" font-family="Times New Roman,serif" font-size="14.00" fill="white">Number: 1</text>
<text xml:space="preserve" text-anchor="middle" x="285.5" y="-23.2" font-family="Times New Roman,serif" font-size="14.00" fill="white">(optional)</text>
</g>
<!-- Character1&#45;&gt;G1_Shield2 -->
<g id="edge7" class="edge">
<title>Character1&#45;&gt;G1_Shield2</title>
<path fill="none" stroke="gray" d="M285.5,-109.22C285.5,-101.65 285.5,-93.32 285.5,-85.27"/>
<polygon fill="gray" stroke="gray" points="289,-93.01 285.5,-83.01 282,-93.01 289,-93.01"/>
</g>
<!-- CharacterEntity2 -->
<g id="node6" class="node">
<title>CharacterEntity2</title>
<polygon fill="black" stroke="white" points="528,-62.75 425,-62.75 425,-26.75 528,-26.75 528,-62.75"/>
<text xml:space="preserve" text-anchor="middle" x="476.5" y="-39.7" font-family="Times New Roman,serif" font-size="14.00" fill="white">Character entity</text>
</g>
<!-- Character2&#45;&gt;CharacterEntity2 -->
<g id="edge5" class="edge">
<title>Character2&#45;&gt;CharacterEntity2</title>
<path fill="none" stroke="gray" d="M563.37,-113.87C546.19,-100.39 524.7,-83.54 507.39,-69.97"/>
<polygon fill="gray" stroke="gray" points="509.99,-67.56 499.96,-64.14 505.67,-73.07 509.99,-67.56"/>
</g>
<!-- G2_Shield2 -->
<g id="node12" class="node">
<title>G2_Shield2</title>
<polygon fill="none" stroke="white" stroke-dasharray="5,2" points="759.38,-73.5 661.62,-73.5 661.62,-16 759.38,-16 759.38,-73.5"/>
<text xml:space="preserve" text-anchor="middle" x="710.5" y="-56.2" font-family="Times New Roman,serif" font-size="14.00" fill="white">Shield Entity 2</text>
<text xml:space="preserve" text-anchor="middle" x="710.5" y="-39.7" font-family="Times New Roman,serif" font-size="14.00" fill="white">Number: 1</text>
<text xml:space="preserve" text-anchor="middle" x="710.5" y="-23.2" font-family="Times New Roman,serif" font-size="14.00" fill="white">(optional)</text>
</g>
<!-- Character2&#45;&gt;G2_Shield2 -->
<g id="edge8" class="edge">
<title>Character2&#45;&gt;G2_Shield2</title>
<path fill="none" stroke="gray" d="M623.63,-113.87C633.54,-106.09 644.89,-97.2 656.04,-88.45"/>
<polygon fill="gray" stroke="gray" points="658.01,-91.36 663.72,-82.43 653.69,-85.85 658.01,-91.36"/>
</g>
<!-- CharacterEntity3 -->
<g id="node7" class="node">
<title>CharacterEntity3</title>
<polygon fill="black" stroke="white" points="953,-62.75 850,-62.75 850,-26.75 953,-26.75 953,-62.75"/>
<text xml:space="preserve" text-anchor="middle" x="901.5" y="-39.7" font-family="Times New Roman,serif" font-size="14.00" fill="white">Character entity</text>
</g>
<!-- Character3&#45;&gt;CharacterEntity3 -->
<g id="edge6" class="edge">
<title>Character3&#45;&gt;CharacterEntity3</title>
<path fill="none" stroke="gray" d="M901.5,-109.22C901.5,-98.16 901.5,-85.49 901.5,-74.4"/>
<polygon fill="gray" stroke="gray" points="905,-74.64 901.5,-64.64 898,-74.64 905,-74.64"/>
</g>
<!-- G3_Shield2 -->
<g id="node15" class="node">
<title>G3_Shield2</title>
<polygon fill="none" stroke="white" stroke-dasharray="5,2" points="1184.38,-73.5 1086.62,-73.5 1086.62,-16 1184.38,-16 1184.38,-73.5"/>
<text xml:space="preserve" text-anchor="middle" x="1135.5" y="-56.2" font-family="Times New Roman,serif" font-size="14.00" fill="white">Shield Entity 2</text>
<text xml:space="preserve" text-anchor="middle" x="1135.5" y="-39.7" font-family="Times New Roman,serif" font-size="14.00" fill="white">Number: 1</text>
<text xml:space="preserve" text-anchor="middle" x="1135.5" y="-23.2" font-family="Times New Roman,serif" font-size="14.00" fill="white">(optional)</text>
</g>
<!-- Character3&#45;&gt;G3_Shield2 -->
<g id="edge9" class="edge">
<title>Character3&#45;&gt;G3_Shield2</title>
<path fill="none" stroke="gray" d="M948.66,-122.49C988.99,-109.66 1044.01,-92.16 1066.87,-84.88"/>
<polygon fill="gray" stroke="gray" points="1067.59,-88.33 1076.06,-81.96 1065.47,-81.66 1067.59,-88.33"/>
</g>
<!-- G1_Shield1 -->
<g id="node8" class="node">
<title>G1_Shield1</title>
<polygon fill="none" stroke="white" points="218.38,-65.25 120.62,-65.25 120.62,-24.25 218.38,-24.25 218.38,-65.25"/>
<text xml:space="preserve" text-anchor="middle" x="169.5" y="-47.95" font-family="Times New Roman,serif" font-size="14.00" fill="white">Shield Entity 1</text>
<text xml:space="preserve" text-anchor="middle" x="169.5" y="-31.45" font-family="Times New Roman,serif" font-size="14.00" fill="white">Number: 0</text>
</g>
<!-- G1_Shield3 -->
<g id="node10" class="node">
<title>G1_Shield3</title>
<polygon fill="none" stroke="white" stroke-dasharray="5,2" points="406.5,-62.75 352.5,-62.75 352.5,-26.75 406.5,-26.75 406.5,-62.75"/>
<text xml:space="preserve" text-anchor="middle" x="379.5" y="-39.7" font-family="Times New Roman,serif" font-size="14.00" fill="white">...</text>
</g>
<!-- G2_Shield1 -->
<g id="node11" class="node">
<title>G2_Shield1</title>
<polygon fill="none" stroke="white" points="643.38,-65.25 545.62,-65.25 545.62,-24.25 643.38,-24.25 643.38,-65.25"/>
<text xml:space="preserve" text-anchor="middle" x="594.5" y="-47.95" font-family="Times New Roman,serif" font-size="14.00" fill="white">Shield Entity 1</text>
<text xml:space="preserve" text-anchor="middle" x="594.5" y="-31.45" font-family="Times New Roman,serif" font-size="14.00" fill="white">Number: 0</text>
</g>
<!-- G2_Shield3 -->
<g id="node13" class="node">
<title>G2_Shield3</title>
<polygon fill="none" stroke="white" stroke-dasharray="5,2" points="831.5,-62.75 777.5,-62.75 777.5,-26.75 831.5,-26.75 831.5,-62.75"/>
<text xml:space="preserve" text-anchor="middle" x="804.5" y="-39.7" font-family="Times New Roman,serif" font-size="14.00" fill="white">...</text>
</g>
<!-- G3_Shield1 -->
<g id="node14" class="node">
<title>G3_Shield1</title>
<polygon fill="none" stroke="white" points="1068.38,-65.25 970.62,-65.25 970.62,-24.25 1068.38,-24.25 1068.38,-65.25"/>
<text xml:space="preserve" text-anchor="middle" x="1019.5" y="-47.95" font-family="Times New Roman,serif" font-size="14.00" fill="white">Shield Entity 1</text>
<text xml:space="preserve" text-anchor="middle" x="1019.5" y="-31.45" font-family="Times New Roman,serif" font-size="14.00" fill="white">Number: 0</text>
</g>
<!-- G3_Shield3 -->
<g id="node16" class="node">
<title>G3_Shield3</title>
<polygon fill="none" stroke="white" stroke-dasharray="5,2" points="1256.5,-62.75 1202.5,-62.75 1202.5,-26.75 1256.5,-26.75 1256.5,-62.75"/>
<text xml:space="preserve" text-anchor="middle" x="1229.5" y="-39.7" font-family="Times New Roman,serif" font-size="14.00" fill="white">...</text>
</g>
</g>
</svg>

<g id="navigator" transform="translate(0 0)" fill="#404254">
  <rect fill="#f2f5e9" fill-opacity="0.5" stroke="#606060" stroke-width=".5" x="0" y="0" width="60" height="60"/>
  <use id="zoomplus" xlink:href="#zoomPlus" x="17" y="9" onmousedown="handleZoom(evt,'in')"/>
  <use id="zoomminus" xlink:href="#zoomMin" x="42" y="9" onmousedown="handleZoom(evt,'out')"/>
  <use id="reset" xlink:href="#resetDef" x="30" y="36" onmousedown="handleReset()"/>
   <use id="arrowup" xlink:href="#arrowUp" x="0" y="0" onmousedown="handlePan(0,-1)"/>
  <use id="arrowright" xlink:href="#arrowRight" x="0" y="0" onmousedown="handlePan(1,0)"/>
  <use id="arrowdown" xlink:href="#arrowDown" x="0" y="0" onmousedown="handlePan(0,1)"/>
  <use id="arrowleft" xlink:href="#arrowLeft" x="0" y="0" onmousedown="handlePan(-1,0)"/>
</g>
<svg viewBox="0 0 15 15" width="100%" height="30px" preserveAspectRatio="xMaxYMin meet">
 <g id="arrow_out" transform="scale(0.3 0.3)">
  <a xlink:href="dot_inline_dotgraph_6cda29881f792118769d06d26a972587_org.svg" target="_base">
   <rect id="button" ry="5" rx="5" y="6" x="6" height="38" width="38"
        fill="#f2f5e9" fill-opacity="0.5" stroke="#606060" stroke-width="1.0"/>
   <path id="arrow"
     d="M 11.500037,31.436501 C 11.940474,20.09759 22.043105,11.32322 32.158766,21.979434 L 37.068811,17.246167 C 37.068811,17.246167 37.088388,32 37.088388,32 L 22.160133,31.978069 C 22.160133,31.978069 26.997745,27.140456 26.997745,27.140456 C 18.528582,18.264221 13.291696,25.230495 11.500037,31.436501 z"
     style="fill:#404040;"/>
  </a>
 </g>
</svg>

<style type='text/css'>
<![CDATA[
[data-mouse-over-selected='false'] { opacity: 0.7; }
[data-mouse-over-selected='true']  { opacity: 1.0; }
]]>
</style>
<script type="application/ecmascript"><![CDATA[
document.addEventListener('DOMContentLoaded', (event) => {
  highlightEdges();
  highlightAdjacentNodes();
});
]]></script>
</svg>
