<?xml version="1.0" encoding="UTF-8" standalone="no"?>
<!DOCTYPE svg PUBLIC "-//W3C//DTD SVG 1.1//EN"
 "http://www.w3.org/Graphics/SVG/1.1/DTD/svg11.dtd">
<!-- Generated by graphviz version 14.1.1 (20251213.1925)
 -->
<!-- Title: PlayerSimulation Pages: 1 -->
<!--zoomable 646 -->

<svg id="main" version="1.1" xmlns="http://www.w3.org/2000/svg" xmlns:xlink="http://www.w3.org/1999/xlink" xml:space="preserve" onload="init(evt)">

<style type="text/css"><![CDATA[
.node, .edge {opacity: 0.7;}
.node.selected, .edge.selected {opacity: 1;}
.edge:hover path { stroke: red; }
.edge:hover polygon { stroke: red; fill: red; }
]]></style>

<defs>
  <circle id="rim" cx="0" cy="0" r="7"/>
  <circle id="rim2" cx="0" cy="0" r="3.5"/>
  <g id="zoomPlus">
    <use xlink:href="#rim" fill="#404040"><set attributeName="fill" to="#808080" begin="zoomplus.mouseover" end="zoomplus.mouseout"/></use>
    <path d="M-4,0h8M0,-4v8" fill="none" stroke="white" stroke-width="1.5" pointer-events="none"/>
  </g>
  <g id="zoomMin">
    <use xlink:href="#rim" fill="#404040"><set attributeName="fill" to="#808080" begin="zoomminus.mouseover" end="zoomminus.mouseout"/></use>
    <path d="M-4,0h8" fill="none" stroke="white" stroke-width="1.5" pointer-events="none"/>
  </g>
  <g id="arrowUp" transform="translate(30 24)">
    <use xlink:href="#rim"/>
    <path pointer-events="none" fill="none" stroke="white" stroke-width="1.5" d="M0,-3.0v7 M-2.5,-0.5L0,-3.0L2.5,-0.5"/>
  </g>
  <g id="arrowRight" transform="rotate(90) translate(36 -43)">
    <use xlink:href="#rim"/>
    <path pointer-events="none" fill="none" stroke="white" stroke-width="1.5" d="M0,-3.0v7 M-2.5,-0.5L0,-3.0L2.5,-0.5"/>
  </g>
  <g id="arrowDown" transform="rotate(180) translate(-30 -48)">
    <use xlink:href="#rim"/>
    <path pointer-events="none" fill="none" stroke="white" stroke-width="1.5" d="M0,-3.0v7 M-2.5,-0.5L0,-3.0L2.5,-0.5"/>
  </g>
  <g id="arrowLeft" transform="rotate(270) translate(-36 17)">
    <use xlink:href="#rim"/>
    <path pointer-events="none" fill="none" stroke="white" stroke-width="1.5" d="M0,-3.0v7 M-2.5,-0.5L0,-3.0L2.5,-0.5"/>
  </g>
  <g id="resetDef">
    <use xlink:href="#rim2" fill="#404040"><set attributeName="fill" to="#808080" begin="reset.mouseover" end="reset.mouseout"/></use>
  </g>
</defs>
<script type="application/ecmascript">
var viewWidth = 877;
var viewHeight = 646;
</script>
<script type="application/ecmascript" xlink:href="svg.min.js"/>
<svg id="graph" class="graph">
<g id="viewport">
<title>PlayerSimulation</title>
<polygon fill="black" stroke="none" points="-4,4 -4,-641.5 872.88,-641.5 872.88,4 -4,4"/>
<!-- PlayerManager -->
<g id="node1" class="node">
<title>PlayerManager</title>
<polygon fill="black" stroke="#f159e4" points="514.51,-637.5 222.51,-637.5 222.51,-564 514.51,-564 514.51,-637.5"/>
<text xml:space="preserve" text-anchor="middle" x="368.51" y="-620.2" font-family="Times New Roman,serif" font-size="14.00" fill="#f159e4">PlayerManager</text>
<text xml:space="preserve" text-anchor="middle" x="368.51" y="-587.7" font-family="Times New Roman,serif" font-size="14.00" fill="#f159e4">Handles player management,</text>
<text xml:space="preserve" text-anchor="middle" x="368.51" y="-571.2" font-family="Times New Roman,serif" font-size="14.00" fill="#f159e4">allowing other classes to focus on gameplay logic.</text>
</g>
<!-- PlayerManagerData -->
<g id="node2" class="node">
<title>PlayerManagerData</title>
<polygon fill="black" stroke="#f159e4" points="757.51,-528 477.51,-528 477.51,-438 757.51,-438 757.51,-528"/>
<text xml:space="preserve" text-anchor="middle" x="617.51" y="-510.7" font-family="Times New Roman,serif" font-size="14.00" fill="#f159e4">PlayerManagerData</text>
<text xml:space="preserve" text-anchor="middle" x="617.51" y="-494.2" font-family="Times New Roman,serif" font-size="14.00" fill="#f159e4">(Quantum singleton)</text>
<text xml:space="preserve" text-anchor="middle" x="617.51" y="-461.7" font-family="Times New Roman,serif" font-size="14.00" fill="#f159e4">PlayerManager related data</text>
<text xml:space="preserve" text-anchor="middle" x="617.51" y="-445.2" font-family="Times New Roman,serif" font-size="14.00" fill="#f159e4">accessed by other classes through PlayerHandle.</text>
</g>
<!-- PlayerManager&#45;&gt;PlayerManagerData -->
<g id="edge1" class="edge">
<title>PlayerManager&#45;&gt;PlayerManagerData</title>
<path fill="none" stroke="gray" d="M446.27,-563.6C470.24,-552.46 496.92,-540.06 521.94,-528.42"/>
</g>
<!-- PlayerHandle -->
<g id="node3" class="node">
<title>PlayerHandle</title>
<polygon fill="black" stroke="#f159e4" points="868.88,-402 396.13,-402 396.13,-328.5 868.88,-328.5 868.88,-402"/>
<text xml:space="preserve" text-anchor="middle" x="632.51" y="-384.7" font-family="Times New Roman,serif" font-size="14.00" fill="#f159e4">PlayerHandle</text>
<text xml:space="preserve" text-anchor="middle" x="632.51" y="-352.2" font-family="Times New Roman,serif" font-size="14.00" fill="#f159e4">A struct defined in PlayerManager,</text>
<text xml:space="preserve" text-anchor="middle" x="632.51" y="-335.7" font-family="Times New Roman,serif" font-size="14.00" fill="#f159e4">which allows other classes to access PlayerManagerData for each individual player.</text>
</g>
<!-- PlayerManager&#45;&gt;PlayerHandle -->
<g id="edge2" class="edge">
<title>PlayerManager&#45;&gt;PlayerHandle</title>
<path fill="none" stroke="gray" d="M383.16,-563.51C399.34,-527.49 428.48,-472.73 468.51,-438 484.82,-423.84 504.36,-412.09 524.18,-402.47"/>
</g>
<!-- PlayerQSystem -->
<g id="node4" class="node">
<title>PlayerQSystem</title>
<polygon fill="black" stroke="#f159e4" points="603.13,-284.25 341.88,-284.25 341.88,-210.75 603.13,-210.75 603.13,-284.25"/>
<text xml:space="preserve" text-anchor="middle" x="472.51" y="-266.95" font-family="Times New Roman,serif" font-size="14.00" fill="#f159e4">PlayerQSystem</text>
<text xml:space="preserve" text-anchor="middle" x="472.51" y="-234.45" font-family="Times New Roman,serif" font-size="14.00" fill="#f159e4">Handles primary gameplay logic for players.</text>
<text xml:space="preserve" text-anchor="middle" x="472.51" y="-217.95" font-family="Times New Roman,serif" font-size="14.00" fill="#f159e4">Uses other classes for specific player logic.</text>
</g>
<!-- PlayerManager&#45;&gt;PlayerQSystem -->
<g id="edge13" class="edge">
<title>PlayerManager&#45;&gt;PlayerQSystem</title>
<path fill="none" stroke="gray" d="M361.8,-552.48C356,-496.21 353.23,-400.78 387.51,-328.5 395.41,-311.84 408.43,-296.91 421.94,-284.59"/>
<polygon fill="gray" stroke="gray" points="358.31,-552.82 362.9,-562.37 365.27,-552.04 358.31,-552.82"/>
</g>
<!-- PlayerClassManager -->
<g id="node6" class="node">
<title>PlayerClassManager</title>
<polygon fill="black" stroke="#f159e4" points="340.38,-528 86.63,-528 86.63,-438 340.38,-438 340.38,-528"/>
<text xml:space="preserve" text-anchor="middle" x="213.51" y="-510.7" font-family="Times New Roman,serif" font-size="14.00" fill="#f159e4">PlayerClassManager</text>
<text xml:space="preserve" text-anchor="middle" x="213.51" y="-478.2" font-family="Times New Roman,serif" font-size="14.00" fill="#f159e4">Handles the initial loading of player classes</text>
<text xml:space="preserve" text-anchor="middle" x="213.51" y="-461.7" font-family="Times New Roman,serif" font-size="14.00" fill="#f159e4">and routes individual game events</text>
<text xml:space="preserve" text-anchor="middle" x="213.51" y="-445.2" font-family="Times New Roman,serif" font-size="14.00" fill="#f159e4">to the correct class scripts.</text>
</g>
<!-- PlayerManager&#45;&gt;PlayerClassManager -->
<g id="edge9" class="edge">
<title>PlayerManager&#45;&gt;PlayerClassManager</title>
<path fill="none" stroke="gray" d="M320.31,-563.76C308.11,-554.65 294.77,-544.69 281.78,-534.99"/>
<polygon fill="gray" stroke="gray" points="284.18,-532.41 274.08,-529.23 279.99,-538.02 284.18,-532.41"/>
</g>
<!-- PlayerData -->
<g id="node10" class="node">
<title>PlayerData</title>
<polygon fill="black" stroke="#f159e4" points="387.13,-166.5 167.88,-166.5 167.88,-93 387.13,-93 387.13,-166.5"/>
<text xml:space="preserve" text-anchor="middle" x="277.51" y="-149.2" font-family="Times New Roman,serif" font-size="14.00" fill="#f159e4">PlayerData</text>
<text xml:space="preserve" text-anchor="middle" x="277.51" y="-132.7" font-family="Times New Roman,serif" font-size="14.00" fill="#f159e4">(Quantum component)</text>
<text xml:space="preserve" text-anchor="middle" x="277.51" y="-100.2" font-family="Times New Roman,serif" font-size="14.00" fill="#f159e4">An individual player character&#39;s data.</text>
</g>
<!-- PlayerManager&#45;&gt;PlayerData -->
<g id="edge4" class="edge">
<title>PlayerManager&#45;&gt;PlayerData</title>
<path fill="none" stroke="gray" d="M222.14,-579.84C159.97,-568.24 97.27,-551.24 77.51,-528 -16.38,-417.61 -26.53,-319.84 58.51,-202.5 83.74,-167.67 126.4,-149.44 167.4,-140.01"/>
</g>
<!-- PlayerManagerData&#45;&gt;PlayerHandle -->
<g id="edge3" class="edge">
<title>PlayerManagerData&#45;&gt;PlayerHandle</title>
<path fill="none" stroke="gray" d="M623.26,-437.58C624.77,-425.98 626.37,-413.61 627.81,-402.49"/>
</g>
<!-- PlayerHandle&#45;&gt;PlayerQSystem -->
<g id="edge14" class="edge">
<title>PlayerHandle&#45;&gt;PlayerQSystem</title>
<path fill="none" stroke="gray" d="M573.59,-321.63C556.81,-309.49 538.69,-296.38 522.5,-284.67"/>
<polygon fill="gray" stroke="gray" points="571.38,-324.35 581.53,-327.37 575.48,-318.68 571.38,-324.35"/>
</g>
<!-- PlayerMovementController -->
<g id="node5" class="node">
<title>PlayerMovementController</title>
<polygon fill="black" stroke="#f159e4" points="687.13,-57 341.88,-57 341.88,0 687.13,0 687.13,-57"/>
<text xml:space="preserve" text-anchor="middle" x="514.51" y="-39.7" font-family="Times New Roman,serif" font-size="14.00" fill="#f159e4">PlayerMovementController</text>
<text xml:space="preserve" text-anchor="middle" x="514.51" y="-7.2" font-family="Times New Roman,serif" font-size="14.00" fill="#f159e4">Handles the logic for moving and rotating player characters.</text>
</g>
<!-- PlayerQSystem&#45;&gt;PlayerMovementController -->
<g id="edge11" class="edge">
<title>PlayerQSystem&#45;&gt;PlayerMovementController</title>
<path fill="none" stroke="gray" d="M479.44,-210.67C487.01,-171.55 499.1,-109.12 506.91,-68.72"/>
<polygon fill="gray" stroke="gray" points="510.35,-69.41 508.81,-58.93 503.47,-68.08 510.35,-69.41"/>
</g>
<!-- PlayerBotController -->
<g id="node9" class="node">
<title>PlayerBotController</title>
<polygon fill="black" stroke="#f159e4" points="323.76,-57 111.26,-57 111.26,0 323.76,0 323.76,-57"/>
<text xml:space="preserve" text-anchor="middle" x="217.51" y="-39.7" font-family="Times New Roman,serif" font-size="14.00" fill="#f159e4">PlayerBotController</text>
<text xml:space="preserve" text-anchor="middle" x="217.51" y="-7.2" font-family="Times New Roman,serif" font-size="14.00" fill="#f159e4">Handles AI and other logic for bots.</text>
</g>
<!-- PlayerQSystem&#45;&gt;PlayerBotController -->
<g id="edge12" class="edge">
<title>PlayerQSystem&#45;&gt;PlayerBotController</title>
<path fill="none" stroke="gray" d="M463.17,-210.28C452.49,-175.68 431.75,-124.29 396.51,-93 384.81,-82.62 357.23,-71.22 327.12,-60.98"/>
<polygon fill="gray" stroke="gray" points="328.42,-57.72 317.83,-57.88 326.21,-64.36 328.42,-57.72"/>
</g>
<!-- PlayerQSystem&#45;&gt;PlayerData -->
<g id="edge5" class="edge">
<title>PlayerQSystem&#45;&gt;PlayerData</title>
<path fill="none" stroke="gray" d="M411.61,-210.35C388.25,-196.49 361.62,-180.68 338.28,-166.82"/>
</g>
<!-- PlayerClassManager&#45;&gt;PlayerQSystem -->
<g id="edge15" class="edge">
<title>PlayerClassManager&#45;&gt;PlayerQSystem</title>
<path fill="none" stroke="gray" d="M283.33,-430.27C293.34,-421.4 303.08,-411.84 311.51,-402 336.11,-373.24 328.65,-356.14 354.51,-328.5 369.98,-311.96 389.46,-297.03 408.12,-284.66"/>
<polygon fill="gray" stroke="gray" points="281.31,-427.39 276.03,-436.57 285.89,-432.69 281.31,-427.39"/>
</g>
<!-- PlayerClass -->
<g id="node7" class="node">
<title>PlayerClass</title>
<polygon fill="black" stroke="#f159e4" points="302.13,-402 88.88,-402 88.88,-328.5 302.13,-328.5 302.13,-402"/>
<text xml:space="preserve" text-anchor="middle" x="195.51" y="-384.7" font-family="Times New Roman,serif" font-size="14.00" fill="#f159e4">PlayerClass</text>
<text xml:space="preserve" text-anchor="middle" x="195.51" y="-352.2" font-family="Times New Roman,serif" font-size="14.00" fill="#f159e4">.Handles class gameplay for players</text>
<text xml:space="preserve" text-anchor="middle" x="195.51" y="-335.7" font-family="Times New Roman,serif" font-size="14.00" fill="#f159e4">in a character class.</text>
</g>
<!-- PlayerClassManager&#45;&gt;PlayerClass -->
<g id="edge10" class="edge">
<title>PlayerClassManager&#45;&gt;PlayerClass</title>
<path fill="none" stroke="gray" d="M206.6,-437.58C205.39,-429.78 204.12,-421.64 202.89,-413.77"/>
<polygon fill="gray" stroke="gray" points="206.37,-413.33 201.37,-403.98 199.45,-414.4 206.37,-413.33"/>
</g>
<!-- PlayerClassData -->
<g id="node8" class="node">
<title>PlayerClassData</title>
<polygon fill="black" stroke="#f159e4" points="323.51,-292.5 67.51,-292.5 67.51,-202.5 323.51,-202.5 323.51,-292.5"/>
<text xml:space="preserve" text-anchor="middle" x="195.51" y="-275.2" font-family="Times New Roman,serif" font-size="14.00" fill="#f159e4">PlayerClassData</text>
<text xml:space="preserve" text-anchor="middle" x="195.51" y="-258.7" font-family="Times New Roman,serif" font-size="14.00" fill="#f159e4">(Quantum component)</text>
<text xml:space="preserve" text-anchor="middle" x="195.51" y="-226.2" font-family="Times New Roman,serif" font-size="14.00" fill="#f159e4">An individual player character&#39;s data</text>
<text xml:space="preserve" text-anchor="middle" x="195.51" y="-209.7" font-family="Times New Roman,serif" font-size="14.00" fill="#f159e4">which is specific to a player character class.</text>
</g>
<!-- PlayerClass&#45;&gt;PlayerClassData -->
<g id="edge8" class="edge">
<title>PlayerClass&#45;&gt;PlayerClassData</title>
<path fill="none" stroke="gray" d="M195.51,-328.26C195.51,-316.98 195.51,-304.4 195.51,-292.62"/>
</g>
<!-- PlayerData&#45;&gt;PlayerMovementController -->
<g id="edge6" class="edge">
<title>PlayerData&#45;&gt;PlayerMovementController</title>
<path fill="none" stroke="gray" d="M363.74,-92.64C391.4,-81.05 421.6,-68.41 447.66,-57.49"/>
</g>
<!-- PlayerData&#45;&gt;PlayerBotController -->
<g id="edge7" class="edge">
<title>PlayerData&#45;&gt;PlayerBotController</title>
<path fill="none" stroke="gray" d="M255.67,-92.64C248.64,-81 240.95,-68.29 234.33,-57.34"/>
</g>
</g>
</svg>

<g id="navigator" transform="translate(0 0)" fill="#404254">
  <rect fill="#f2f5e9" fill-opacity="0.5" stroke="#606060" stroke-width=".5" x="0" y="0" width="60" height="60"/>
  <use id="zoomplus" xlink:href="#zoomPlus" x="17" y="9" onmousedown="handleZoom(evt,'in')"/>
  <use id="zoomminus" xlink:href="#zoomMin" x="42" y="9" onmousedown="handleZoom(evt,'out')"/>
  <use id="reset" xlink:href="#resetDef" x="30" y="36" onmousedown="handleReset()"/>
   <use id="arrowup" xlink:href="#arrowUp" x="0" y="0" onmousedown="handlePan(0,-1)"/>
  <use id="arrowright" xlink:href="#arrowRight" x="0" y="0" onmousedown="handlePan(1,0)"/>
  <use id="arrowdown" xlink:href="#arrowDown" x="0" y="0" onmousedown="handlePan(0,1)"/>
  <use id="arrowleft" xlink:href="#arrowLeft" x="0" y="0" onmousedown="handlePan(-1,0)"/>
</g>
<svg viewBox="0 0 15 15" width="100%" height="30px" preserveAspectRatio="xMaxYMin meet">
 <g id="arrow_out" transform="scale(0.3 0.3)">
  <a xlink:href="dot_inline_dotgraph_7_org.svg" target="_base">
   <rect id="button" ry="5" rx="5" y="6" x="6" height="38" width="38"
        fill="#f2f5e9" fill-opacity="0.5" stroke="#606060" stroke-width="1.0"/>
   <path id="arrow"
     d="M 11.500037,31.436501 C 11.940474,20.09759 22.043105,11.32322 32.158766,21.979434 L 37.068811,17.246167 C 37.068811,17.246167 37.088388,32 37.088388,32 L 22.160133,31.978069 C 22.160133,31.978069 26.997745,27.140456 26.997745,27.140456 C 18.528582,18.264221 13.291696,25.230495 11.500037,31.436501 z"
     style="fill:#404040;"/>
  </a>
 </g>
</svg>

<style type='text/css'>
<![CDATA[
[data-mouse-over-selected='false'] { opacity: 0.7; }
[data-mouse-over-selected='true']  { opacity: 1.0; }
]]>
</style>
<script type="application/ecmascript"><![CDATA[
document.addEventListener('DOMContentLoaded', (event) => {
  highlightEdges();
  highlightAdjacentNodes();
});
]]></script>
</svg>
